<?xml version="1.0" encoding="UTF-8"?>
<svg width="36px" height="25px" viewBox="0 0 36 25" version="1.1" xmlns="http://www.w3.org/2000/svg" xmlns:xlink="http://www.w3.org/1999/xlink">
    <!-- Generator: sketchtool 48.2 (47327) - http://www.bohemiancoding.com/sketch -->
    <title>8F21E255-6FD0-4B95-B2DD-A28B2F78CFA7</title>
    <desc>Created with sketchtool.</desc>
    <defs></defs>
    <g id="KULT-REGISTRATION" stroke="none" stroke-width="1" fill="none" fill-rule="evenodd" transform="translate(-732.000000, -247.000000)">
        <g id="Group-25" transform="translate(0.000000, -1.000000)" fill="#FFFFFF">
            <g id="Group-12" transform="translate(420.000000, 239.000000)">
                <g id="arrow-down" transform="translate(328.512921, 17.998184) rotate(-16.000000) translate(-328.512921, -17.998184) translate(306.012921, 5.998184)">
                    <path d="M14.8655125,-7.25721584 C14.8665916,-7.85107772 15.0439228,-8.38558938 15.3993047,-8.86254932 C15.7359823,-9.31469007 16.2999893,-9.44130387 16.7701149,-9.14419308 C17.0111128,-8.991681 17.2593046,-8.83161526 17.4535417,-8.62694693 C18.260345,-7.77769927 19.2595868,-7.21764902 20.2742957,-6.67342551 C22.4508301,-5.50620455 24.6288032,-4.34150148 26.7967048,-3.15845379 C27.552431,-2.74659925 28.2937691,-2.30488975 29.0185612,-1.84051925 C29.6678166,-1.42434833 29.7584606,-0.894872439 29.3422897,-0.217920253 C29.2538039,-0.0736812378 29.1333049,0.0572489407 29.0056121,0.16911511 C28.7761245,0.370905852 28.4959196,0.457952839 28.2106788,0.328821152 C27.8977413,0.187459723 27.6078245,-0.00318037244 27.3063973,-0.169360984 C24.3899636,-1.77865114 21.4731701,-3.3879413 18.5545782,-4.99399418 C18.4053034,-5.07636509 18.2398422,-5.13103923 18.0786973,-5.19038945 C18.0265411,-5.20945346 17.9308613,-5.22599958 17.9135958,-5.2011804 C17.8524471,-5.1162916 17.7585658,-4.99723147 17.7801477,-4.91917694 C18.0362529,-3.9792853 18.2919984,-3.03831456 18.5851525,-2.10885418 C19.2416019,-0.0279995546 19.9027274,2.05141627 20.5969451,4.12004115 C20.8519712,4.88044334 20.6544968,5.4595576 20.096245,5.97536495 C19.7502153,6.29477703 19.2721763,6.2390238 19.0908883,5.83472291 C18.950606,5.521066 18.8214743,5.20057482 18.7153633,4.87396878 C17.9369762,2.47082448 17.1740561,0.0626444151 16.387396,-2.33762229 C16.0482005,-3.37355337 15.652892,-4.39149954 15.3047041,-5.42455304 C15.103273,-6.02057311 14.8478873,-6.60724102 14.8655125,-7.25721584 Z M26.0714811,21.1599205 C25.1441789,24.0655633 24.0337903,26.9007052 22.7471495,29.6635478 C22.3122743,30.5980439 21.7551016,31.4771466 21.2187915,32.3605656 C21.0792285,32.5914919 20.82708,32.7699022 20.5950746,32.9238531 C20.3918451,33.05874 20.1530054,33.0144971 19.9530132,32.8648626 C19.7389927,32.7051565 19.708778,32.4688348 19.7897102,32.2497785 C19.8879078,31.9828824 20.0386214,31.7346906 20.178544,31.4843405 C20.542199,30.8322075 20.9551326,30.2034549 21.2734656,29.5300997 C22.7237691,26.4607942 24.0050145,23.3209878 24.9071378,20.0437767 C26.1495357,15.5299228 25.9304794,11.0563551 24.3758634,6.65041073 C24.0510558,5.7310219 23.6305685,4.845085 23.2518062,3.94511987 C22.8021834,2.87681595 22.1960917,1.90455146 21.451876,1.01717577 C21.2303018,0.753157227 20.9986561,0.495253551 20.7972251,0.216127676 C20.4443611,-0.273781398 20.5173798,-0.844982286 20.9738369,-1.35035839 C21.2810193,-1.69063297 21.7335197,-1.73163858 22.0356663,-1.42265774 C22.7608181,-0.67988077 23.4496403,0.104621206 23.9341539,1.02329064 C25.4427285,3.88433086 26.6516745,6.85399997 27.0574142,10.0988383 C27.1998547,11.2405206 27.3620786,12.3793254 27.3235909,13.5353957 C27.3034478,16.1410502 26.8628174,18.6780022 26.0714811,21.1599205 Z" id="Fill-106" transform="translate(22.229882, 11.849779) rotate(-102.000000) translate(-22.229882, -11.849779) "></path>
                </g>
            </g>
        </g>
    </g>
</svg>