<?xml version="1.0" encoding="UTF-8"?>
<svg width="16px" height="9px" viewBox="0 0 16 9" version="1.1" xmlns="http://www.w3.org/2000/svg" xmlns:xlink="http://www.w3.org/1999/xlink">
    <!-- Generator: sketchtool 48.2 (47327) - http://www.bohemiancoding.com/sketch -->
    <title>29EED2F5-40F7-4914-B245-00A58E3A2F1A</title>
    <desc>Created with sketchtool.</desc>
    <defs></defs>
    <g id="KULT-CATEGORIES" stroke="none" stroke-width="1" fill="none" fill-rule="evenodd" transform="translate(-151.000000, -322.000000)">
        <g id="filter" transform="translate(151.000000, 322.000000)" fill="#959595">
            <path d="M3.31034483,8 L16,8 L16,9 L3.31034483,9 L3.31034483,8 Z M0,8 L1.65517241,8 L1.65517241,9 L0,9 L0,8 Z" id="Combined-Shape-Copy-3"></path>
            <path d="M3.31034483,4 L16,4 L16,5 L3.31034483,5 L3.31034483,4 Z M0,4 L1.65517241,4 L1.65517241,5 L0,5 L0,4 Z" id="Combined-Shape-Copy-2"></path>
            <path d="M3.31034483,0 L16,0 L16,1 L3.31034483,1 L3.31034483,0 Z M0,0 L1.65517241,0 L1.65517241,1 L0,1 L0,0 Z" id="Combined-Shape-Copy"></path>
        </g>
    </g>
</svg>