<?xml version="1.0" encoding="UTF-8"?>
<svg width="9px" height="15px" viewBox="0 0 9 15" version="1.1" xmlns="http://www.w3.org/2000/svg" xmlns:xlink="http://www.w3.org/1999/xlink">
    <!-- Generator: sketchtool 48.2 (47327) - http://www.bohemiancoding.com/sketch -->
    <title>B8E86335-B9F6-4D9F-97E6-48E94B42CDB1</title>
    <desc>Created with sketchtool.</desc>
    <defs></defs>
    <g id="KULT-HOMEPAGE-2" stroke="none" stroke-width="1" fill="none" fill-rule="evenodd" transform="translate(-384.000000, -972.000000)">
        <g id="Flame" transform="translate(384.000000, 972.000000)" fill="#F8CED6" fill-rule="nonzero">
            <path d="M8.86333333,10.6733333 C8.72333333,12.82 7.55666667,13.9166667 6.48333333,14.4533333 C6.34333333,14.5233333 6.20333333,14.36 6.29666667,14.2433333 C7.16,12.8666667 6.62333333,11.1866667 5.64333333,9.88 C4.64,8.50333333 4.26666667,6.96333333 4.26666667,6.96333333 C4.26666667,6.96333333 3.56666667,8.29333333 2.42333333,10.8366667 C1.74666667,12.3766667 2.19,13.5666667 2.63333333,14.2666667 C2.72666667,14.4066667 2.56333333,14.5466667 2.44666667,14.4766667 C1.74666667,14.1033333 1.02333333,13.45 0.51,12.3766667 C0.23,11.8166667 -0.516666667,9.69333333 1.44333333,6.96333333 C3.61333333,4 3.66,1.52666667 3.61333333,0.663333333 C3.61333333,0.523333333 3.75333333,0.453333333 3.84666667,0.523333333 C4.12666667,0.733333333 4.38333333,1.01333333 4.59333333,1.27 C5.41,2.34333333 5.78333333,3.65 5.78333333,4.91 C5.78333333,5.68 5.85333333,6.31 5.99333333,6.66 C6.34333333,7.57 6.92666667,7.17333333 6.83333333,5.58666667 C6.83333333,5.44666667 6.97333333,5.37666667 7.09,5.47 C7.41666667,5.77333333 8,6.45 8.49,7.92 C8.84,9.11 8.91,10.02 8.86333333,10.6733333 Z" id="Shape"></path>
        </g>
    </g>
</svg>