<?xml version="1.0" encoding="UTF-8"?>
<svg width="15px" height="15px" viewBox="0 0 15 15" version="1.1" xmlns="http://www.w3.org/2000/svg" xmlns:xlink="http://www.w3.org/1999/xlink">
    <!-- Generator: sketchtool 48.2 (47327) - http://www.bohemiancoding.com/sketch -->
    <title>6A57C751-7D1D-44DE-B0C4-0E6F129F3145</title>
    <desc>Created with sketchtool.</desc>
    <defs></defs>
    <g id="KULT-HOMEPAGE-2" stroke="none" stroke-width="1" fill="none" fill-rule="evenodd" transform="translate(-666.000000, -5687.000000)">
        <g id="Instagram" transform="translate(666.000000, 5687.000000)" fill="#000000">
            <path d="M10.8603908,0.000285789474 C13.1429834,0.000285789474 15.0000458,1.85707421 14.9999187,4.13977105 L14.9999187,10.8606379 C14.9999187,13.1429874 13.1429834,15.0001232 10.8603908,15.0001232 L4.13930053,15.0001232 C1.85690763,15.0001232 -8.21052631e-05,13.1429874 -8.21052631e-05,10.8606379 L-8.21052631e-05,4.13977105 C-8.21052631e-05,1.85707421 1.85690763,0.000285789474 4.13930053,0.000285789474 L10.8603908,0.000285789474 Z M13.6691629,10.8606379 L13.6690903,10.8606379 L13.6690903,4.13977105 C13.6690903,2.59069895 12.4090776,1.33074158 10.8603908,1.33074158 L4.13930053,1.33074158 C2.59070447,1.33074158 1.33081895,2.59069895 1.33081895,4.13977105 L1.33081895,10.8606379 C1.33081895,12.4090153 2.59070447,13.6692505 4.13930053,13.6692505 L10.8604634,13.6692505 C12.4091321,13.6692505 13.6691629,12.4090153 13.6691629,10.8606379 Z M7.49990921,3.63490579 C9.63121026,3.63490579 11.3650713,5.36898632 11.3650713,7.50016105 C11.3650713,9.63150947 9.63121026,11.3647389 7.49990921,11.3647389 C5.36862632,11.3647389 3.63481974,9.63150947 3.63481974,7.50016105 C3.63481974,5.36898632 5.36862632,3.63490579 7.49990921,3.63490579 Z M7.49990921,10.0343005 C8.89721368,10.0343005 10.0341884,8.89788474 10.0341884,7.50016105 C10.0341884,6.10243737 8.89735895,4.96621263 7.49990921,4.96621263 C6.10247763,4.96621263 4.96564816,6.10243737 4.96564816,7.50016105 C4.96564816,8.89788474 6.10262289,10.0343005 7.49990921,10.0343005 Z M11.5271668,2.50637526 C11.7844461,2.50637526 12.0363868,2.61044684 12.2174392,2.79175579 C12.3993813,2.97322105 12.5031174,3.22527158 12.5031174,3.48225474 C12.5031174,3.73906421 12.3993813,3.99109737 12.2174392,4.17284053 C12.0355697,4.35380211 11.7844461,4.45822105 11.5271668,4.45822105 C11.2707592,4.45822105 11.0187458,4.35380211 10.8377661,4.17284053 C10.6558966,3.99109737 10.5511982,3.73906421 10.5511982,3.48225474 C10.5511982,3.22527158 10.6557513,2.97322105 10.8377661,2.79175579 C11.0188184,2.61044684 11.2707592,2.50637526 11.5271668,2.50637526 Z" id="Combined-shape-3373"></path>
        </g>
    </g>
</svg>