<?xml version="1.0" encoding="UTF-8"?>
<svg width="10px" height="12px" viewBox="0 0 10 12" version="1.1" xmlns="http://www.w3.org/2000/svg" xmlns:xlink="http://www.w3.org/1999/xlink">
    <!-- Generator: sketchtool 48.2 (47327) - http://www.bohemiancoding.com/sketch -->
    <title>149809C5-E536-4C0A-A0DC-D2664AC7C2E1</title>
    <desc>Created with sketchtool.</desc>
    <defs></defs>
    <g id="KULT-HOMEPAGE-2" stroke="none" stroke-width="1" fill="none" fill-rule="evenodd" transform="translate(-150.000000, -41.000000)">
        <g id="Pin-locate" transform="translate(150.000000, 41.000000)" fill="#1A1A1A" fill-rule="nonzero">
            <path d="M1.89097148,8.74291815 C1.89097148,8.65151814 1.89097148,8.65151814 1.89097148,8.74291815 C0.976971449,7.82891811 0.428571429,6.64071807 0.428571429,5.36111802 C0.428571429,2.80191792 2.4393715,0.882517853 4.9985716,0.882517853 C7.5577717,0.882517853 9.56857177,2.89331793 9.56857177,5.45251802 C9.56857177,6.73211807 9.02017175,7.82891811 8.10617172,8.74291815 L4.9985716,11.4849183 L1.89097148,8.74291815 Z M4.9985716,7.24250549 C6.00814816,7.24250549 6.82657167,6.42408198 6.82657167,5.41450542 C6.82657167,4.40492886 6.00814816,3.58650535 4.9985716,3.58650535 C3.98899504,3.58650535 3.17057153,4.40492886 3.17057153,5.41450542 C3.17057153,6.42408198 3.98899504,7.24250549 4.9985716,7.24250549 Z" id="Combined-Shape"></path>
        </g>
    </g>
</svg>