<?xml version="1.0" encoding="UTF-8"?>
<svg width="42px" height="42px" viewBox="0 0 42 42" version="1.1" xmlns="http://www.w3.org/2000/svg" xmlns:xlink="http://www.w3.org/1999/xlink">
    <!-- Generator: sketchtool 48.2 (47327) - http://www.bohemiancoding.com/sketch -->
    <title>CABD01CE-33D9-4A48-A2AC-D24A6E15362A</title>
    <desc>Created with sketchtool.</desc>
    <defs></defs>
    <g id="KULT-HOMEPAGE-2" stroke="none" stroke-width="1" fill="none" fill-rule="evenodd" transform="translate(-635.000000, -4106.000000)">
        <g id="Player" transform="translate(636.000000, 4107.000000)">
            <circle id="Oval" stroke="#E38E9E" fill="#FFFFFF" cx="20" cy="20" r="20"></circle>
            <path d="M24,19.5 C24,19.9741579 23.768,20.391 23.412,20.6662105 L23.4165,20.6709474 L19.5275,23.6712632 L19.523,23.6665263 C19.257,23.8721053 18.9235,24 18.5555,24 C17.6965,24 17,23.3283158 17,22.5003158 L17,21.4212632 L17,17.5792105 L17,16.5006316 C17,15.6716842 17.6965,15 18.5555,15 C18.9235,15 19.257,15.1283684 19.523,15.3334737 L19.5275,15.3287368 L23.4165,18.3285789 L23.412,18.3342632 C23.768,18.609 24,19.0263158 24,19.5 L24,19.5 Z" id="Shape" fill="#E38E9E"></path>
        </g>
    </g>
</svg>