<?xml version="1.0" encoding="UTF-8"?>
<svg width="22px" height="21px" viewBox="0 0 22 21" version="1.1" xmlns="http://www.w3.org/2000/svg" xmlns:xlink="http://www.w3.org/1999/xlink">
    <!-- Generator: sketchtool 48.2 (47327) - http://www.bohemiancoding.com/sketch -->
    <title>D1FC4145-07D6-40C1-A7F5-6CB3BB598091</title>
    <desc>Created with sketchtool.</desc>
    <defs></defs>
    <g id="KULT-HOMEPAGE-2" stroke="none" stroke-width="1" fill="none" fill-rule="evenodd" transform="translate(-450.000000, -691.000000)">
        <g id="Price" transform="translate(462.500000, 700.000000) rotate(-45.000000) translate(-462.500000, -700.000000) translate(452.000000, 694.000000)" fill-rule="nonzero">
            <polygon id="Shape" stroke="#1A1A1A" stroke-width="1.5" fill="#F5E3E7" transform="translate(10.684227, 5.879692) scale(-1, 1) translate(-10.684227, -5.879692) " points="20.8644545 0.419692359 20.8644545 11.3396923 5.11805983 11.3396923 0.504 5.87969232 5.11805983 0.419692359"></polygon>
            <path d="M12.9041756,6.35925878 C13.0126026,6.46411127 13.1210296,6.56896375 13.2294566,6.56896375 C13.3378836,6.67381623 13.5547375,6.67381623 13.6631645,6.67381623 C13.9884455,6.67381623 14.2052995,6.56896375 14.4221535,6.35925878 C14.6390075,6.14955382 14.7474345,5.93984885 14.7474345,5.62529141 C14.7474345,5.52043893 14.7474345,5.31073396 14.6390075,5.20588148 C14.4221535,4.68161907 13.7715915,4.36706162 13.2294566,4.57676659 C13.1210296,4.68161907 12.9041756,4.68161907 12.7957486,4.78647155 C12.6873216,4.89132403 12.5788946,4.99617652 12.5788946,5.101029 C12.4704676,5.62529141 12.5788946,6.04470134 12.9041756,6.35925878 Z" id="Shape" fill="#1A1A1A"></path>
        </g>
    </g>
</svg>