<?xml version="1.0" encoding="UTF-8"?>
<svg width="18px" height="16px" viewBox="0 0 18 16" version="1.1" xmlns="http://www.w3.org/2000/svg" xmlns:xlink="http://www.w3.org/1999/xlink">
    <!-- Generator: sketchtool 48.2 (47327) - http://www.bohemiancoding.com/sketch -->
    <title>66F025AD-04DE-455F-9E7E-8C8AC4186985</title>
    <desc>Created with sketchtool.</desc>
    <defs></defs>
    <g id="KULT-HOMEPAGE-2" stroke="none" stroke-width="1" fill="none" fill-rule="evenodd" transform="translate(-518.000000, -4.000000)">
        <g id="Price" transform="translate(518.000000, 4.000000)" fill-rule="nonzero">
            <path d="M12.7831395,5.66309302 C12.3745814,6.07165116 11.8387674,6.27613953 11.3031628,6.27613953 C10.7675581,6.27613953 10.2317442,6.07165116 9.82297674,5.66309302 C9.00606977,4.84597674 9.00606977,3.52025581 9.82297674,2.70293023 C10.2317442,2.29437209 10.7675581,2.08988372 11.3031628,2.08988372 C11.8387674,2.08988372 12.3745814,2.29437209 12.7831395,2.70293023 C12.7877442,2.70753488 12.7917209,2.71297674 12.7963256,2.7175814 L15.2016279,2.7175814 L15.2991628,0.186697674 L7.60311628,0.482860465 L0.795348837,7.29083721 C-0.018627907,8.10502326 -0.018627907,9.43702326 0.795348837,10.251 L5.23527907,14.6909302 C6.04904651,15.5051163 7.38125581,15.504907 8.19544186,14.6909302 L15.0032093,7.88295349 L15.0892326,5.64802326 L12.7969535,5.64802326 C12.7919302,5.65283721 12.7881628,5.65827907 12.7831395,5.66309302 Z" id="Shape" fill="#FFEEF2"></path>
            <path d="M12.2046279,3.65965116 C12.1600465,3.58283721 12.1089767,3.50874419 12.0432558,3.44302326 C11.8458837,3.24565116 11.583,3.13660465 11.3033721,3.13660465 C11.0237442,3.13660465 10.7606512,3.24565116 10.5630698,3.44323256 C10.1551395,3.85116279 10.1551395,4.51506977 10.5634884,4.9232093 C10.7606512,5.1205814 11.0237442,5.22962791 11.3033721,5.22962791 C11.583,5.22962791 11.8458837,5.1205814 12.0432558,4.923 C12.1089767,4.85727907 12.1604651,4.78318605 12.2048372,4.70616279 L17.8149767,4.70637209 L17.815186,3.65986047 L12.2046279,3.65965116 Z" id="Shape" fill="#FFEEF2"></path>
            <path d="M7.66134991,6.18098209 L8.8626274,6.18098209 L9.32269112,5.4894812 L4.81275505,5.4894812 L4.35269133,6.18098209 L5.13553744,6.18098209 C5.92854278,6.18098209 6.66041709,6.24223023 6.9531024,6.90539068 L4.81275505,6.90539068 L4.35269133,7.59692085 L7.0394412,7.59692085 C7.03938265,8.09841196 6.62639685,8.86067612 5.26268882,8.86067612 L4.60286598,8.85991491 L4.60359792,9.50600669 L7.24613904,12.8088098 L8.42294069,12.8088098 L5.68785398,9.39188372 C6.81374238,9.33116257 7.86968728,8.70202236 8.02190004,7.59692085 L8.8626274,7.59692085 L9.32269112,6.90539068 L8.00989634,6.90539068 C7.9569044,6.63893784 7.841786,6.38120964 7.66134991,6.18098209 Z" id="Shape" stroke="#F31D28" stroke-width="0.3" fill="#F31D28" transform="translate(6.837691, 9.149146) rotate(-45.000000) translate(-6.837691, -9.149146) "></path>
        </g>
    </g>
</svg>