<?xml version="1.0" encoding="UTF-8"?>
<svg width="20px" height="20px" viewBox="0 0 20 20" version="1.1" xmlns="http://www.w3.org/2000/svg" xmlns:xlink="http://www.w3.org/1999/xlink">
    <!-- Generator: sketchtool 48.2 (47327) - http://www.bohemiancoding.com/sketch -->
    <title>3F34180A-47A9-4064-80B2-CF6717C2F594</title>
    <desc>Created with sketchtool.</desc>
    <defs></defs>
    <g id="KULT-PRODUCT-COMPARE" stroke="none" stroke-width="1" fill="none" fill-rule="evenodd" transform="translate(-149.000000, -614.000000)">
        <g id="Price" transform="translate(160.500000, 622.500000) rotate(-45.000000) translate(-160.500000, -622.500000) translate(151.000000, 617.000000)">
            <polygon id="Combined-Shape" stroke="#1A1A1A" stroke-width="1.5" fill-rule="nonzero" points="18.8773636 0.379721658 18.8773636 10.2597216 4.63062556 10.2597216 0.456 5.31972163 4.63062556 0.379721658"></polygon>
            <path d="M10.0293519,6.38384998 C10.2114378,6.55993304 10.3935237,6.7360161 10.5756096,6.7360161 C10.7576955,6.91209916 11.1218673,6.91209916 11.3039532,6.91209916 C11.8502108,6.91209916 12.2143826,6.7360161 12.5785544,6.38384998 C12.9427262,6.03168386 13.1248121,5.67951774 13.1248121,5.15126856 C13.1248121,4.9751855 13.1248121,4.62301938 12.9427262,4.44693632 C12.5785544,3.56652102 11.4860391,3.03827184 10.5756096,3.39043796 C10.3935237,3.56652102 10.0293519,3.56652102 9.84726603,3.74260408 C9.66518014,3.91868714 9.48309425,4.0947702 9.48309425,4.27085326 C9.30100835,5.15126856 9.48309425,5.8556008 10.0293519,6.38384998 Z" id="Shape" fill="#000000"></path>
        </g>
    </g>
</svg>