<?xml version="1.0" encoding="UTF-8"?>
<svg width="21px" height="24px" viewBox="0 0 21 24" version="1.1" xmlns="http://www.w3.org/2000/svg" xmlns:xlink="http://www.w3.org/1999/xlink">
    <!-- Generator: sketchtool 48.2 (47327) - http://www.bohemiancoding.com/sketch -->
    <title>E053CB16-7192-446C-B7B2-D4BCF8E7EE28</title>
    <desc>Created with sketchtool.</desc>
    <defs></defs>
    <g id="KULT-HOMEPAGE-2" stroke="none" stroke-width="1" fill="none" fill-rule="evenodd" transform="translate(-1010.000000, -689.000000)">
        <g id="Protect" transform="translate(1011.000000, 689.000000)">
            <path d="M9.28891842,1.00611213 C9.27414405,1.01963483 9.25997476,1.03380412 9.24645205,1.0485785 C7.02398653,1.88486021 3.57816343,3.25682968 0.710711903,3.25682968 C0.335470982,3.25686716 0.031287481,3.56105066 0.03125,3.93629158 C0.03125,14.8252121 4.6304189,19.8650529 9.16151932,22.6214939 C9.37174931,22.7428541 9.63075122,22.7428541 9.84098122,22.6214939 C14.3230924,19.8946774 18.9712505,14.796403 18.9712505,3.93629158 C18.9712131,3.56105066 18.6670296,3.25686716 18.2917886,3.25682968 C14.4788523,3.25682968 11.7421972,1.82357274 9.75604848,1.0485785 C9.61031436,0.979427634 9.44473328,0.964374809 9.28891842,1.00611213 Z" id="Shape" stroke="#000000" fill="#F5E3E7" fill-rule="nonzero"></path>
            <polygon id="Path" fill="#1A1A1A" points="11.6245687 8.31032758 8.65192289 11.240507 7.37793182 10.0089823 6.44367171 10.9857088 8.14232646 12.6843636 8.65192289 13.1514936 9.11905295 12.6843636 12.5588288 9.28705406"></polygon>
        </g>
    </g>
</svg>