<?xml version="1.0" encoding="UTF-8"?>
<svg width="60px" height="9px" viewBox="0 0 60 9" version="1.1" xmlns="http://www.w3.org/2000/svg" xmlns:xlink="http://www.w3.org/1999/xlink">
    <!-- Generator: sketchtool 48.2 (47327) - http://www.bohemiancoding.com/sketch -->
    <title>3B70A037-0C37-4E54-BDB1-620F1F19E4AF</title>
    <desc>Created with sketchtool.</desc>
    <defs></defs>
    <g id="KULT-HOMEPAGE-2" stroke="none" stroke-width="1" fill="none" fill-rule="evenodd" transform="translate(-223.000000, -1607.000000)">
        <g id="Group-9" transform="translate(223.000000, 1245.000000)">
            <g id="Rate-4" transform="translate(0.000000, 362.000000)">
                <polygon id="Star-2-Copy-5" fill="#000000" points="55.2631579 7.10526316 52.478912 8.56902787 53.0106556 5.46872446 50.7581533 3.2730774 53.8710349 2.82074922 55.2631579 0 56.6552809 2.82074922 59.7681624 3.2730774 57.5156602 5.46872446 58.0474038 8.56902787"></polygon>
                <polygon id="Star-2-Copy-4" fill="#ECA8B5" points="42.6315789 7.10526316 39.847333 8.56902787 40.3790767 5.46872446 38.1265744 3.2730774 41.239456 2.82074922 42.6315789 0 44.0237019 2.82074922 47.1365835 3.2730774 44.8840812 5.46872446 45.4158249 8.56902787"></polygon>
                <polygon id="Star-2-Copy-3" fill="#ECA8B5" points="30 7.10526316 27.2157541 8.56902787 27.7474977 5.46872446 25.4949954 3.2730774 28.607877 2.82074922 30 0 31.392123 2.82074922 34.5050046 3.2730774 32.2525023 5.46872446 32.7842459 8.56902787"></polygon>
                <polygon id="Star-2-Copy" fill="#ECA8B5" points="17.3684211 7.10526316 14.5841751 8.56902787 15.1159188 5.46872446 12.8634165 3.2730774 15.9762981 2.82074922 17.3684211 0 18.760544 2.82074922 21.8734256 3.2730774 19.6209233 5.46872446 20.152667 8.56902787"></polygon>
                <polygon id="Star-2" fill="#ECA8B5" points="4.73684211 7.10526316 1.95259617 8.56902787 2.48433983 5.46872446 0.231837554 3.2730774 3.34471914 2.82074922 4.73684211 0 6.12896507 2.82074922 9.24184666 3.2730774 6.98934438 5.46872446 7.52108804 8.56902787"></polygon>
            </g>
        </g>
    </g>
</svg>