<?xml version="1.0" encoding="UTF-8"?>
<svg width="6px" height="9px" viewBox="0 0 6 9" version="1.1" xmlns="http://www.w3.org/2000/svg" xmlns:xlink="http://www.w3.org/1999/xlink">
    <!-- Generator: sketchtool 48.2 (47327) - http://www.bohemiancoding.com/sketch -->
    <title>DE1E91D3-053D-4626-83E2-BB87856D1122</title>
    <desc>Created with sketchtool.</desc>
    <defs></defs>
    <g id="KULT-HOMEPAGE-2" stroke="none" stroke-width="1" fill="none" fill-rule="evenodd" transform="translate(-1206.000000, -85.000000)">
        <g id="Rupee" transform="translate(1206.000000, 85.000000)" fill="#FFFFFF" fill-rule="nonzero">
            <path d="M3.98153801,0.848321023 L5.41968713,0.848321023 L5.97046765,0.0204678363 L0.571248351,0.0204678363 L0.0204678363,0.848321023 L0.957677978,0.848321023 C1.90705058,0.848321023 2.78323814,0.921646264 3.13363605,1.71557075 L0.571248351,1.71557075 L0.0204678363,2.54345899 L3.2369994,2.54345899 C3.2369293,2.54531666 3.2369293,2.54703412 3.2369293,2.54889179 C3.2369293,3.14383569 2.74250968,4.05640546 1.10990146,4.05640546 L0.319972704,4.05549416 L0.320848962,4.82898432 L3.48445457,8.78304443 L4.89330163,8.78304443 L1.61890201,4.69235822 C2.96679659,4.61966389 4.23095599,3.86646785 4.41318253,2.54345899 L5.41968713,2.54345899 L5.97046765,1.71557075 L4.39881191,1.71557075 C4.33537085,1.39657791 4.19755305,1.08803007 3.98153801,0.848321023 Z" id="Shape"></path>
        </g>
    </g>
</svg>