<?xml version="1.0" encoding="UTF-8"?>
<svg width="15px" height="15px" viewBox="0 0 15 15" version="1.1" xmlns="http://www.w3.org/2000/svg" xmlns:xlink="http://www.w3.org/1999/xlink">
    <!-- Generator: sketchtool 48.2 (47327) - http://www.bohemiancoding.com/sketch -->
    <title>D5DF7572-2EF5-49AC-9CB9-A95435254B73</title>
    <desc>Created with sketchtool.</desc>
    <defs></defs>
    <g id="KULT-HOMEPAGE-2" stroke="none" stroke-width="1" fill="none" fill-rule="evenodd" transform="translate(-920.000000, -3712.000000)">
        <g id="Send-now" transform="translate(920.000000, 3712.000000)" fill="#1A1A1A">
            <path d="M1.13294118,6.51 L4.32,7.64647059 C4.55558824,7.73117647 4.81764706,7.70382353 5.02941176,7.57411765 L12.1076471,3.23029412 L6.26911765,8.58529412 C6.11205882,8.72911765 6.02205882,8.92941176 6.02205882,9.13852941 L6.00176471,13.7779412 C6,14.1952941 6.59205882,14.3170588 6.76764706,13.9358824 L8.32676471,10.5573529 C8.42294118,10.3508824 8.68235294,10.2670588 8.88794118,10.3773529 L13.0217647,12.5920588 C13.2811765,12.7323529 13.6032353,12.5602941 13.6164706,12.2744118 L14.1529412,1.28382353 C14.1661765,1.00323529 13.8723529,0.803823529 13.6014706,0.909705882 L1.12147059,5.79352941 C0.782647059,5.92588235 0.790588235,6.38911765 1.13294118,6.51" id="Shape"></path>
        </g>
    </g>
</svg>