<?xml version="1.0" encoding="UTF-8"?>
<svg width="22px" height="21px" viewBox="0 0 22 21" version="1.1" xmlns="http://www.w3.org/2000/svg" xmlns:xlink="http://www.w3.org/1999/xlink">
    <!-- Generator: sketchtool 48.2 (47327) - http://www.bohemiancoding.com/sketch -->
    <title>4386CCD4-AC87-47F8-8515-BC80B5879D35</title>
    <desc>Created with sketchtool.</desc>
    <defs></defs>
    <g id="KULT-HOMEPAGE-2" stroke="none" stroke-width="1" fill="none" fill-rule="evenodd" transform="translate(-719.000000, -691.000000)" stroke-linecap="round" stroke-linejoin="round">
        <g id="Thumbs-up" transform="translate(720.000000, 691.000000)" stroke="#1A1A1A" stroke-width="1.3">
            <path d="M18.8147217,11.4515739 L17.1277826,11.4515739" id="Shape"></path>
            <path d="M17.8905391,14.2117043 L16.6788391,14.2117043" id="Shape"></path>
            <path d="M5.93478261,17.8618696 C10.8393783,19.5361174 16.6788391,19.4330348 16.6788391,19.4330348 C18.9193565,19.4330348 18.443113,16.9717435 16.8233739,16.9717435 L16.1771217,16.9717435" id="Shape"></path>
            <path d="M5.93478261,9.52642174 C5.93478261,9.52642174 10.5589826,5.89132174 10.2272739,2.08913478 C9.97563913,-0.79526087 15.3302739,1.41065217 12.3497348,8.69162609 L18.9574304,8.69162609 C20.8005913,8.69162609 20.795113,11.4516652 18.9574304,11.4516652 L18.8147217,11.4516652 C20.6725826,11.4516652 20.6237348,14.2117043 18.8147217,14.2117043 L17.8905391,14.2117043 C19.7331522,14.2117043 19.7282217,16.9717435 17.8905391,16.9717435 L16.8235565,16.9716522 L17.8905391,18.1640935 L15.1477906,19.0741161 L7.21278661,18.1640935 L5.93478261,18.1640935 L5.93478261,9.52642174 Z" id="Shape" fill="#F5E3E7"></path>
            <rect id="Rectangle-path" fill="#F5E3E7" x="0.456521739" y="8.67391304" width="5.47826087" height="10.9565217"></rect>
        </g>
    </g>
</svg>