<?xml version="1.0" encoding="UTF-8"?>
<svg width="17px" height="12px" viewBox="0 0 17 12" version="1.1" xmlns="http://www.w3.org/2000/svg" xmlns:xlink="http://www.w3.org/1999/xlink">
    <!-- Generator: sketchtool 48.2 (47327) - http://www.bohemiancoding.com/sketch -->
    <title>77DB2810-DD39-40B4-B11C-C7C40EC1B9D2</title>
    <desc>Created with sketchtool.</desc>
    <defs></defs>
    <g id="KULT-BLOG" stroke="none" stroke-width="1" fill="none" fill-rule="evenodd" transform="translate(-963.000000, -998.000000)">
        <g id="view" transform="translate(964.000000, 999.280312)" stroke="#959595" stroke-width="1.3">
            <path d="M14.7170744,4.47512217 C14.5840142,4.29189371 11.4679305,0 7.42661449,0 C3.38529844,0 0.269214775,4.29189371 0.136154599,4.47512217 L0,4.65835062 L0.136154599,4.84157908 C0.269214775,5.02480754 3.38529844,9.31670125 7.42661449,9.31670125 C11.4679305,9.31670125 14.5840142,5.02480754 14.7170744,4.84157908 L14.853229,4.65835062 L14.7170744,4.47512217 Z" id="Combined-Shape" fill-rule="nonzero"></path>
            <path d="M7.42607632,2.96337064 C6.49518584,2.96337064 5.74055001,3.72072425 5.74055001,4.65496727 C5.74055001,5.5892103 6.49518584,6.3465639 7.42607632,6.3465639 C8.35696679,6.3465639 9.11160263,5.5892103 9.11160263,4.65496727 C9.11160263,4.20632795 8.9340209,3.77606373 8.6179234,3.45882782 C8.3018259,3.14159192 7.87310569,2.96337064 7.42607632,2.96337064 Z" id="Shape"></path>
        </g>
    </g>
</svg>