<?xml version="1.0" encoding="UTF-8"?>
<svg width="10px" height="20px" viewBox="0 0 10 20" version="1.1" xmlns="http://www.w3.org/2000/svg" xmlns:xlink="http://www.w3.org/1999/xlink">
    <!-- Generator: sketchtool 48.2 (47327) - http://www.bohemiancoding.com/sketch -->
    <title>8892BBD8-5997-4DEF-8428-3189FD69ABEA</title>
    <desc>Created with sketchtool.</desc>
    <defs></defs>
    <g id="KULT-UPLOAD-CASHBACK" stroke="none" stroke-width="1" fill="none" fill-rule="evenodd" transform="translate(-339.000000, -744.000000)">
        <g id="Group-33" fill="#ECA8B5">
            <g id="Group-31" transform="translate(285.000000, 341.000000)">
                <g id="Attach" transform="translate(54.000000, 403.000000)">
                    <path d="M9.246,3.926 C8.831,3.926 8.495,4.267 8.495,4.686 L8.495,14.944 C8.495,16.894 6.927,18.481 4.999,18.481 C3.071,18.481 1.502,16.894 1.502,14.944 L1.502,5.357 L1.502,5.071 L1.502,3.919 C1.502,2.601 2.562,1.528 3.865,1.528 C5.168,1.528 6.228,2.601 6.228,3.919 L6.228,5.077 C6.228,5.167 6.246,5.253 6.274,5.333 C6.255,5.399 6.242,5.468 6.242,5.541 L6.242,13.546 C6.242,14.152 5.684,14.645 4.998,14.645 C4.313,14.645 3.755,14.152 3.755,13.546 L3.755,5.005 C3.755,4.586 3.419,4.245 3.003,4.245 C2.588,4.245 2.252,4.586 2.252,5.005 L2.252,13.546 C2.252,14.99 3.484,16.165 4.998,16.165 C6.513,16.165 7.745,14.99 7.745,13.546 L7.745,5.541 C7.745,5.451 7.727,5.365 7.698,5.285 C7.717,5.219 7.73,5.15 7.73,5.077 L7.73,3.919 C7.73,1.762 5.996,0.007 3.865,0.007 C1.733,0.007 0,1.762 0,3.919 L0,5.071 L0,5.357 L0,14.944 C0,17.733 2.242,20.002 4.999,20.002 C7.755,20.002 9.998,17.733 9.998,14.944 L9.998,4.686 C9.998,4.267 9.661,3.926 9.246,3.926 L9.246,3.926 Z" id="Shape"></path>
                </g>
            </g>
        </g>
    </g>
</svg>