<?xml version="1.0" encoding="UTF-8"?>
<svg width="24px" height="24px" viewBox="0 0 24 24" version="1.1" xmlns="http://www.w3.org/2000/svg" xmlns:xlink="http://www.w3.org/1999/xlink">
    <!-- Generator: sketchtool 48.2 (47327) - http://www.bohemiancoding.com/sketch -->
    <title>46D1EFFE-ED86-442D-B469-146B65956466</title>
    <desc>Created with sketchtool.</desc>
    <defs></defs>
    <g id="KULT-LOGIN" stroke="none" stroke-width="1" fill="none" fill-rule="evenodd" transform="translate(-1034.000000, -260.000000)">
        <g id="Group-26">
            <g id="Group-24" transform="translate(420.000000, 260.000000)">
                <g id="Close" transform="translate(614.000000, 0.000000)">
                    <path d="M12,0.5 C5.6576,0.5 0.5,5.6584 0.5,12 C0.5,18.3424 5.6576,23.5 12,23.5 C18.3424,23.5 23.5,18.3424 23.5,12 C23.5,5.6584 18.3424,0.5 12,0.5 Z" id="Shape" fill-opacity="0.39526721" fill="#000000" fill-rule="nonzero"></path>
                    <path d="M16.2424,15.536 C16.4376,15.7312 16.4376,16.048 16.2424,16.2424 C16.1456,16.3408 16.0176,16.3904 15.8896,16.3904 C15.7624,16.3904 15.6344,16.3408 15.5368,16.2424 L12.0016,12.708 L8.4664,16.2424 C8.3688,16.3408 8.2408,16.3904 8.1128,16.3904 C7.9856,16.3904 7.8576,16.3408 7.76,16.2424 C7.5648,16.0472 7.5648,15.7312 7.76,15.536 L11.2944,12 L7.7592,8.4656 C7.564,8.2704 7.564,7.9528 7.7592,7.7576 C7.9544,7.5624 8.2712,7.5624 8.4664,7.7576 L12.0016,11.2936 L15.5368,7.7576 C15.732,7.5624 16.0488,7.5624 16.244,7.7576 C16.4392,7.9528 16.4392,8.2704 16.244,8.4656 L12.7088,12 L16.2424,15.536 Z" id="Path" fill="#959595"></path>
                </g>
            </g>
        </g>
    </g>
</svg>