<?xml version="1.0" encoding="UTF-8"?>
<svg width="26px" height="25px" viewBox="0 0 26 25" version="1.1" xmlns="http://www.w3.org/2000/svg" xmlns:xlink="http://www.w3.org/1999/xlink">
    <!-- Generator: sketchtool 48.2 (47327) - http://www.bohemiancoding.com/sketch -->
    <title>C0BF0F56-70B4-4D66-8D00-0C2B71D34F88</title>
    <desc>Created with sketchtool.</desc>
    <defs></defs>
    <g id="KULT-MY-ACCOUNT" stroke="none" stroke-width="1" fill="none" fill-rule="evenodd" transform="translate(-707.000000, -562.000000)">
        <g id="Coins" transform="translate(708.000000, 562.000000)">
            <polyline id="Shape" stroke="#000000" fill="#F5E3E7" stroke-linecap="round" stroke-linejoin="round" points="7.04061818 21.3667636 0.383127273 14.8144364 15.0417818 0.155018182 23.1197455 8.2332 19.0539273 12.3243273"></polyline>
            <polyline id="Shape" stroke="#000000" fill="#F5E3E7" stroke-linecap="round" stroke-linejoin="round" points="22.2037091 9.14890909 23.8749818 11.4590182 21.6628364 13.0596"></polyline>
            <polygon id="Path-2" fill="#F5E3E7" points="19.8897326 12.0913798 22.1268633 9.73744498 21.7624467 12.4788757 21.5367788 12.6664371"></polygon>
            <path d="M23.4008727,14.9261455 L23.4008727,21.3667636 C23.4008727,22.7909455 19.7386909,23.9454545 15.2202545,23.9454545 C10.7032364,23.9454545 7.04061818,22.7909455 7.04061818,21.3667636 L7.04061818,14.9261455" id="Shape" stroke="#000000" fill="#FFFFFF" stroke-linecap="round" stroke-linejoin="round"></path>
            <path d="M7.04061818,18.2186182 C7.04061818,19.6428 10.7032364,20.7973091 15.2202545,20.7973091 C19.7386909,20.7973091 23.4008727,19.6428 23.4008727,18.2186182" id="Shape" stroke="#000000" stroke-linecap="round" stroke-linejoin="round"></path>
            <ellipse id="Oval" stroke="#000000" fill="#FFFFFF" stroke-linecap="round" stroke-linejoin="round" cx="15.2206909" cy="14.7543273" rx="8.18007273" ry="2.75061818"></ellipse>
        </g>
    </g>
</svg>