<?xml version="1.0" encoding="UTF-8"?>
<svg width="51px" height="22px" viewBox="0 0 51 22" version="1.1" xmlns="http://www.w3.org/2000/svg" xmlns:xlink="http://www.w3.org/1999/xlink">
    <!-- Generator: sketchtool 48.2 (47327) - http://www.bohemiancoding.com/sketch -->
    <title>3E8FC64E-682B-4F7C-9F40-40C244FF4337</title>
    <desc>Created with sketchtool.</desc>
    <defs></defs>
    <g id="KULT-PRODUCT-COMPARE" stroke="none" stroke-width="1" fill="none" fill-rule="evenodd" transform="translate(-167.000000, -778.000000)">
        <g id="dove-1" transform="translate(167.000000, 778.000000)" fill-rule="nonzero">
            <path d="M5.42809479,5.71950136 C4.2243563,6.33714769 3.32824947,6.98026397 2.6622903,7.67489902 C1.58673167,8.83291353 0.972044441,10.1451949 0.972044441,11.3289688 C0.972044441,11.5347544 0.997680413,11.7665889 1.02331638,11.9466151 C1.2796761,13.1819078 1.68927556,13.7992647 2.22705487,14.2884035 C3.3026135,15.2918617 4.55733589,15.3688505 4.60860783,15.3688505 C4.76242366,15.3688505 4.91595145,15.2661024 4.91595145,15.0857867 C4.91595145,14.905471 4.8136956,14.8281929 4.68551575,14.8024335 C4.6342438,14.7766741 3.89166476,14.6481666 3.20035766,13.6447084 C2.89301405,13.2586071 2.6113064,12.7182389 2.48312654,11.534465 C2.22705487,9.60453729 3.66122906,7.36578642 5.83769425,6.20806134 C7.42539622,5.33311061 9.57651348,5.05004683 11.5994509,5.35887 C13.6480243,5.71921193 14.672599,6.20806134 15.9273214,7.46882395 C17.1307718,8.70411661 17.9246228,10.8140706 17.9246228,12.820987 C17.9246228,12.9237351 17.9246228,13.0270621 17.8992749,13.1043402 C17.8736389,14.1847871 17.6172792,16.2180418 16.2856489,17.9676538 C14.7235829,20.0776078 12.1115942,21.1328742 8.57757472,21.1328742 C7.09212859,21.1328742 5.68359037,21.1586336 4.76184757,21.184393 C7.50201609,19.7690741 9.24324585,15.7291924 10.5751642,12.6927689 C10.9334917,11.8178182 11.2664713,11.0461944 11.5738149,10.4797775 C13.0079891,7.75217717 14.646675,7.64913963 14.6979469,7.64913963 C14.8258387,7.64913963 14.9283826,7.52034272 14.9283826,7.41759462 C14.9283826,7.26332775 14.8004908,7.16029022 14.6979469,7.16029022 C14.5441311,7.16029022 12.5211937,6.95450459 10.3700764,8.9871804 C9.57622543,9.73333421 8.88463029,10.8655893 8.29557903,12.3066676 C7.27129235,14.8281929 6.42616942,16.7838799 5.73457427,18.1219207 C5.19679496,19.2026571 4.53112383,20.3349122 3.71163687,20.7464835 C2.78960602,21.2353329 1.73968337,21.1841035 1.73968337,21.1841035 C1.71404739,21.1841035 1.56023157,21.1841035 1.45797572,21.2868516 C1.40670378,21.3383704 1.35571988,21.4153591 1.35571988,21.544156 C1.35571988,21.6984229 1.40699182,21.8017499 1.45797572,21.8529792 C1.56023157,21.9302574 1.66277545,21.9302574 1.71404739,21.9302574 C1.73968337,21.9302574 3.71163687,21.9817761 8.73081446,21.9817761 C12.981777,21.9817761 16.131545,20.9783179 18.0778625,19.0226308 C19.8960002,17.24697 20.2802517,15.0082191 20.2802517,13.4643927 C20.2802517,11.2259313 19.3838569,8.96142101 17.8474268,7.41730519 C16.0805611,5.64193378 14.4412992,4.92124992 11.6501467,4.61271618 C9.55087751,4.40693055 7.22059649,4.81879125 5.42809479,5.71950136 Z M26.8877074,10.5312962 L26.9136314,10.5312962 C24.1734629,10.5312962 21.3054026,13.0785808 20.4859156,16.1922824 C20.0506802,17.8649057 20.2811159,19.4860103 21.1262388,20.5667466 C21.8175459,21.4671673 22.8421206,21.9563062 24.0199351,21.9563062 C26.7341796,21.9563062 29.628164,19.4087321 30.4473629,16.2950305 C30.8828863,14.5969373 30.6527387,13.0015921 29.8076158,11.8950964 C29.1160206,11.0201456 28.0917339,10.5312962 26.8877074,10.5312962 Z M23.0722683,21.0555961 C22.7392887,20.9010398 22.508853,20.5922166 22.3809612,20.1548859 C21.9710737,18.9198827 22.3296893,16.9384362 23.2514321,15.1115461 C24.5317904,12.5382126 26.7338916,10.81436 27.9119941,11.4317169 C28.2190497,11.5862732 28.4244255,11.869337 28.5779533,12.3066676 C28.9622048,13.5416709 28.6033012,15.5228279 27.6818464,17.3757669 C26.3505042,19.9748597 24.2500828,21.6732424 23.0722683,21.0555961 Z M46.7089222,10.6598037 C45.0702363,10.7113225 41.8948324,11.8175288 40.3071304,15.8319405 C39.4614314,17.9676538 39.8456829,19.3572134 40.3324783,20.1806453 C41.0237854,21.312611 42.1759639,21.8272198 43.0216629,21.9302574 C46.2221268,22.2903099 48.7318596,18.2761876 48.8090555,18.1476801 C48.8856754,18.0191726 48.8603275,17.7876276 48.6555278,17.6591201 C48.424804,17.5303232 48.2200043,17.6330713 48.1430964,17.7618682 C48.1430964,17.7876276 45.9663431,21.2098629 43.4315504,21.1583442 C42.4328997,21.1325848 41.9463923,20.4891791 41.8691964,19.099909 L41.8691964,18.9198827 C41.8691964,18.0961613 42.1252681,17.2472594 42.2534479,16.9381468 C43.0985708,16.9896656 47.4264413,17.1439324 48.9115994,14.0562797 C49.295851,13.2328477 49.295851,12.4097052 48.8603275,11.7405401 C48.424804,11.045905 47.605029,10.6598037 46.7089222,10.6598037 Z M46.1455069,11.4832357 C46.6320143,11.3032094 47.0416137,11.3547282 47.3999412,11.5862732 C47.604741,11.7147807 47.7588448,11.9208557 47.7841928,12.1778707 C47.8613887,12.5897314 47.7329208,13.3358852 46.7342701,14.6224072 C45.4026398,16.2947411 43.2512345,16.2435118 42.5599274,16.191993 C43.6360621,13.2588965 45.1212202,11.8175288 46.1455069,11.4832357 Z" id="Shape" fill="#28539C"></path>
            <path d="M37.7202016,10.8913487 C37.6430057,11.0201456 37.5920218,11.1747019 37.5920218,11.3032094 C37.5920218,11.4577657 37.6432937,11.5862732 37.7202016,11.7147807 C37.8483815,11.869337 38.0531812,11.8950964 38.206709,11.8950964 C38.2320569,11.8950964 38.3089648,11.8950964 38.3602368,11.9208557 C38.949288,12.1266414 39.1540878,12.9758327 39.1800118,13.7735053 C39.2053597,14.210836 39.00056,15.7291924 38.7698362,16.2435118 C37.386934,19.2799352 35.2361048,21.3641298 33.6740388,21.1328742 C33.3669832,21.0813554 33.1875314,20.9525585 33.0849875,20.7467729 C32.72666,20.0521378 33.1872433,18.4567927 34.2884379,16.3468387 C34.5960696,15.7807112 36.0555917,12.898844 35.1851209,11.3804876 C34.9031252,10.8401194 34.3653459,10.5570556 33.5968428,10.5058263 C31.3947416,10.3773188 30.5499068,11.9723745 30.4986348,12.0496527 C30.4467868,12.1781601 30.4467868,12.3581864 30.6008907,12.4872727 C30.8056904,12.6415396 30.9845661,12.5387915 31.0617621,12.4615134 C31.0876861,12.435754 32.1885926,11.0977132 33.2385153,11.3292582 C33.3407711,11.3550176 33.3920431,11.380777 33.4179671,11.4835251 C33.7762946,12.3327164 32.4187403,15.1375949 31.9837929,16.0380156 C31.5736174,16.9126769 30.4986348,19.4860103 31.4200896,20.9013292 C31.8302651,21.5704943 32.5728442,21.9050768 33.6224788,21.9308362 C37.41257,22.0335843 39.8453949,16.1152937 40.1783744,14.520238 C40.1783744,14.4429598 40.6902297,12.2814871 39.9223028,11.1749914 C39.6662311,10.7888901 39.3073275,10.5831044 38.8720921,10.5058263 C38.1298011,10.4027887 37.8227455,10.7116119 37.7202016,10.8913487 Z M49.6279664,19.074439 L49.7307983,19.074439 C49.8843261,19.074439 50.0378539,19.074439 50.0378539,19.2544653 C50.0378539,19.3572134 49.9355981,19.4602509 49.8071302,19.4602509 L49.6276784,19.4602509 L49.6276784,19.074439 L49.6279664,19.074439 Z M49.5257106,19.9748597 L49.6279664,19.9748597 L49.6279664,19.5372396 L49.7820703,19.5372396 L50.0891259,19.9748597 L50.2167296,19.9748597 L49.9096741,19.5372396 C49.98687,19.5114802 50.1403978,19.4344915 50.1403978,19.2541758 C50.1403978,19.1256683 50.0891259,19.0741496 50.0122179,19.0226308 C49.960946,18.9708226 49.8586902,18.9708226 49.7307983,18.9708226 L49.5254225,18.9708226 L49.5254225,19.9748597 L49.5257106,19.9748597 Z M49.8074182,18.6625783 C49.3718947,18.6625783 49.0389152,19.0229202 49.0389152,19.4860103 C49.0389152,19.9493897 49.3718947,20.3097317 49.8074182,20.3097317 C50.2170177,20.3097317 50.5499973,19.9493897 50.5499973,19.4860103 C50.5502853,19.0229202 50.2170177,18.6625783 49.8074182,18.6625783 Z M49.8074182,18.739567 C50.1657457,18.739567 50.4730893,19.0741496 50.4730893,19.4857208 C50.4730893,19.8975815 50.1660338,20.2318747 49.8074182,20.2318747 C49.4231667,20.2318747 49.1417471,19.8975815 49.1417471,19.4857208 C49.1420351,19.074439 49.4231667,18.739567 49.8074182,18.739567 Z" id="Shape" fill="#28539C"></path>
            <path d="M23.8917553,6.13107262 C23.8917553,6.13107262 25.7611649,6.85146705 27.963266,8.0607109 C31.5226335,10.0679168 34.4678898,10.0421574 36.1324996,7.67489902 C37.2334062,6.13107262 38.1044531,4.3296524 39.5896112,3.73776545 C39.5896112,3.73776545 39.3588875,3.5577392 39.2312837,3.4031829 C38.9236521,3.09464917 38.4887047,2.76006662 38.0272572,2.73401781 C36.593083,2.60551032 35.4409045,4.50967865 35.0315931,4.27813363 C34.4678898,3.96931047 36.2091195,2.47671341 34.3397099,1.06168393 C32.1888807,-0.585179995 27.6821345,3.58320915 24.9929499,2.99132221 C24.9929499,2.99132221 26.2223243,4.48391927 29.1413685,4.71546428 C30.6011787,4.81850181 30.5755427,5.15308436 30.5755427,5.28159185 C30.6014667,6.74871895 23.8917553,6.13107262 23.8917553,6.13107262 Z" id="Shape" fill="#C8AE65"></path>
        </g>
    </g>
</svg>