<?xml version="1.0" encoding="UTF-8"?>
<svg width="43px" height="26px" viewBox="0 0 43 26" version="1.1" xmlns="http://www.w3.org/2000/svg" xmlns:xlink="http://www.w3.org/1999/xlink">
    <!-- Generator: sketchtool 48.2 (47327) - http://www.bohemiancoding.com/sketch -->
    <title>93B871C3-42AE-48C7-B34B-E49CA2EBAAF9</title>
    <desc>Created with sketchtool.</desc>
    <defs></defs>
    <g id="KULT-PRODUCT-COMPARE" stroke="none" stroke-width="1" fill="none" fill-rule="evenodd" transform="translate(-166.000000, -857.000000)">
        <g id="estee-lauder" transform="translate(166.000000, 857.000000)" fill="#1A376F" fill-rule="nonzero">
            <path d="M14.2430454,11.9159993 C14.4734595,11.9159993 14.6121118,11.9159993 14.7965328,11.8695593 C14.7503153,12.4257112 14.7503153,13.028303 14.7043223,14.3725809 L14.7043223,16.0870255 C14.7043223,17.1531148 14.7965328,17.8019211 14.8887433,18.0798843 C15.2578096,18.9142248 15.995718,19.7023508 17.2871138,19.6556855 C18.440306,19.609471 19.2244318,19.2386279 19.6857087,18.3118584 C20.0085576,17.6628267 20.0547751,17.1995547 20.1007681,15.5308737 L20.1007681,14.4647844 C20.0547751,13.5380149 20.0085576,12.9351977 19.9625646,11.8693339 C19.9625646,11.8693339 20.2391961,11.9157738 20.377624,11.9157738 C20.5160519,11.9157738 20.6542555,11.9157738 20.7926835,11.8693339 C20.7466904,12.240177 20.700473,14.2332611 20.700473,14.2332611 L20.700473,15.4846592 C20.700473,17.1528894 20.6082625,17.5237324 20.4238414,18.0798843 C20.3316309,18.4973927 20.0547751,18.8680103 19.7319261,19.1926389 C19.1784387,19.8412197 18.255885,20.1656229 17.1489102,20.1656229 C16.134146,20.1656229 15.1655991,19.8878851 14.6118874,19.3779477 C14.0121826,18.7751305 13.7815441,18.2189786 13.7815441,16.967806 L13.7815441,15.206696 L13.7815441,14.1406067 C13.7815441,13.3062662 13.6893336,12.3330568 13.6431162,11.8695593 C13.873979,11.9159993 13.9661895,11.9159993 14.2430454,11.9159993 Z M9.53829046,11.5915961 C9.53829046,11.5915961 9.8611394,12.4259366 10.1377709,13.0747429 C10.5990478,14.0015124 11.3371805,15.7166334 11.6138121,16.4118796 C11.8904436,17.0609113 12.628352,18.6367125 12.628352,18.6367125 L13.2742742,20.026754 C13.0436358,20.026754 12.8589904,19.9805395 12.628352,19.9805395 C12.3979379,19.9805395 12.2592856,19.9805395 11.9826541,20.026754 L11.5213772,18.8220213 C11.5213772,18.8220213 11.3829493,18.3582984 11.1523108,17.8948009 C10.8294619,17.0609113 10.6448165,16.7362827 10.6448165,16.7362827 L7.55453066,16.7362827 C7.50831322,16.875377 7.27789914,17.4315289 7.13924685,17.8485864 C6.53954204,19.2390788 6.35512103,20.0734193 6.35512103,20.0734193 C6.17070002,20.026754 6.07848952,19.9805395 5.94006158,19.9805395 C5.80163365,19.9805395 5.70942314,19.9805395 5.52500214,20.026754 C5.52500214,20.026754 5.75541622,19.4243876 6.03227209,18.8682357 C6.40133846,18.0338952 6.90860841,16.9215915 7.32366786,15.994822 C7.6465168,15.2529105 9.26098588,11.6842505 9.26098588,11.5915961 L9.53829046,11.5915961 Z M8.84637514,13.8162036 C8.66195413,14.1872721 7.73940038,16.2725598 7.73940038,16.2725598 L10.4608442,16.2725598 C10.4608442,16.2725598 9.99956734,15.2064705 9.72271147,14.5114498 C9.30765202,13.5846803 9.12323101,13.2138372 9.12323101,13.2600517 C9.12323101,13.2600517 8.98457872,13.5846803 8.84637514,13.8162036 Z M23.0990679,11.9624392 L23.6985483,11.9624392 L24.6213264,11.9159993 L25.4052279,11.8695593 L25.635642,11.8695593 C27.2038936,11.8695593 27.8958089,12.0548682 28.6801591,12.7967797 C29.4180675,13.4920259 29.87912,14.4650099 29.87912,15.6701934 C29.87912,17.1069003 29.2336465,18.2658694 28.2648753,19.099759 C27.4349808,19.7950052 26.5122026,20.0265285 24.4369054,19.980314 L22.822212,19.980314 C22.4071525,19.980314 22.1767385,20.0265285 22.1767385,20.0265285 C22.2227315,19.8412197 22.2687246,18.0798843 22.2687246,17.6630522 L22.2687246,15.623979 C22.2687246,15.1602561 22.2687246,13.9090834 22.2227315,13.2138372 C22.2227315,12.7967797 22.1767385,11.9159993 22.1767385,11.9159993 C22.5455805,11.9624392 22.7762189,11.9624392 23.0990679,11.9624392 Z M24.6673195,19.5634819 C25.1748138,19.5634819 25.6820838,19.5634819 25.9587153,19.5172675 C26.6966237,19.3781731 27.06569,19.2390788 27.6653948,18.6367125 C28.3573102,17.9876807 28.6801591,16.9680314 28.6801591,15.8095132 C28.6337173,14.6043296 28.3573102,13.4922513 27.5267426,12.8894341 C26.8808203,12.4259366 26.5119783,12.3332822 25.2205825,12.2870678 C24.6670951,12.2870678 23.882745,12.3335077 23.3292576,12.4261621 L23.2372714,12.472602 C23.2372714,12.7043507 23.1908296,13.8630944 23.1908296,14.7438748 L23.1908296,18.2665457 C23.2372714,18.8226976 23.2372714,19.1466498 23.2832645,19.5179438 C23.6525552,19.6096964 24.5288916,19.5634819 24.6673195,19.5634819 Z M31.1249714,11.8697848 C32.2319462,11.9162247 32.6927744,11.9162247 33.2002687,11.9162247 L35.2300215,11.9162247 C35.2300215,12.0091045 35.1840285,12.1479734 35.1840285,12.2406278 C35.1840285,12.3335077 35.1840285,12.565031 35.2300215,12.565031 C34.9531657,12.518591 34.6765342,12.518591 34.2612504,12.4723766 C33.1542756,12.4259366 32.8774197,12.4259366 32.5085777,12.4259366 L32.0475252,12.4259366 L32.0475252,13.862869 C32.0015321,14.0481778 32.0015321,14.326141 32.0015321,14.6043296 C32.0015321,15.0213872 32.0475252,15.4386701 32.0475252,15.4386701 L34.0306119,15.4386701 C34.5381062,15.3920048 34.8149621,15.3920048 34.9529413,15.3920048 C34.9069482,15.3920048 34.9069482,15.5310991 34.9069482,15.7164079 C34.9069482,15.8555022 34.9529413,16.0408111 34.9069482,16.0408111 C34.4918888,15.9945966 33.5691107,15.9479312 32.8312023,15.9479312 L32.0473008,15.9479312 L32.0473008,17.6628267 C32.0473008,18.1265496 32.0932939,18.4509528 32.0932939,18.4971673 C32.0932939,18.7286906 32.0932939,19.0995336 32.139287,19.4701512 C32.2317218,19.5168166 32.3701498,19.5168166 32.5083533,19.5168166 C33.4771245,19.5168166 34.9069482,19.3310569 35.3220077,19.2848424 C35.3220077,19.2848424 35.2760146,19.5168166 35.2760146,19.6092456 L35.2760146,19.9800886 L32.0475252,19.9800886 C31.4940378,19.9800886 31.2171819,19.9800886 30.9401017,20.0263031 C30.9865435,20.0263031 31.0785296,19.0533191 31.0785296,18.4042874 L31.0785296,17.385089 L31.1249714,15.9017167 C31.1249714,15.9017167 31.0325366,12.3330568 30.9865435,11.8695593 L31.1249714,11.8695593 L31.1249714,11.8697848 Z M2.2965127,19.5172675 L2.89621752,19.5172675 C3.35749439,19.5172675 3.58813283,19.5172675 3.86476435,19.4706021 C4.51046223,19.4706021 4.97173911,19.3781731 5.11016704,19.3781731 L5.11016704,20.026754 L4.83353553,20.026754 C4.60289709,20.026754 4.32604122,20.026754 3.8649887,19.9805395 L1.65103917,19.9805395 C1.00534129,19.9805395 0.682492345,20.026754 0.636274915,20.026754 C0.682492345,19.6096964 0.77470285,17.5239578 0.77470285,15.994822 C0.77470285,14.4652353 0.636274915,11.8697848 0.636274915,11.8697848 C0.820695924,11.8697848 1.05155872,11.9162247 1.23597973,11.9162247 C1.42040074,11.9162247 1.83568454,11.8697848 1.83568454,11.8697848 C1.65126353,13.7699891 1.69725661,15.4388956 1.69725661,15.4388956 C1.69725661,15.4388956 1.69725661,18.4047383 1.74347404,19.2852933 L1.78969147,19.4706021 C1.78924275,19.5172675 2.01965684,19.5172675 2.2965127,19.5172675 Z M37.7208269,16.087251 L37.7208269,17.5239578 L37.76682,18.6829269 L37.8128131,19.934325 L37.8128131,20.026754 C37.4901885,19.9805395 37.3517606,19.9805395 37.2133326,19.9805395 C36.9829185,19.9805395 36.8442663,19.9805395 36.6598452,20.026754 L36.7058383,18.7753559 C36.7518314,17.8485864 36.7518314,17.0142459 36.7518314,15.5773136 C36.7518314,14.6505441 36.7518314,14.1872721 36.7058383,13.1209574 C36.7058383,12.7038999 36.6598452,11.9159993 36.6598452,11.9159993 C36.9367011,11.9624392 37.2133326,11.9624392 37.5361816,11.9624392 C37.7665957,11.9624392 38.135662,11.9159993 38.458511,11.9159993 C39.0119984,11.8695593 39.3808404,11.8695593 39.4732752,11.8695593 C41.4105932,11.8695593 41.9640806,12.7967797 41.9640806,13.7235492 C41.9640806,14.8358529 40.9957582,15.6701934 39.3808404,15.9945966 L39.3808404,16.0408111 L40.2571767,17.1069003 L41.0415269,18.0798843 L41.9178632,19.1926389 C42.2869296,19.6559109 42.3793644,19.8412197 42.6097785,20.0731939 L41.317934,20.0731939 L39.8881103,18.1265496 C39.5190439,17.6166123 38.2738656,16.0870255 38.2278725,16.0870255 L37.7208269,16.0870255 L37.7208269,16.087251 Z M38.3667492,15.6704189 C39.2890786,15.6704189 39.6121519,15.5313245 40.026987,15.2995758 C40.4884882,15.0213872 40.9033233,14.4652353 40.8573302,13.8162036 C40.8113371,12.9356486 40.3038428,12.2868423 38.9200122,12.2868423 C38.458511,12.2868423 37.8590305,12.3794967 37.7206026,12.4259366 L37.7206026,15.6242044 C37.8592549,15.6704189 38.1358864,15.6704189 38.3667492,15.6704189 Z M8.5235262,1.71973142 C7.50876194,1.76617134 6.90905713,2.32209777 6.90905713,3.20287821 C6.95527456,3.80546999 7.18568864,4.26896746 7.83161088,4.59337059 C8.10824239,4.686025 8.5235262,4.91777373 8.93858564,5.05686805 C10.2761988,5.47415103 10.8296862,6.1229573 10.8296862,7.09616671 C10.8296862,8.62575342 9.53829046,9.73805715 7.92382139,9.73805715 C7.13969556,9.73805715 6.40156282,9.50630842 5.89429287,9.04281096 C5.89429287,9.04281096 6.0327208,8.39400469 6.07871387,8.11604147 C6.07871387,8.11604147 6.90905713,9.41365402 8.10824239,9.36743953 C9.26143459,9.36743953 9.9533499,8.48688453 9.9533499,7.55966417 C9.9533499,6.72554909 9.4458556,6.21561171 8.24667033,5.79855417 C7.04748506,5.38149663 6.53999075,4.91799916 6.30957667,4.54715611 C6.12515566,4.22275297 6.0327208,3.89834984 6.0327208,3.52773222 C6.0327208,2.22989424 7.09370249,1.30289931 8.6157367,1.30289931 C9.8611394,1.30289931 10.4608442,1.9054911 10.4608442,1.9054911 C10.3224163,2.22989424 10.2302058,2.41520305 10.1379953,2.83248602 C10.1377709,2.83203515 9.67649404,1.71973142 8.5235262,1.71973142 Z M14.8427502,2.09034904 L14.7965328,3.4344015 L14.7503153,5.05641718 C14.7503153,5.05641718 14.7040979,5.84431778 14.7503153,6.6786583 C14.7503153,7.5592133 14.7503153,8.99592017 14.8427502,9.64495188 C14.8427502,9.64495188 14.4734595,9.59851195 14.2430454,9.59851195 C13.9661895,9.59851195 13.689558,9.64495188 13.689558,9.64495188 C13.7357754,8.9961456 13.7817685,8.30089941 13.7817685,6.72509822 L13.7817685,3.43462694 C13.7817685,3.43462694 13.7355511,2.41497761 13.7355511,2.09057447 L12.4439309,2.13701439 C11.75224,2.13701439 11.6138121,2.18345432 11.1525352,2.2296688 C11.1525352,2.2296688 11.1525352,2.04435999 11.1985282,1.85882574 C11.1985282,1.71973142 11.1985282,1.76617134 11.1525352,1.53442261 C11.2447457,1.58086253 14.1043931,1.58086253 14.1043931,1.58086253 L14.4734595,1.58086253 C15.4882237,1.58086253 17.3333312,1.53442261 17.3333312,1.53442261 L17.3333312,1.85882574 C17.3333312,1.99792007 17.3795487,2.2296688 17.3795487,2.2296688 C16.8260613,2.13701439 16.5032123,2.13701439 15.9495006,2.09057447 L14.8427502,2.09057447 L14.8427502,2.09034904 Z M0.820471567,1.53442261 C1.92767069,1.58086253 2.34273013,1.58086253 2.89621752,1.58086253 C3.21906646,1.58086253 4.55667966,1.58086253 4.7873181,1.53442261 L4.92574604,1.53442261 C4.92574604,1.62707701 4.87952861,1.76617134 4.87952861,1.85882574 L4.87952861,2.18322888 C4.64889017,2.18322888 4.32604122,2.18322888 3.95697485,2.13678896 C2.85000009,2.09034904 2.52692679,2.09034904 2.2043022,2.09034904 L1.74302532,2.09034904 L1.74302532,2.22944336 L1.69680789,3.52728134 L1.69680789,5.05664262 C1.69680789,5.05664262 1.69680789,5.10308254 1.74302532,5.10308254 L2.85000009,5.10308254 C2.98842802,5.10308254 3.21906646,5.10308254 3.72633641,5.05664262 L4.60289709,5.05664262 L4.60289709,5.65900897 C4.14162022,5.65900897 3.26528389,5.61256905 2.48093371,5.56635456 C2.25051963,5.56635456 1.92744633,5.56635456 1.74302532,5.61279448 L1.69680789,5.61279448 L1.69680789,6.40069508 L1.74302532,7.32769 L1.74302532,8.16180509 C1.74302532,8.3471139 1.78924275,8.76439687 1.78924275,9.08880001 L1.83546018,9.13523993 L2.20452656,9.13523993 C3.17307339,9.13523993 4.55690402,8.9961456 5.0181809,8.94993112 C5.0181809,8.94993112 4.97196347,9.13523993 4.97196347,9.27433426 L4.97196347,9.64517731 L3.95719921,9.64517731 L3.17284903,9.59851195 L1.69680789,9.64495188 L0.635826202,9.64495188 C0.635826202,9.64495188 0.728261063,8.71795695 0.728261063,8.06915068 L0.774478493,7.04950135 L0.774478493,5.56635456 C0.774478493,5.56635456 0.728261063,1.9974692 0.682267989,1.53419717 L0.820471567,1.53419717 L0.820471567,1.53442261 Z M18.3943129,0.607427684 L22.6840084,0.607427684 L22.6840084,0.0974903022 L18.3943129,0.0974903022 L18.3943129,0.607427684 Z M18.5787339,1.53442261 C19.6857087,1.58086253 20.1469856,1.58086253 20.6542555,1.58086253 C20.9771045,1.58086253 22.3609351,1.58086253 22.5455805,1.53442261 L22.7300015,1.53442261 C22.6840084,1.62707701 22.6840084,1.76617134 22.6840084,1.85882574 L22.6840084,2.18322888 C22.4071525,2.18322888 22.1300723,2.18322888 21.7152372,2.13678896 C20.6542555,2.09034904 20.3314066,2.09034904 19.9625646,2.09034904 L19.5012877,2.09034904 L19.5012877,5.10308254 L20.6542555,5.10308254 C20.7926835,5.10308254 20.9771045,5.10308254 21.5305919,5.05664262 L22.4069282,5.05664262 C22.4069282,5.05664262 22.4069282,5.19573694 22.3609351,5.33460583 C22.3609351,5.51991464 22.4069282,5.65900897 22.4069282,5.65900897 C21.9454269,5.65900897 21.069315,5.61256905 20.2851892,5.56635456 C20.0545507,5.56635456 19.7317018,5.56635456 19.5010633,5.61279448 L19.5010633,6.40069508 L19.5472808,7.32769 L19.5472808,8.16180509 C19.5472808,8.3471139 19.5934982,8.76439687 19.5934982,9.08880001 L19.5934982,9.13523993 L20.0085576,9.13523993 C20.9311114,9.13523993 22.3611595,8.9961456 22.7759946,8.94993112 C22.7759946,8.94993112 22.7300015,9.13523993 22.7300015,9.27433426 C22.7300015,9.41320314 22.7300015,9.55229747 22.7759946,9.64517731 L21.7612303,9.64517731 L20.9773288,9.59851195 L19.5012877,9.64495188 L18.440306,9.64495188 C18.440306,9.64495188 18.5325165,8.71795695 18.5325165,8.06915068 L18.5325165,7.04950135 L18.5787339,5.56635456 C18.5787339,5.56635456 18.5325165,1.9974692 18.440306,1.53419717 L18.5787339,1.53419717 L18.5787339,1.53442261 Z M24.2060426,1.53442261 C25.3134661,1.58086253 25.7742943,1.58086253 26.2817886,1.58086253 C26.6046375,1.58086253 27.9884681,1.58086253 28.1731135,1.53442261 L28.3575345,1.53442261 C28.3115414,1.62707701 28.3115414,1.76617134 28.3115414,1.85882574 L28.3115414,2.18322888 C28.0346856,2.18322888 27.7576053,2.18322888 27.3427703,2.13678896 C26.2817886,2.09034904 25.9589396,2.09034904 25.5900976,2.09034904 L25.1290451,2.09034904 L25.1290451,5.10308254 L26.2817886,5.10308254 C26.4202165,5.10308254 26.6046375,5.10308254 27.1581249,5.05664262 L28.0344612,5.05664262 C28.0344612,5.05664262 28.0344612,5.19573694 27.9884681,5.33460583 C27.9884681,5.51991464 28.0344612,5.65900897 28.0344612,5.65900897 C27.57296,5.65900897 26.6966237,5.61256905 25.9127222,5.56635456 C25.6823081,5.56635456 25.3592348,5.56635456 25.1288207,5.61279448 L25.1288207,6.40069508 L25.1748138,7.32769 L25.1748138,8.16180509 C25.1748138,8.3471139 25.2208069,8.76439687 25.2208069,9.08880001 L25.2208069,9.13523993 L25.6358663,9.13523993 C26.5586444,9.13523993 27.9884681,8.9961456 28.4035276,8.94993112 C28.4035276,8.94993112 28.3575345,9.13523993 28.3575345,9.27433426 C28.3575345,9.41320314 28.3575345,9.55229747 28.4035276,9.64517731 L27.3887633,9.64517731 L26.6048619,9.59873739 L25.1290451,9.64517731 L24.0680634,9.64517731 C24.0680634,9.64517731 24.1600495,8.71818239 24.1600495,8.06937612 L24.1600495,7.04972679 L24.2060426,5.56658 C24.2060426,5.56658 24.1600495,1.99769463 24.0680634,1.53442261 L24.2060426,1.53442261 Z M3.49592233,24.754383 L3.40348747,25.0787861 C3.12685596,25.2640949 2.75778958,25.3569748 2.34250578,25.3569748 C1.28152409,25.3569748 0.635826202,24.7079431 0.635826202,23.6420793 C0.635826202,23.1321419 0.820247211,22.6686444 1.14332051,22.3444667 C1.46616945,22.0662781 1.92744633,21.9269583 2.48093371,21.9269583 C2.85000009,21.9269583 3.21906646,21.9731728 3.49569797,22.1122671 C3.44948054,22.2513614 3.40326311,22.3442413 3.40326311,22.4831102 L3.35704568,22.4831102 C3.12640724,22.2515869 2.8035583,22.1122671 2.43471628,22.1122671 C2.01943248,22.1122671 1.69658354,22.2513614 1.41995202,22.57599 C1.23553101,22.8537278 1.09710308,23.1783564 1.09710308,23.6420793 C1.09710308,24.1058022 1.23553101,24.4764198 1.46616945,24.754383 C1.69658354,25.0325716 2.01965684,25.1718914 2.38849885,25.1718914 C2.80378266,25.1718914 3.1266316,25.0327971 3.44948054,24.754383 L3.49592233,24.754383 Z M9.35364509,23.6420793 C9.35364509,24.7081685 8.66195413,25.3569748 7.55475501,25.3569748 C6.40156282,25.3569748 5.7096475,24.7079431 5.7096475,23.6420793 C5.7096475,22.5762154 6.40133846,21.9271837 7.55475501,21.9271837 C8.66172978,21.9271837 9.35364509,22.57599 9.35364509,23.6420793 Z M6.49399768,22.57599 C6.30957667,22.8537278 6.21714181,23.2245708 6.21714181,23.6420793 C6.21714181,24.0591368 6.30957667,24.4297544 6.49399768,24.6617286 C6.67841869,24.9861317 7.09347813,25.2178804 7.55497937,25.2178804 C7.97003882,25.2178804 8.38509826,24.9863572 8.56951927,24.6617286 C8.75416464,24.3835399 8.84637514,24.0589114 8.84637514,23.6420793 C8.84637514,23.2245708 8.75416464,22.8539532 8.56951927,22.57599 C8.38509826,22.2515869 7.97003882,22.0660526 7.55497937,22.0660526 C7.09347813,22.0662781 6.72441176,22.2515869 6.49399768,22.57599 Z M12.3519448,21.9271837 L12.4903727,22.2053724 C12.5825832,22.3444667 12.6285763,22.4831102 12.7210112,22.6224299 L12.8132217,22.8539532 C13.1360706,23.410556 13.0438601,23.3176761 13.2744986,23.6882937 C13.5511301,24.1982311 13.5973475,24.3373254 13.7357754,24.5226343 C13.8279859,24.3373254 13.9201964,24.1982311 14.1048418,23.919817 C14.2432697,23.5956393 14.3354802,23.4103305 14.4276907,23.2712362 L14.5199013,23.039262 L14.6583292,22.8539532 L14.7967571,22.6224299 C14.9351851,22.2980268 15.0733886,22.1124925 15.1196061,22.0200636 L15.1658235,21.9271837 L15.2120409,21.9271837 C15.258034,22.0200636 15.258034,21.9733982 15.258034,22.2053724 C15.3042514,22.5762154 15.258034,22.3906812 15.3504689,22.9006186 L15.3504689,23.0859274 L15.3966863,23.2712362 L15.3966863,23.6418538 C15.4429037,23.7342828 15.4429037,23.9195916 15.4888968,24.1517912 L15.4888968,24.3371 L15.5351142,24.7079431 C15.5813317,24.9861317 15.5813317,25.1250006 15.6273247,25.3103094 C15.4888968,25.2640949 15.4429037,25.2640949 15.3966863,25.2640949 C15.3504689,25.2640949 15.2582584,25.2640949 15.1660479,25.3103094 C15.1660479,25.0787861 15.1660479,24.9394664 15.1198304,24.6150632 C15.073613,23.8736025 15.073613,23.8736025 14.9354094,22.8075133 C14.8431989,22.9466076 14.7969815,22.9928221 14.6587779,23.2712362 L14.4741325,23.6420793 C14.1512836,24.2444456 14.2437185,24.0591368 14.1512836,24.1982311 C13.8284346,24.8472628 13.7362241,24.9863572 13.6440136,25.2178804 L13.5977962,25.2178804 C13.5515788,25.1250006 13.5515788,25.1250006 13.4131508,24.8008229 C13.3671578,24.7079431 13.5055857,24.9394664 13.0440845,24.0589114 C12.9056565,23.7811736 12.813446,23.5956393 12.7212355,23.5027595 L12.6288007,23.3174507 L12.5365902,23.1321419 L12.4441553,22.9468331 L12.3981622,22.9006186 L12.3981622,22.8539532 C12.3059517,23.2247963 12.3059517,23.410556 12.2137412,24.1520166 C12.1675238,24.8010483 12.1675238,24.9863572 12.1213064,25.3105349 C12.0290959,25.2643204 11.9828784,25.2643204 11.9828784,25.2643204 C11.936661,25.2643204 11.8906679,25.2643204 11.7984574,25.3105349 C11.8446748,25.125226 11.8446748,24.9863572 11.8906679,24.754383 C12.0290959,23.9200425 11.9828784,24.1520166 11.9828784,24.0129223 C12.0290959,23.9200425 12.0290959,23.781399 12.0290959,23.6885192 L12.0753133,23.5032104 L12.2137412,22.6688698 C12.2597343,22.2055978 12.2597343,22.2055978 12.3059517,21.9274092 L12.3519448,21.9274092 L12.3519448,21.9271837 Z M18.7631549,23.8736025 L18.7631549,25.0325716 C18.8093724,25.1250006 18.8093724,25.171666 18.8093724,25.3103094 C18.6249514,25.2640949 18.6249514,25.2640949 18.5787339,25.2640949 C18.5325165,25.2640949 18.4865234,25.2640949 18.3021024,25.3103094 C18.3480955,25.0787861 18.3480955,24.9394664 18.3480955,24.7079431 C18.3480955,24.3835399 18.3943129,23.8273881 18.3943129,23.5956393 C18.3943129,23.1319164 18.3480955,22.8075133 18.3480955,22.4828847 C18.3480955,22.2975759 18.3480955,22.158707 18.3021024,21.9729473 C18.4865234,22.0196127 18.5327409,22.0196127 18.7173862,22.0196127 C18.8095967,22.0196127 18.9018072,22.0196127 19.0864526,21.9729473 L19.3630841,21.9729473 C20.1009925,21.9729473 20.4700589,22.251136 20.4700589,22.8072879 C20.4700589,23.131691 20.2856379,23.4101051 20.0549994,23.5954139 C19.7781436,23.7340573 19.501512,23.7807227 19.0864526,23.7807227 L18.7636037,23.7807227 L18.7636037,23.8736025 L18.7631549,23.8736025 Z M18.7631549,23.5958648 L18.9937934,23.5958648 C19.6857087,23.5958648 20.0085576,23.3176761 20.0085576,22.8077387 C20.0085576,22.3906812 19.7319261,22.1591579 19.1784387,22.1591579 C19.0400108,22.1591579 18.9478003,22.1591579 18.8093724,22.2053724 C18.7631549,22.3906812 18.7631549,22.4831102 18.7631549,22.5297755 L18.7631549,23.5958648 Z M23.7909832,21.9271837 C23.8369762,22.0662781 23.7909832,21.9271837 23.9294111,22.2980268 C24.067839,22.6688698 24.1598252,22.8079642 24.1598252,22.8079642 C24.6213264,23.8740534 24.4826741,23.5494248 24.6213264,23.9202679 L24.7133126,24.1984566 C24.9901684,24.7083939 24.8977336,24.5692996 24.9437266,24.7083939 C25.0821546,25.0327971 25.1285964,25.0327971 25.2205825,25.3107603 C25.1285964,25.2645458 25.0821546,25.2645458 24.9901684,25.2645458 C24.8977336,25.2645458 24.8057474,25.2645458 24.7133126,25.3107603 C24.6673195,25.079237 24.6213264,24.9399172 24.4828985,24.6621795 C24.3904636,24.3377763 24.2984775,24.1984566 24.2060426,24.0131477 L23.006633,24.0131477 C22.7762189,24.5692996 22.7762189,24.5230851 22.4995874,25.3107603 C22.4531456,25.2645458 22.4071525,25.2645458 22.3611595,25.2645458 C22.3151664,25.2645458 22.2687246,25.2645458 22.1767385,25.3107603 C22.2687246,25.079237 22.3611595,24.8937027 22.5458048,24.4768706 C22.6842328,24.198682 22.7762189,23.9202679 22.9148712,23.6425301 C23.0992922,23.2250217 23.2377201,22.9472839 23.2839376,22.8081896 C23.3759237,22.7157606 23.4683586,22.4373466 23.5143517,22.2982522 C23.6067865,22.1596088 23.6527796,22.0667289 23.6527796,22.0205144 L23.6987727,21.9738491 L23.6987727,21.9276346 L23.7909832,21.9276346 L23.7909832,21.9271837 Z M23.0990679,23.7811736 L24.1600495,23.7811736 C24.1140565,23.6882937 24.1600495,23.7811736 24.0216216,23.5491994 C23.7912075,22.9468331 23.8831937,23.1321419 23.7912075,22.9930475 C23.7452145,22.8539532 23.6987727,22.7615243 23.6067865,22.57599 L23.0990679,23.7811736 Z M27.57296,21.9271837 L27.6194018,21.9733982 C27.7113879,22.0200636 27.8498158,22.2053724 28.0344612,22.3909066 C28.1728891,22.5762154 28.3573102,22.7617497 28.4959624,22.900844 L28.6339417,23.0861528 L28.8183627,23.2247963 L28.9567906,23.410556 C29.0492255,23.4567704 29.2336465,23.6882937 29.4642849,23.9667078 L29.9717792,24.4766452 L29.9717792,24.4299799 C30.0177723,24.3375509 29.9717792,24.4766452 30.0177723,24.0129223 L30.0177723,23.410556 C30.0177723,22.9930475 30.0177723,22.530001 29.9717792,22.2515869 L29.9717792,21.9733982 C30.0637654,22.0200636 30.1102072,22.0200636 30.1562002,22.0200636 C30.2021933,22.0200636 30.2486351,22.0200636 30.2946282,21.9733982 L30.2946282,22.3909066 C30.2486351,22.6224299 30.2486351,22.993273 30.2486351,23.2714616 C30.2021933,23.5958648 30.2021933,24.1058022 30.2021933,24.3837654 L30.2021933,25.0790116 C30.2021933,25.1718914 30.2021933,25.125226 30.2486351,25.3572002 L30.1562002,25.3572002 C30.0177723,25.1718914 29.8793444,24.9863572 29.510278,24.6152887 C29.2798639,24.3837654 29.0492255,24.0591368 28.8183627,23.873828 C28.7263765,23.7347337 28.8648045,23.9200425 28.3573102,23.3638906 L28.0344612,23.0394875 C27.7116123,22.6686444 27.8040471,22.7617497 27.7576053,22.7617497 L27.7116123,22.7155352 L27.7116123,23.9669333 C27.7116123,24.244671 27.7116123,24.7083939 27.7576053,24.9865826 L27.7576053,25.3107603 C27.7116123,25.2645458 27.6656192,25.2645458 27.5731843,25.2645458 C27.5271913,25.2645458 27.4811982,25.2645458 27.4352051,25.3107603 C27.4352051,25.1254515 27.4352051,24.9865826 27.4811982,24.7083939 L27.4811982,23.5960902 L27.5271913,23.4107814 L27.5271913,23.2250217 L27.5271913,22.3449176 L27.5271913,21.9274092 L27.57296,21.9274092 L27.57296,21.9271837 Z M33.338921,22.0200636 C33.4313558,22.0200636 33.4773489,22.0200636 33.569335,21.9733982 C33.569335,22.1591579 33.569335,22.2978014 33.523342,22.530001 L33.523342,24.7081685 C33.523342,24.9396918 33.569335,25.0790116 33.569335,25.3105349 C33.4313558,25.2643204 33.384914,25.2643204 33.338921,25.2643204 C33.2469348,25.2643204 33.200493,25.2643204 33.1085069,25.3105349 L33.1085069,24.7081685 C33.1085069,24.6152887 33.1085069,24.3837654 33.1544999,24.1520166 L33.1544999,23.410556 C33.1544999,23.0861528 33.1544999,22.8539532 33.1085069,22.530001 L33.1085069,21.9733982 C33.2002687,22.0200636 33.2469348,22.0200636 33.338921,22.0200636 Z M37.1213465,25.2640949 L36.6138522,25.2640949 C36.4294312,25.2640949 36.3829894,25.2640949 36.2910032,25.3103094 C36.2910032,25.0787861 36.3369963,24.8470374 36.3369963,24.3835399 L36.3369963,24.0126969 L36.3369963,23.456545 L36.3369963,23.1321419 L36.3369963,22.5297755 C36.3369963,22.2515869 36.3369963,22.1122671 36.2910032,21.9731728 C36.4294312,21.9731728 36.4754242,22.0198381 36.6600696,22.0198381 L37.7210513,22.0198381 C37.9054723,22.0198381 37.9054723,21.9731728 37.9979072,21.9731728 L37.9979072,22.2513614 L37.6286164,22.2513614 C37.5366303,22.2513614 37.3982023,22.2051469 37.213557,22.2051469 L36.7522801,22.2051469 L36.7522801,22.9925967 C36.706287,23.2707853 36.706287,23.1779055 36.7522801,23.1779055 C36.706287,23.2707853 36.706287,23.2707853 36.706287,23.3169998 C36.706287,23.3632143 36.706287,23.4098797 36.7522801,23.4098797 C36.7987219,23.4560941 36.890708,23.4560941 36.9371498,23.4560941 C36.9831429,23.4560941 36.9831429,23.4560941 37.2597744,23.4098797 L37.9056967,23.4098797 L37.9056967,23.6876174 C37.6752826,23.6414029 37.3522093,23.6414029 37.0753534,23.6414029 L36.706287,23.6414029 C36.7522801,23.6876174 36.7522801,23.7338319 36.7522801,23.7338319 L36.706287,24.1049004 C36.706287,24.1973294 36.706287,24.1511149 36.7522801,24.5681724 L36.7522801,25.0316699 C36.844715,25.0778844 36.890708,25.0778844 36.9371498,25.0778844 C37.029136,25.0778844 37.075129,25.0778844 37.3522093,25.0316699 C37.7672687,25.0316699 37.8597036,25.0316699 38.0441246,24.9854554 L38.0441246,25.3094077 L37.9981315,25.3094077 L37.9981315,25.2631932 L37.1213465,25.2631932 L37.1213465,25.2640949 Z M41.7338909,22.5297755 C41.641456,22.2978014 41.411042,22.1122671 41.1339617,22.1122671 C40.7648954,22.1122671 40.5344813,22.3442413 40.5344813,22.668419 C40.5344813,22.8537278 40.5804743,23.039262 40.7189023,23.1321419 C40.8573302,23.2245708 40.9957582,23.2712362 41.2723897,23.4103305 C41.5952386,23.548974 41.6874491,23.5956393 41.825877,23.7345082 C41.964305,23.8736025 42.0567398,24.0589114 42.0567398,24.2444456 C42.0567398,24.8934773 41.5492455,25.3572002 40.8573302,25.3572002 C40.5804743,25.3572002 40.257401,25.2643204 40.07298,25.0790116 C40.1194218,24.8474883 40.1654149,24.8012738 40.1654149,24.661954 L40.211408,24.661954 C40.3498359,24.9396918 40.6729092,25.125226 40.9493164,25.125226 C41.3648245,25.125226 41.6412317,24.8474883 41.6412317,24.4766452 C41.6412317,24.2913364 41.5952386,24.1522421 41.5028037,24.0129223 C41.3648245,23.9200425 41.2723897,23.873828 40.9493164,23.7347337 C40.3498359,23.5032104 40.1654149,23.2714616 40.1654149,22.8079642 C40.1654149,22.5764409 40.257401,22.2980268 40.4418221,22.1593833 C40.6262431,22.020289 40.9033233,21.9274092 41.1801792,21.9274092 C41.4565863,21.9274092 41.6872248,21.9736237 41.9180876,22.1593833 C41.8256527,22.2980268 41.7796596,22.3909066 41.7796596,22.5302264 L41.7338909,22.5302264 L41.7338909,22.5297755 Z" id="Shape"></path>
        </g>
    </g>
</svg>