<?xml version="1.0" encoding="UTF-8"?>
<svg width="26px" height="26px" viewBox="0 0 26 26" version="1.1" xmlns="http://www.w3.org/2000/svg" xmlns:xlink="http://www.w3.org/1999/xlink">
    <!-- Generator: sketchtool 48.2 (47327) - http://www.bohemiancoding.com/sketch -->
    <title>EBCC1E2C-7338-4ACB-99E1-A8557D274797</title>
    <desc>Created with sketchtool.</desc>
    <defs></defs>
    <g id="KULT-HOMEPAGE-2" stroke="none" stroke-width="1" fill="none" fill-rule="evenodd" transform="translate(-707.000000, -3468.000000)">
        <g id="Gifts" transform="translate(707.000000, 3468.000000)" fill="#000000" fill-rule="nonzero">
            <path d="M0.866666667,12.1194667 L11.2666667,12.1194667 L11.2666667,7.78613333 L12.1333333,7.78613333 L12.1333333,12.1194667 L13.8666667,12.1194667 L13.8666667,7.78613333 L14.7333333,7.787 L14.7333333,12.1194667 L25.1333333,12.1194667 C26,12.1194667 26,11.5526667 26,11.2528 L26,7.78613333 C26,7.48626667 26,6.91946667 25.1333333,6.91946667 L17.9729333,6.91946667 C19.1273333,5.18613333 20.2141333,4.1704 20.2141333,2.8938 C20.2141333,1.183 19.1429333,0.0936 17.2787333,0.0936 C16.4614667,0.0936 14.2471333,0.336266667 13.2158,3.3098 C12.1853333,0.3354 9.971,0.0121333333 9.15286667,0.0121333333 C7.28953333,0.0121333333 6.21746667,1.196 6.21746667,2.9068 C6.21746667,4.1834 7.30426667,5.18526667 8.45866667,6.9186 L0.866666667,6.9186 C0,6.9186 0,7.4854 0,7.78526667 L0,11.2519333 C0,11.5535333 0,12.1194667 0.866666667,12.1194667 Z M17.2796,1.28613333 C18.9202,1.28613333 19.1316667,2.25333333 19.1316667,3.00213333 C19.1316667,4.54306667 16.692,6.91946667 15.9258667,6.91946667 L13.7765333,6.91946667 C13.9377333,1.71946667 16.2586667,1.28613333 17.2796,1.28613333 Z M7.30253333,2.8938 C7.30253333,2.145 7.514,1.3936 9.1546,1.3936 C10.1755333,1.3936 12.4956,1.7186 12.6594,6.91860023 L10.5092,6.9186 C9.7422,6.91946667 7.30253333,4.4356 7.30253333,2.8938 Z" id="Shape"></path>
            <path d="M11.2666667,12.9861333 L0.866666667,12.9861333 L0.866666667,25.1194667 C0.866666667,25.4193333 0.866666667,25.9861333 1.73333333,25.9861333 L11.2666667,25.9861333 L11.2666667,12.9861333 Z" id="Shape"></path>
            <path d="M14.7333333,12.987 L14.7333333,25.9861333 L24.2666667,25.987 C25.1333333,25.9861333 25.1333333,25.4210667 25.1333333,25.1203333 L25.1333333,12.9861333 L14.7333333,12.987 Z" id="Shape"></path>
            <polygon id="Shape" points="12.1333333 12.9861333 13.8666667 12.9861333 13.8666667 25.9861333 12.1333333 25.9861333"></polygon>
        </g>
    </g>
</svg>