<?xml version="1.0" encoding="UTF-8"?>
<svg width="146px" height="25px" viewBox="0 0 146 25" version="1.1" xmlns="http://www.w3.org/2000/svg" xmlns:xlink="http://www.w3.org/1999/xlink">
    <!-- Generator: sketchtool 48.2 (47327) - http://www.bohemiancoding.com/sketch -->
    <title>EDC7747E-D581-4768-A376-12776D322D0E</title>
    <desc>Created with sketchtool.</desc>
    <defs></defs>
    <g id="KULT-HOMEPAGE-2" stroke="none" stroke-width="1" fill="none" fill-rule="evenodd" transform="translate(-917.000000, -6345.000000)">
        <g id="Group-18" transform="translate(917.000000, 6345.000000)" fill-rule="nonzero">
            <g id="discover" transform="translate(37.406255, 0.278705)">
                <path d="M32.6019417,12.005 L32.6019417,2.14285714 C32.6019417,0.959285714 31.6501068,0 30.4757282,0 L2.12621359,0 C0.951834951,0 0,0.959285714 0,2.14285714 L0,22.1428571 C0,23.3264286 0.951834951,24.2857143 2.12621359,24.2857143 L9.63103883,24.2857143 C20.715699,22.7221429 29.7691165,16.4957143 32.6019417,12.005 Z" id="Shape" fill="#E6E6E6"></path>
                <path d="M32.6019417,22.1428571 L32.6019417,12.005 C29.7691165,16.4957143 20.715699,22.7221429 9.63103883,24.2857143 L30.4757282,24.2857143 C31.6501068,24.2857143 32.6019417,23.3264286 32.6019417,22.1428571 Z" id="Shape" fill="#E6E6E6"></path>
                <path d="M32.6019417,22.1428571 L32.6019417,12.005 C29.7691165,16.4957143 20.715699,22.7221429 9.63103883,24.2857143 L30.4757282,24.2857143 C31.6501068,24.2857143 32.6019417,23.3264286 32.6019417,22.1428571 Z" id="Shape" fill="#FA7000"></path>
                <path d="M17.0302621,10.0092857 C15.8324951,10.0092857 14.8601068,10.9521429 14.8601068,12.1171429 C14.8601068,13.3557143 15.7899709,14.28 17.0302621,14.28 C18.2407864,14.28 19.1947476,13.3421429 19.1947476,12.1407143 C19.1954563,10.9464286 18.2478738,10.0092857 17.0302621,10.0092857 Z" id="Shape" fill="#FA7000"></path>
                <path d="M4.71027184,10.0864286 L3.54368932,10.0864286 L3.54368932,14.1885714 L4.70318447,14.1885714 C5.32049515,14.1885714 5.76558252,14.0407143 6.15609709,13.7142857 C6.61961165,13.3278571 6.89531068,12.7435714 6.89531068,12.1385714 C6.89460194,10.9271429 5.99733981,10.0864286 4.71027184,10.0864286 Z M5.63871845,13.1671429 C5.38640777,13.3942857 5.06464078,13.4935714 4.55080583,13.4935714 L4.33818447,13.4935714 L4.33818447,10.7807143 L4.55151456,10.7807143 C5.06534951,10.7807143 5.37435922,10.8735714 5.63942718,11.1121429 C5.91229126,11.3585714 6.07671845,11.7392857 6.07671845,12.1328571 C6.07600971,12.5278571 5.91229126,12.9221429 5.63871845,13.1671429 Z" id="Shape" fill="#444444"></path>
                <rect id="Rectangle-path" fill="#444444" x="7.26101942" y="10.0864286" width="1" height="4.10214286"></rect>
                <path d="M9.99462136,11.6585714 C9.51693204,11.4821429 9.37731068,11.3642857 9.37731068,11.1428571 C9.37731068,10.885 9.62678641,10.6892857 9.96981553,10.6892857 C10.2072427,10.6892857 10.4035631,10.785 10.611932,11.0192857 L11.0251262,10.4735714 C10.6842233,10.1707143 10.2752816,10.0178571 9.83019417,10.0178571 C9.1101165,10.0178571 8.56084466,10.5228571 8.56084466,11.1907143 C8.56084466,11.7578571 8.81599029,12.0457143 9.56087379,12.3185714 C9.87200971,12.4278571 10.0300583,12.5021429 10.1108544,12.5528571 C10.2696117,12.6564286 10.3482816,12.8042857 10.3482816,12.9757143 C10.3482816,13.3092857 10.0860485,13.555 9.73097087,13.555 C9.35321359,13.555 9.04774757,13.3642857 8.8648932,13.0064286 L8.35318447,13.5064286 C8.7188932,14.0464286 9.15760194,14.2878571 9.76215534,14.2878571 C10.5864175,14.2878571 11.1668738,13.7321429 11.1668738,12.94 C11.1675825,12.2871429 10.8982621,11.9914286 9.99462136,11.6585714 Z" id="Shape" fill="#444444"></path>
                <path d="M11.4163495,12.1385714 C11.4163495,13.345 12.3561359,14.28 13.5652427,14.28 C13.9061456,14.28 14.1988544,14.2121429 14.5588932,14.0407143 L14.5588932,13.0978571 C14.2406699,13.42 13.9614272,13.5471429 13.5999709,13.5471429 C12.8005146,13.5471429 12.234233,12.9642857 12.234233,12.1328571 C12.234233,11.3471429 12.8189417,10.7242857 13.564534,10.7242857 C13.9408738,10.7242857 14.2286214,10.8585714 14.5581845,11.1857143 L14.5581845,10.2442857 C14.2101942,10.0671429 13.9245728,9.99357143 13.580835,9.99357143 C12.3795243,9.99357143 11.4163495,10.9464286 11.4163495,12.1385714 Z" id="Shape" fill="#444444"></path>
                <polygon id="Shape" fill="#444444" points="20.9906893 12.8407143 19.9056117 10.0864286 19.039534 10.0864286 20.7653107 14.2921429 21.1912621 14.2921429 22.9503495 10.0864286 22.0913592 10.0864286"></polygon>
                <polygon id="Shape" fill="#444444" points="23.3103883 14.1885714 25.5613398 14.1885714 25.5613398 13.4935714 24.1048835 13.4935714 24.1048835 12.3864286 25.5060583 12.3864286 25.5060583 11.6914286 24.1048835 11.6914286 24.1048835 10.7807143 25.5613398 10.7807143 25.5613398 10.0864286 23.3103883 10.0864286"></polygon>
                <path d="M28.7038835,11.2964286 C28.7038835,10.5278571 28.180835,10.0857143 27.2644369,10.0857143 L26.0850971,10.0857143 L26.0850971,14.1878571 L26.8810097,14.1878571 L26.8810097,12.5385714 L26.9844854,12.5385714 L28.0809029,14.1878571 L29.0582524,14.1878571 L27.7775631,12.4585714 C28.3757379,12.3364286 28.7038835,11.9242857 28.7038835,11.2964286 Z M27.1120583,11.9728571 L26.8817184,11.9728571 L26.8817184,10.7321429 L27.1248155,10.7321429 C27.620932,10.7321429 27.8867087,10.9421429 27.8867087,11.3414286 C27.8867087,11.7514286 27.620932,11.9728571 27.1120583,11.9728571 Z" id="Shape" fill="#444444"></path>
            </g>
            <g id="amex" transform="translate(0.238182, 0.278705)">
                <path d="M30.4757282,0 L2.12621359,0 C0.951834951,0 0,0.959285714 0,2.14285714 L0,22.1428571 C0,23.3264286 0.951834951,24.2857143 2.12621359,24.2857143 L30.4757282,24.2857143 C31.6501068,24.2857143 32.6019417,23.3264286 32.6019417,22.1428571 L32.6019417,2.14285714 C32.6019417,0.959285714 31.6501068,0 30.4757282,0 Z" id="Shape" fill="#007AC6"></path>
                <path d="M6.75639806,12.4492857 L8.40775728,12.4492857 L7.58207767,10.4085714 L6.75639806,12.4492857 Z M29.7669903,8.57142857 L25.536534,8.57142857 L24.5046117,9.69357143 L23.5754563,8.57142857 L14.5985825,8.57142857 L13.7729029,10.4078571 L12.9472233,8.57142857 L9.33549515,8.57142857 L9.33549515,9.38785714 L8.92300971,8.57142857 L5.82724272,8.57142857 L2.83495146,15.7142857 L6.44667961,15.7142857 L6.85916505,14.5921429 L7.89108738,14.5921429 L8.30357282,15.7142857 L12.3277864,15.7142857 L12.3277864,14.8978571 L12.6375049,15.7142857 L14.7013495,15.7142857 L15.011068,14.7957143 L15.011068,15.7142857 L23.2664466,15.7142857 L24.2983689,14.5921429 L25.2268155,15.7142857 L29.4572718,15.7142857 L26.774699,12.1428571 L29.7669903,8.57142857 Z M17.2811553,14.6935714 L16.1457573,14.6935714 L16.1457573,10.7142857 L14.3916311,14.6935714 L13.3597087,14.6935714 L11.6055825,10.7142857 L11.6055825,14.6935714 L9.23201942,14.6935714 L8.81953398,13.5714286 L6.34320388,13.5714286 L5.93071845,14.6935714 L4.58907767,14.6935714 L6.75568932,9.59142857 L8.50981553,9.59142857 L10.4701845,14.3871429 L10.4701845,9.59142857 L12.4305534,9.59142857 L13.9784369,13.0607143 L15.4228447,9.59142857 L17.3832136,9.59142857 L17.3832136,14.6935714 L17.2811553,14.6935714 Z M27.4969029,14.6935714 L25.9490194,14.6935714 L24.6073786,12.9585714 L23.0594951,14.6935714 L18.4158447,14.6935714 L18.4158447,9.59142857 L23.1622621,9.59142857 L24.6066699,11.2242857 L26.1545534,9.59142857 L27.5989612,9.59142857 L25.3295825,12.1428571 L27.4969029,14.6935714 Z M19.5512427,10.6121429 L19.5512427,11.5307143 L22.1310485,11.5307143 L22.1310485,12.5514286 L19.5512427,12.5514286 L19.5512427,13.5714286 L22.440767,13.5714286 L23.7824078,12.0407143 L22.5442427,10.6121429 L19.5512427,10.6121429 Z" id="Shape" fill="#FFFFFF"></path>
            </g>
            <g id="paypal" transform="translate(113.159876, 0.278705)">
                <path d="M30.4757282,0 L2.12621359,0 C0.951834951,0 0,0.959285714 0,2.14285714 L0,22.1428571 C0,23.3264286 0.951834951,24.2857143 2.12621359,24.2857143 L30.4757282,24.2857143 C31.6501068,24.2857143 32.6019417,23.3264286 32.6019417,22.1428571 L32.6019417,2.14285714 C32.6019417,0.959285714 31.6501068,0 30.4757282,0 Z" id="Shape" fill="#E6E6E6"></path>
                <path d="M20.7603495,8.71642857 L18.7758835,8.71642857 C18.6405146,8.71642857 18.5249903,8.81571429 18.5037282,8.95071429 L17.7014369,14.0792857 C17.6858447,14.1807143 17.7630971,14.2721429 17.8651553,14.2721429 L18.8836117,14.2721429 C18.9785825,14.2721429 19.0593786,14.2021429 19.0742621,14.1078571 L19.301767,12.6535714 C19.3230291,12.5185714 19.4385534,12.4192857 19.5739223,12.4192857 L20.2018641,12.4192857 C21.5087767,12.4192857 22.2635825,11.7814286 22.4606117,10.5178571 C22.5492039,9.965 22.4641553,9.53071429 22.2075922,9.22714286 C21.9248058,8.89357143 21.4244369,8.71642857 20.7603495,8.71642857 Z M20.9892718,10.59 C20.880835,11.3078571 20.3365243,11.3078571 19.8106408,11.3078571 L19.5115534,11.3078571 L19.7213398,9.96714286 C19.7340971,9.88642857 19.8035534,9.82642857 19.8850583,9.82642857 C20.320932,9.82642857 20.7036505,9.80857143 20.8935922,10.0321429 C20.9977767,10.1557143 21.0289612,10.3378571 20.9892718,10.59 Z" id="Shape" fill="#009EE3"></path>
                <path d="M6.60543689,8.71642857 L4.62097087,8.71642857 C4.48560194,8.71642857 4.37007767,8.81571429 4.34881553,8.95071429 L3.54652427,14.0792857 C3.53093204,14.1807143 3.60818447,14.2721429 3.71024272,14.2721429 L4.65782524,14.2721429 C4.79319417,14.2721429 4.90871845,14.1728571 4.92998058,14.0378571 L5.14685437,12.6542857 C5.1681165,12.5192857 5.28364078,12.42 5.41900971,12.42 L6.04695146,12.42 C7.35386408,12.42 8.1086699,11.7821429 8.30569903,10.5185714 C8.39429126,9.96571429 8.30924272,9.53142857 8.05267961,9.22785714 C7.76918447,8.89357143 7.26952427,8.71642857 6.60543689,8.71642857 Z M6.83435922,10.59 C6.72592233,11.3078571 6.18161165,11.3078571 5.65572816,11.3078571 L5.35593204,11.3078571 L5.56571845,9.96714286 C5.57847573,9.88642857 5.64793204,9.82642857 5.72943689,9.82642857 L5.86693204,9.82642857 C6.22484466,9.82642857 6.56362136,9.82642857 6.73797087,10.0321429 C6.84215534,10.1557143 6.87404854,10.3378571 6.83435922,10.59 Z" id="Shape" fill="#113984"></path>
                <path d="M12.5375728,10.5671429 L11.5871553,10.5671429 C11.5056505,10.5671429 11.4361942,10.6271429 11.4234369,10.7078571 L11.3816214,10.9757143 C11.2894854,10.8407143 11.1059223,10.4771429 10.1923592,10.4771429 C9.14271845,10.4771429 8.24545631,11.2792857 8.0711068,12.4035714 C7.98038835,12.9642857 8.10937864,13.5007143 8.42476699,13.875 C8.71464078,14.2185714 9.12854369,14.3621429 9.62182524,14.3621429 C10.4680583,14.3621429 10.9372427,13.8142857 10.9372427,13.8142857 L10.8947184,14.0807143 C10.8791262,14.1821429 10.9563786,14.2735714 11.0584369,14.2735714 L11.9145922,14.2735714 C12.0499612,14.2735714 12.1654854,14.1742857 12.1867476,14.0392857 L12.7005825,10.7607143 C12.7161748,10.6585714 12.6389223,10.5671429 12.5375728,10.5671429 Z M11.2129417,12.4314286 C11.1215146,12.9785714 10.6898932,13.3457143 10.1406214,13.3457143 C9.86492233,13.3457143 9.64450485,13.2564286 9.50275728,13.0871429 C9.36242718,12.9192857 9.30927184,12.6807143 9.35392233,12.4142857 C9.43967961,11.8721429 9.87767961,11.4928571 10.4191553,11.4928571 C10.6891845,11.4928571 10.9081845,11.5828571 11.052767,11.7535714 C11.1973495,11.9257143 11.2547573,12.1664286 11.2129417,12.4314286 Z" id="Shape" fill="#113984"></path>
                <path d="M26.6924854,10.5671429 L25.742068,10.5671429 C25.6605631,10.5671429 25.5911068,10.6271429 25.5783495,10.7078571 L25.536534,10.9757143 C25.4443981,10.8407143 25.260835,10.4771429 24.3472718,10.4771429 C23.2976311,10.4771429 22.4003689,11.2792857 22.2260194,12.4035714 C22.135301,12.9642857 22.2642913,13.5007143 22.5796796,13.875 C22.8695534,14.2185714 23.2834563,14.3621429 23.7767379,14.3621429 C24.6229709,14.3621429 25.0921553,13.8142857 25.0921553,13.8142857 L25.0496311,14.0807143 C25.0340388,14.1821429 25.1112913,14.2735714 25.2133495,14.2735714 L26.0695049,14.2735714 C26.2048738,14.2735714 26.3203981,14.1742857 26.3416602,14.0392857 L26.8554951,10.7607143 C26.8717961,10.6585714 26.793835,10.5671429 26.6924854,10.5671429 Z M25.3678544,12.4314286 C25.2757184,12.9785714 24.8448058,13.3457143 24.295534,13.3457143 C24.019835,13.3457143 23.7994175,13.2564286 23.6576699,13.0871429 C23.5173398,12.9192857 23.4641845,12.6807143 23.508835,12.4142857 C23.5945922,11.8721429 24.0325922,11.4928571 24.574068,11.4928571 C24.8440971,11.4928571 25.0630971,11.5828571 25.2076796,11.7535714 C25.3522621,11.9257143 25.4096699,12.1664286 25.3678544,12.4314286 Z" id="Shape" fill="#009EE3"></path>
                <path d="M17.5986699,10.5671429 L16.6432913,10.5671429 C16.5518641,10.5671429 16.4668155,10.6128571 16.4150777,10.6892857 L15.097534,12.645 L14.5390485,10.7657143 C14.5043204,10.6478571 14.3965922,10.5671429 14.2746893,10.5671429 L13.3356117,10.5671429 C13.2222136,10.5671429 13.1421262,10.6792857 13.1789806,10.7878571 L14.2307476,13.8992857 L13.2413495,15.3064286 C13.1633883,15.4171429 13.2420583,15.5692857 13.3760097,15.5692857 L14.3299709,15.5692857 C14.4206893,15.5692857 14.5050291,15.5242857 14.556767,15.45 L17.7333301,10.8292857 C17.8105825,10.7178571 17.7319126,10.5671429 17.5986699,10.5671429 Z" id="Shape" fill="#113984"></path>
                <path d="M27.8122913,8.85785714 L26.9979515,14.0807143 C26.9823592,14.1821429 27.0596117,14.2735714 27.1616699,14.2735714 L27.9809709,14.2735714 C28.1163398,14.2735714 28.2318641,14.1742857 28.2531262,14.0392857 L29.0561262,8.91071429 C29.0717184,8.80928571 28.994466,8.71785714 28.8924078,8.71785714 L27.975301,8.71785714 C27.8945049,8.71642857 27.8250485,8.77642857 27.8122913,8.85785714 Z" id="Shape" fill="#009EE3"></path>
            </g>
            <g id="visa" transform="translate(75.991803, 0.278705)">
                <rect id="Rectangle-path" fill="#E6E6E6" x="0" y="5" width="32.6019417" height="13.5714286"></rect>
                <path d="M2.12621359,24.2857143 L30.4757282,24.2857143 C31.6501068,24.2857143 32.6019417,23.3264286 32.6019417,22.1428571 L32.6019417,18.5714286 L0,18.5714286 L0,22.1428571 C0,23.3264286 0.951834951,24.2857143 2.12621359,24.2857143 Z" id="Shape" fill="#E79800"></path>
                <path d="M30.4757282,0 L2.12621359,0 C0.951834951,0 0,0.959285714 0,2.14285714 L0,5.71428571 L32.6019417,5.71428571 L32.6019417,2.14285714 C32.6019417,0.959285714 31.6501068,0 30.4757282,0 Z" id="Shape" fill="#1A1876"></path>
                <polygon id="Shape" fill="#1A1876" points="12.9259612 15.5714286 14.7750583 15.5714286 15.9324272 8.73142857 14.0826214 8.73142857"></polygon>
                <path d="M19.6625146,11.4778571 C19.0161456,11.1614286 18.6199612,10.95 18.6242136,10.63 C18.6242136,10.3457143 18.9594466,10.0414286 19.6837767,10.0414286 C20.2762816,10.0321429 20.7539709,10.1535714 21.2344951,10.3821429 L21.4853883,8.89928571 C21.1189709,8.76071429 20.5448932,8.61214286 19.8276505,8.61214286 C17.9998155,8.61214286 16.7120388,9.54 16.7014078,10.8692857 C16.6907767,11.8521429 17.6206408,12.4007143 18.3222913,12.7278571 C19.0423689,13.0628571 19.2847573,13.2771429 19.2812136,13.5764286 C19.2769612,14.035 18.7064272,14.2442857 18.174165,14.2442857 C17.3534466,14.2442857 16.9395437,14.1164286 16.1946602,13.7764286 L15.9352621,15.3078571 C16.3675922,15.4985714 17.1663398,15.6642857 17.9962718,15.6728571 C19.9410485,15.6728571 21.2033107,14.7557143 21.2174854,13.3357143 C21.2224466,12.5578571 20.7298738,11.9657143 19.6625146,11.4778571 Z" id="Shape" fill="#1A1876"></path>
                <path d="M26.2282621,8.73785714 L24.7987379,8.73785714 C24.3557767,8.73785714 24.0247961,8.86 23.8298932,9.305 L21.0828252,15.5735714 L23.0254757,15.5735714 C23.0254757,15.5735714 23.3429903,14.7307143 23.4152816,14.5457143 C23.6279029,14.5457143 25.5145631,14.5485714 25.7845922,14.5485714 C25.8398738,14.7878571 26.0099709,15.5735714 26.0099709,15.5735714 L27.726534,15.5735714 L26.2282621,8.73785714 Z M23.9475437,13.1471429 C24.0240874,12.95 24.7788932,10.9964286 24.9298544,10.5821429 C25.1800388,11.7614286 24.936233,10.6171429 25.4833786,13.1471429 L23.9475437,13.1471429 Z" id="Shape" fill="#1A1876"></path>
                <path d="M11.374534,8.73642857 L9.563,13.4007143 L9.3702233,12.4528571 L8.72172816,9.30928571 C8.60974757,8.87642857 8.28514563,8.74714286 7.88329126,8.73214286 L4.89950485,8.73214286 L4.8761165,8.87428571 C5.60186408,9.05142857 6.25035922,9.30714286 6.81947573,9.62428571 L8.46445631,15.565 L10.4219903,15.5628571 L13.3341942,8.73571429 L11.374534,8.73571429 L11.374534,8.73642857 Z" id="Shape" fill="#1A1876"></path>
            </g>
        </g>
    </g>
</svg>