<?xml version="1.0" encoding="UTF-8"?>
<svg width="15px" height="15px" viewBox="0 0 15 15" version="1.1" xmlns="http://www.w3.org/2000/svg" xmlns:xlink="http://www.w3.org/1999/xlink">
    <!-- Generator: sketchtool 48.2 (47327) - http://www.bohemiancoding.com/sketch -->
    <title>0B2FCEC2-FEE1-409B-982B-10E63E2CC1A0</title>
    <desc>Created with sketchtool.</desc>
    <defs></defs>
    <g id="KULT-PRODUCT-COMPARE" stroke="none" stroke-width="1" fill="none" fill-rule="evenodd" transform="translate(-259.000000, -617.000000)">
        <g id="infos" transform="translate(259.000000, 617.000000)" fill="#D6D6D6" fill-rule="nonzero">
            <path d="M7.209375,0 C3.228125,0 0,3.2275 0,7.209375 C0,11.190625 3.228125,14.41875 7.209375,14.41875 C11.19125,14.41875 14.419375,11.190625 14.419375,7.209375 C14.419375,3.2275 11.19125,0 7.209375,0 Z M8.829375,10.21375 C8.08625,10.87625 7.215,11.3525 6.709375,11.48 C6.1675,11.616875 5.7325,11.57375 5.69,10.95 C5.6475,10.32625 6.375,7.6575 6.42125,7.375625 C6.460625,7.1375 5.93875,7.384375 5.506875,7.61375 C5.38125,7.68 5.22375,7.624375 5.1625,7.49625 C5.111875,7.389375 5.1425,7.260625 5.2375,7.189375 C5.984375,6.629375 6.915625,6.099375 7.705625,5.889375 C8.159375,5.768125 8.420625,5.91625 8.43625,6.470625 C8.451875,7.025625 7.7025,9.56125 7.644375,9.903125 C7.559375,10.404375 8.1275,10.091875 8.539375,9.831875 C8.645625,9.764375 8.785625,9.79 8.86,9.891875 C8.931875,9.990625 8.920625,10.1325 8.829375,10.21375 Z M7.80875,4.735 C7.3075,4.735 6.9425,4.43125 6.9425,3.901875 C6.9425,3.373125 7.38,2.774375 8.1025,2.774375 C8.35625,2.774375 8.98375,2.938125 8.98375,3.63375 C8.98375,4.329375 8.31,4.735 7.80875,4.735 Z" id="infocircle"></path>
        </g>
    </g>
</svg>