<?xml version="1.0" encoding="UTF-8"?>
<svg width="60px" height="11px" viewBox="0 0 60 11" version="1.1" xmlns="http://www.w3.org/2000/svg" xmlns:xlink="http://www.w3.org/1999/xlink">
    <!-- Generator: sketchtool 48.2 (47327) - http://www.bohemiancoding.com/sketch -->
    <title>1A0A658B-DB81-4AED-A697-0A3424DAE42C</title>
    <desc>Created with sketchtool.</desc>
    <defs></defs>
    <g id="KULT-PRODUCT-COMPARE" stroke="none" stroke-width="1" fill="none" fill-rule="evenodd" transform="translate(-165.000000, -707.000000)">
        <g id="l-oreal-3" transform="translate(165.000000, 707.000000)" fill="#000000" fill-rule="nonzero">
            <path d="M8.74761197,9.01323574 L8.74761197,10.2760224 L0.895618943,10.2760224 L0.895618943,1.59162291 L2.30920523,1.59162291 L2.30920523,9.01323574 L8.74761197,9.01323574 Z M7.648472,4.74970193 L9.21849138,1.74927258 L7.72684656,1.74927258 L6.549016,4.74970193 L7.648472,4.74970193 Z M20.4857822,3.01714469 C19.9766636,2.21141498 19.2330534,1.53409349 18.3573441,1.07258677 C17.4816348,0.610762211 16.4738265,0.364752432 15.4663342,0.364752432 C14.4588419,0.364752432 13.4507175,0.610762211 12.5753243,1.07258677 C11.699615,1.53409349 10.9556887,2.21141498 10.4465701,3.01714469 C9.93745154,3.82255655 9.66250853,4.75669445 9.66250853,5.69083236 C9.66250853,6.62465243 9.93745154,7.55879033 10.4465701,8.36420219 C10.9556887,9.16993189 11.699299,9.84725339 12.5753243,10.3087601 C13.4510335,10.7705847 14.4588419,11.0165944 15.4663342,11.0165944 C16.4738265,11.0165944 17.4816348,10.7709025 18.3573441,10.3087601 C19.2330534,9.84725339 19.9766636,9.16993189 20.4857822,8.36420219 C20.9952168,7.55879033 21.2698438,6.62433458 21.2698438,5.69083236 C21.2698438,4.7570123 20.9952168,3.82287439 20.4857822,3.01714469 Z M19.264024,7.8175138 C18.8841602,8.44938387 18.3282697,8.98240506 17.6721988,9.34633426 C17.0161279,9.70994561 16.2601926,9.90382928 15.5039413,9.90382928 C14.74769,9.90382928 13.9917548,9.70994561 13.3356839,9.34633426 C12.679929,8.98240506 12.1240385,8.44970172 11.7438587,7.8175138 C11.3636789,7.18532587 11.1595258,6.45428906 11.1595258,5.72325225 C11.1595258,4.9918976 11.3636789,4.26086079 11.7438587,3.62899071 C12.1240385,2.99712063 12.679613,2.46409945 13.3356839,2.10048809 C13.9917548,1.7365589 14.7480061,1.54267522 15.5039413,1.54267522 C16.2598766,1.54267522 17.0161279,1.7365589 17.6721988,2.10048809 C18.3282697,2.46409945 18.8838441,2.99680279 19.264024,3.62899071 C19.6442914,4.26076878 19.8463989,4.98473482 19.8486729,5.72325225 C19.8462876,6.46175409 19.6441883,7.18569078 19.264024,7.8175138 Z M31.1267086,5.33675627 C30.8710432,5.90251519 30.3875227,6.22957471 30.0092391,6.42727249 C29.6309554,6.62528811 29.3582246,6.693942 29.0835976,6.6840889 L31.8317636,10.2763402 L30.2614282,10.2763402 L27.6036458,6.802644 L24.1368357,6.802644 L24.1368357,10.2763402 L22.7235654,10.2763402 L22.7235654,1.59162291 L28.3766465,1.59162291 C28.9480223,1.59162291 29.5276148,1.70477469 30.0389456,1.99401099 C30.5502764,2.2832473 30.9927134,2.72282291 31.2006588,3.34483988 C31.4082881,3.96653901 31.3817419,4.77099735 31.1267086,5.33675627 Z M29.5456283,5.2773198 C29.8433252,5.02431749 30.019668,4.6082622 30.0041827,4.19570316 C29.9890134,3.78282628 29.7820161,3.37408136 29.4865313,3.12457531 C29.1907306,2.87538711 28.812763,2.85472738 28.4553371,2.85472738 L24.1368357,2.85472738 L24.1368357,5.53922168 L28.4553371,5.53922168 C28.837097,5.53922168 29.2479314,5.53063995 29.5456283,5.2773198 Z M39.2909357,5.30242932 L39.2909357,6.48639112 L34.501239,6.48639112 L34.501239,9.01323574 L40.9396457,9.01323574 L40.9396457,10.2760224 L33.0876527,10.2760224 L33.0876527,1.59162291 L40.9396457,1.59162291 L40.9396457,2.85472738 L34.501239,2.85472738 L34.501239,5.30242932 L39.2909357,5.30242932 Z M39.3693103,0.249057911 L37.2490889,0.249057911 L36.3857046,1.35451271 L39.3693103,0.249057911 Z M43.7080374,8.06543063 L42.5883557,10.2760224 L41.1754014,10.2760224 L45.5719613,1.59130506 L46.9855476,1.59130506 L51.3827395,10.2760224 L49.9691533,10.2760224 L48.8501036,8.06543063 L43.7080374,8.06543063 Z M46.2785965,2.98726753 L44.2670881,6.96029367 L48.2901048,6.96029367 L46.2785965,2.98726753 Z M59.9407357,9.01323574 L59.9407357,10.2760224 L52.0893747,10.2760224 L52.0893747,1.59162291 L53.5023289,1.59162291 L53.5023289,9.01323574 L59.9407357,9.01323574 Z M59.3289085,3.33435109 L59.3165834,3.12711805 C59.3146873,3.088977 59.3178475,3.05083595 59.3023622,3.00760942 C59.2868123,2.96311185 59.2631244,2.92193194 59.2325204,2.88619374 C59.2108091,2.85928446 59.1797447,2.84167486 59.1456131,2.83692822 C59.2066298,2.81554696 59.2582098,2.77323561 59.2913013,2.71741959 C59.3282764,2.65798312 59.3510303,2.57947613 59.3500822,2.49524797 C59.3491342,2.41101982 59.323536,2.32075266 59.2789763,2.25400582 C59.1825882,2.11193041 59.012882,2.08777441 58.8643496,2.09476694 L58.2389333,2.09476694 L58.2389333,3.54571608 L58.4816416,3.54571608 L58.4816416,2.94976216 L58.8444399,2.94976216 C58.8839432,2.94976216 58.9499928,2.94435885 59.0160423,2.99616711 C59.1035816,3.10010147 59.0647104,3.23677357 59.0801956,3.35278593 C59.0814598,3.42207551 59.0880963,3.48755098 59.1165387,3.54571608 L59.3892695,3.54571608 L59.3892695,3.50090035 C59.3396534,3.48024061 59.335229,3.40777262 59.3289085,3.33435109 Z M59.0289994,2.69517065 C58.9537851,2.74348265 58.8760426,2.74380049 58.8223181,2.74284696 L58.4797454,2.74284696 L58.4797454,2.30104645 C58.6292259,2.30295351 58.7796545,2.29468961 58.9278709,2.30676761 C58.9973466,2.31430578 59.0579209,2.35764969 59.0877803,2.42119076 C59.1190669,2.51717908 59.120331,2.62015991 59.0289994,2.69517065 Z" id="Shape"></path>
            <path d="M59.8566726,2.20315109 C59.7504877,2.01816699 59.5950027,1.86178868 59.4110753,1.75499374 C59.2271479,1.6481988 59.0147782,1.59098722 58.8024084,1.59098722 C58.5900386,1.59098722 58.3776689,1.6481988 58.1937415,1.75499374 C58.0098141,1.86178868 57.8543291,2.01816699 57.7481442,2.20315109 C57.6419593,2.38813519 57.5844425,2.60172507 57.5844425,2.81531496 C57.5844425,3.02890484 57.6419593,3.24249473 57.7481442,3.42716098 C57.8543291,3.61182724 58.0098141,3.76852339 58.1937415,3.87531833 C58.3776689,3.98211328 58.5900386,4.03932485 58.8024084,4.03932485 C59.0147782,4.03932485 59.2271479,3.98211328 59.4110753,3.87531833 C59.5950027,3.76852339 59.7504877,3.61214508 59.8566726,3.42716098 C59.9628575,3.24217689 60.0203743,3.02890484 60.0203743,2.81531496 C60.0203743,2.60172507 59.9628575,2.38813519 59.8566726,2.20315109 Z M59.7109844,3.34770046 C59.6196499,3.50536138 59.4890573,3.63637561 59.3320687,3.7278396 C59.1746232,3.81877055 58.9962912,3.86675966 58.8147334,3.86705444 C58.4453442,3.86680055 58.1039649,3.66898015 57.9184824,3.34770046 C57.7341253,3.02628801 57.7341253,2.63040496 57.9184824,2.30899251 C58.2045755,1.81157705 58.83732,1.64142052 59.3320687,1.92885336 C59.4881858,2.01943836 59.6202848,2.15197851 59.7109844,2.30899251 C59.8013456,2.46701675 59.8490629,2.64605339 59.849404,2.82834648 C59.849404,3.00951648 59.801368,3.19068647 59.7109844,3.34770046 Z" id="Shape"></path>
        </g>
    </g>
</svg>