<?xml version="1.0" encoding="UTF-8"?>
<svg width="71px" height="23px" viewBox="0 0 71 23" version="1.1" xmlns="http://www.w3.org/2000/svg" xmlns:xlink="http://www.w3.org/1999/xlink">
    <!-- Generator: sketchtool 48.2 (47327) - http://www.bohemiancoding.com/sketch -->
    <title>D57927DA-6E43-4F92-8D07-004619A5D85C</title>
    <desc>Created with sketchtool.</desc>
    <defs></defs>
    <g id="KULT-HOMEPAGE-2" stroke="none" stroke-width="1" fill="none" fill-rule="evenodd" transform="translate(-153.000000, -6450.000000)">
        <g id="Logo_white" transform="translate(153.000000, 6450.000000)" fill="#FFFFFF">
            <path d="M0.19,1 L4.09,1 L4.09,8.8 L11.26,1 L16.06,1 L7.54,10.39 L16.66,22 L11.71,22 L4.09,11.98 L4.09,22 L0.19,22 L0.19,1 Z M34.13,22 L30.41,22 L30.41,19.57 C29.3,21.16 27.68,22.24 25.73,22.24 C23.03,22.24 21.08,20.71 21.08,17.68 L21.08,6.88 L24.8,6.88 L24.8,16.57 C24.8,18.37 25.7,19.06 26.96,19.06 C28.76,19.06 30.41,16.9 30.41,12.91 L30.41,6.88 L34.13,6.88 L34.13,22 Z M40.62,0.76 L44.34,0.76 L44.34,22 L40.62,22 L40.62,0.76 Z M59.29,18.7 L60.16,21.7 C59.32,22.09 58.51,22.24 57.7,22.24 C54.28,22.24 52.15,20.41 52.15,16.66 L52.15,10.06 L49.81,10.06 L49.81,6.88 L52.15,6.88 L52.15,3.1 L55.87,0.76 L55.87,6.88 L59.86,6.88 L59.86,10.06 L55.87,10.06 L55.87,16.6 C55.87,18.46 56.59,19.06 57.85,19.06 C58.36,19.06 58.78,18.97 59.29,18.7 Z M65.57,19.66 C65.57,18.22 66.65,17.14 68.09,17.14 C69.53,17.14 70.61,18.22 70.61,19.66 C70.61,21.1 69.53,22.18 68.09,22.18 C66.65,22.18 65.57,21.1 65.57,19.66 Z" id="Kult."></path>
        </g>
    </g>
</svg>