<?xml version="1.0" encoding="UTF-8"?>
<svg width="105px" height="15px" viewBox="0 0 105 15" version="1.1" xmlns="http://www.w3.org/2000/svg" xmlns:xlink="http://www.w3.org/1999/xlink">
    <!-- Generator: sketchtool 48.2 (47327) - http://www.bohemiancoding.com/sketch -->
    <title>A95200E8-E3F8-4E16-B120-C7AB82E1233B</title>
    <desc>Created with sketchtool.</desc>
    <defs></defs>
    <g id="KULT-PRODUCT-COMPARE" stroke="none" stroke-width="1" fill="none" fill-rule="evenodd" transform="translate(-149.000000, -398.000000)">
        <g id="Rate-2" transform="translate(149.000000, 398.000000)">
            <polygon id="Star-2-Copy-5" fill="#000000" points="96.7105263 12.4342105 91.8380959 14.9957988 92.7686473 9.57026781 88.8267684 5.72788544 94.2743111 4.93631114 96.7105263 0 99.1467415 4.93631114 104.594284 5.72788544 100.652405 9.57026781 101.582957 14.9957988"></polygon>
            <polygon id="Star-2-Copy-4" fill="#000000" points="74.6052632 12.4342105 69.7328328 14.9957988 70.6633842 9.57026781 66.7215052 5.72788544 72.169048 4.93631114 74.6052632 0 77.0414783 4.93631114 82.4890211 5.72788544 78.5471421 9.57026781 79.4776935 14.9957988"></polygon>
            <polygon id="Star-2-Copy-3" fill="#ECA8B5" points="52.5 12.4342105 47.6275696 14.9957988 48.558121 9.57026781 44.616242 5.72788544 50.0637848 4.93631114 52.5 0 54.9362152 4.93631114 60.383758 5.72788544 56.441879 9.57026781 57.3724304 14.9957988"></polygon>
            <polygon id="Star-2-Copy" fill="#ECA8B5" points="30.3947368 12.4342105 25.5223065 14.9957988 26.4528579 9.57026781 22.5109789 5.72788544 27.9585217 4.93631114 30.3947368 0 32.830952 4.93631114 38.2784948 5.72788544 34.3366158 9.57026781 35.2671672 14.9957988"></polygon>
            <polygon id="Star-2" fill="#ECA8B5" points="8.28947368 12.4342105 3.4170433 14.9957988 4.3475947 9.57026781 0.40571572 5.72788544 5.85325849 4.93631114 8.28947368 0 10.7256889 4.93631114 16.1732316 5.72788544 12.2313527 9.57026781 13.1619041 14.9957988"></polygon>
        </g>
    </g>
</svg>