<?xml version="1.0" encoding="UTF-8"?>
<svg width="7px" height="11px" viewBox="0 0 7 11" version="1.1" xmlns="http://www.w3.org/2000/svg" xmlns:xlink="http://www.w3.org/1999/xlink">
    <!-- Generator: sketchtool 48.2 (47327) - http://www.bohemiancoding.com/sketch -->
    <title>F87342A1-E650-4CA7-B585-A55CAE2FF2E1</title>
    <desc>Created with sketchtool.</desc>
    <defs></defs>
    <g id="KULT-HOMEPAGE-2" stroke="none" stroke-width="1" fill="none" fill-rule="evenodd" transform="translate(-399.000000, -1611.000000)">
        <g id="Group-9" transform="translate(223.000000, 1245.000000)" fill="#000000" fill-rule="nonzero">
            <g id="Rupee-2" transform="translate(176.000000, 366.000000)">
                <path d="M4.64886644,0.985767134 L6.33023197,0.985767134 L6.97415919,0.0179093567 L0.661836581,0.0179093567 L0.0179093567,0.985767134 L1.11361828,0.985767134 C2.22354655,0.985767134 3.24791289,1.07149297 3.65756928,1.99968411 L0.661836581,1.99968411 L0.0179093567,2.96758286 L3.7784132,2.96758286 C3.77833125,2.96975469 3.77833125,2.97176261 3.77833125,2.97393444 C3.77833125,3.66949386 3.20029654,4.7363953 1.29158544,4.7363953 L0.368065786,4.73532987 L0.369090234,5.63963088 L4.0677174,10.2623924 L5.71482538,10.2623924 L1.88666697,5.4798989 C3.46251432,5.39491067 4.9404654,4.51433588 5.15350967,2.96758286 L6.33023197,2.96758286 L6.97415919,1.99968411 L5.13670872,1.99968411 C5.06253866,1.62674395 4.90141343,1.26601521 4.64886644,0.985767134 Z" id="Shape"></path>
            </g>
        </g>
    </g>
</svg>