<?xml version="1.0" encoding="UTF-8"?>
<svg width="24px" height="24px" viewBox="0 0 24 24" version="1.1" xmlns="http://www.w3.org/2000/svg" xmlns:xlink="http://www.w3.org/1999/xlink">
    <!-- Generator: sketchtool 48.2 (47327) - http://www.bohemiancoding.com/sketch -->
    <title>C5B23082-7E56-4F0D-8303-1ED833E359AD</title>
    <desc>Created with sketchtool.</desc>
    <defs></defs>
    <g id="KULT-MY-ORDER" stroke="none" stroke-width="1" fill="none" fill-rule="evenodd" transform="translate(-708.000000, -736.000000)">
        <g id="Sad" transform="translate(709.000000, 737.000000)">
            <path d="M11,22 C17.0751325,22 22,17.0751325 22,11 C22,4.92486746 17.0751325,0 11,0 C4.92486746,0 0,4.92486746 0,11 C0,17.0751325 4.92486746,22 11,22 Z" id="sad-face" stroke="#000000" stroke-width="0.7" fill="#F5E3E7" fill-rule="nonzero"></path>
            <path d="M7.04,8.8 C7.52601062,8.8 7.92,8.40601062 7.92,7.92 C7.92,7.43398938 7.52601062,7.04 7.04,7.04 C6.55398938,7.04 6.16,7.43398938 6.16,7.92 C6.16,8.40601062 6.55398938,8.8 7.04,8.8 Z" id="sad-face-path" fill="#000000"></path>
            <path d="M14.96,8.8 C15.4460106,8.8 15.84,8.40601062 15.84,7.92 C15.84,7.43398938 15.4460106,7.04 14.96,7.04 C14.4739894,7.04 14.08,7.43398938 14.08,7.92 C14.08,8.40601062 14.4739894,8.8 14.96,8.8 Z" id="sad-face-path" fill="#000000"></path>
            <path d="M10.9973144,15.84 C8.36,15.84 7.04,16.72 7.04,16.72 C7.04,16.72 7.92,14.08 11,14.08 C14.08,14.08 14.96,16.72 14.96,16.72 C14.96,16.72 13.6346289,15.84 10.9973144,15.84 Z" id="sad-face-path" fill="#000000"></path>
        </g>
    </g>
</svg>