<?xml version="1.0" encoding="UTF-8"?>
<svg width="13px" height="13px" viewBox="0 0 13 13" version="1.1" xmlns="http://www.w3.org/2000/svg" xmlns:xlink="http://www.w3.org/1999/xlink">
    <!-- Generator: sketchtool 48.2 (47327) - http://www.bohemiancoding.com/sketch -->
    <title>74DDFF33-34A0-4DE7-A48B-931AA949EDE8</title>
    <desc>Created with sketchtool.</desc>
    <defs></defs>
    <g id="KULT-HOMEPAGE-2" stroke="none" stroke-width="1" fill="none" fill-rule="evenodd" transform="translate(-550.000000, -96.000000)">
        <g id="search" transform="translate(550.000000, 96.000000)" fill="#1A1A1A" fill-rule="nonzero">
            <path d="M12.3292641,11.6459498 L11.6468817,12.3476558 L9.66706093,10.3193907 C8.69229391,11.1455197 7.43329749,11.6459498 6.05548387,11.6459498 C2.96716846,11.6459498 0.464086022,9.14286738 0.464086022,6.05501792 C0.464086022,2.96716846 2.96716846,0.463620072 6.05548387,0.463620072 C9.14333333,0.463620072 11.6468817,2.96716846 11.6468817,6.05501792 C11.6468817,7.43283154 11.1464516,8.69182796 10.3198566,9.66659498 L12.3292641,11.6459498 Z M6.05548387,1.39551971 C3.48250896,1.39551971 1.39598566,3.48204301 1.39598566,6.05501792 C1.39598566,8.62799283 3.48250896,10.7145161 6.05548387,10.7145161 C8.62845878,10.7145161 10.7149821,8.62799283 10.7149821,6.05501792 C10.7149821,3.48204301 8.62892473,1.39551971 6.05548387,1.39551971 Z" id="Shape"></path>
        </g>
    </g>
</svg>