<?xml version="1.0" encoding="UTF-8"?>
<svg width="12px" height="11px" viewBox="0 0 12 11" version="1.1" xmlns="http://www.w3.org/2000/svg" xmlns:xlink="http://www.w3.org/1999/xlink">
    <!-- Generator: sketchtool 48.2 (47327) - http://www.bohemiancoding.com/sketch -->
    <title>FC121DA8-AF2D-4E9C-9154-0E23AB080E0B</title>
    <desc>Created with sketchtool.</desc>
    <defs></defs>
    <g id="KULT-HOMEPAGE-2" stroke="none" stroke-width="1" fill="none" fill-rule="evenodd" transform="translate(-1170.000000, -42.000000)">
        <g id="thin-0708-user-profile" transform="translate(1170.000000, 42.000000)" fill="#000000">
            <path d="M11.065341,8.82313874 C9.28341638,8.15174149 7.30517638,7.31805966 7.13893181,6.79845486 L7.13893181,6.25345326 C7.50863238,5.8847584 7.80018895,5.37054674 7.97266895,4.76847589 C8.38420724,4.48675771 8.49232152,3.90194491 8.14716038,3.48804571 L8.14716038,2.2681168 C8.14716038,1.00867086 7.42787352,0.146552457 5.7834301,0.146552457 C4.18142781,0.146552457 3.41879467,1.00867086 3.41879467,2.2681168 L3.41879467,3.488536 C3.07494095,3.90125851 3.18184838,4.4858752 3.5932861,4.76837783 C3.76586667,5.3706448 4.05762438,5.88485646 4.42742552,6.25355131 L4.42742552,6.79855291 C4.26168381,7.31747131 2.28294095,8.15134926 0.501016381,8.8232368 C0.349153524,8.88069829 0.248582095,9.02474423 0.248582095,9.18575406 L0.248582095,10.5487483 C0.248582095,10.7628071 0.42417981,10.9367605 0.640609524,10.9367605 L10.9254461,10.9367605 C11.1419764,10.9367605 11.3175741,10.7628071 11.3175741,10.5487483 L11.3175741,9.18575406 C11.3177752,9.02464617 11.2172038,8.880208 11.065341,8.82313874 Z" id="Shape"></path>
        </g>
    </g>
</svg>