<?xml version="1.0" encoding="UTF-8"?>
<svg width="20px" height="18px" viewBox="0 0 20 18" version="1.1" xmlns="http://www.w3.org/2000/svg" xmlns:xlink="http://www.w3.org/1999/xlink">
    <!-- Generator: sketchtool 48.2 (47327) - http://www.bohemiancoding.com/sketch -->
    <title>AA4F0606-5D10-44E2-9748-39D055632D94</title>
    <desc>Created with sketchtool.</desc>
    <defs></defs>
    <g id="KULT-HOMEPAGE-2" stroke="none" stroke-width="1" fill="none" fill-rule="evenodd" transform="translate(-403.000000, -1646.000000)">
        <g id="Group-9" transform="translate(223.000000, 1245.000000)">
            <g id="Wishlist-add" transform="translate(181.000000, 401.000000)">
                <path d="M8.79986842,16.3686316 C8.7345,16.4439474 8.63857895,16.4865789 8.53768421,16.4865789 C8.4375,16.4865789 8.34228947,16.4439474 8.27407895,16.3700526 L1.16739474,8.5095 C1.15318421,8.49315789 1.14039474,8.47681579 1.12902632,8.45834211 C0.400026316,7.61494737 0,6.54418421 0,5.43505263 C0,2.87857895 2.079,0.799578947 4.63405263,0.799578947 C6.21639474,0.799578947 7.67936842,1.61526316 8.52631579,2.92334211 C9.37113158,1.61526316 10.8362368,0.799578947 12.4178684,0.799578947 C14.9736316,0.799578947 17.0526316,2.87928947 17.0526316,5.43505263" id="Shape" stroke="#1A1A1A" stroke-width="1.3" stroke-linecap="round" fill-rule="nonzero"></path>
                <path d="M15.0986842,12.375 L18,12.375 L18,13.2039474 L15.0986842,13.2039474 L15.0986842,16.1052632 L14.2697368,16.1052632 L14.2697368,13.2039474 L11.3684211,13.2039474 L11.3684211,12.375 L14.2697368,12.375 L14.2697368,9.47368421 L15.0986842,9.47368421 L15.0986842,12.375 Z" id="Combined-Shape" stroke="#000000" stroke-width="0.3" fill="#000000"></path>
            </g>
        </g>
    </g>
</svg>