<?xml version="1.0" standalone="no"?>
<!DOCTYPE svg PUBLIC "-//W3C//DTD SVG 1.1//EN" "http://www.w3.org/Graphics/SVG/1.1/DTD/svg11.dtd" >
<svg xmlns="http://www.w3.org/2000/svg" xmlns:xlink="http://www.w3.org/1999/xlink" version="1.1">
<metadata>
Created by FontForge 20170731 at Mon Feb 27 14:36:46 2012
 By ,,,
Copyright (c) 2010-2012 by The Entente (AS&#38;EH). All rights reserved.
</metadata>
<defs>
<font id="ApercuPro-Medium" horiz-adv-x="580" >
  <font-face 
    font-family="Apercu Pro"
    font-weight="600"
    font-stretch="normal"
    units-per-em="1000"
    panose-1="2 0 6 6 4 0 0 2 0 4"
    ascent="800"
    descent="-200"
    x-height="504"
    cap-height="700"
    bbox="-80 -312 1201 1104"
    underline-thickness="50"
    underline-position="-200"
    unicode-range="U+000D-FB02"
  />
<missing-glyph horiz-adv-x="645" 
d="M94 0v700h457v-700h-457zM447 606h-249v-512h249v512z" />
    <glyph glyph-name="fi" unicode="fi" horiz-adv-x="561" 
d="M38 412v92h65v13q0 96 61.5 143.5t150.5 47.5q85 0 138 -29l-33 -86q-49 23 -102 23q-52 0 -81.5 -27.5t-29.5 -71.5v-13h274v-504h-104v412h-170v-412h-104v412h-65z" />
    <glyph glyph-name="fl" unicode="fl" horiz-adv-x="605" 
d="M38 412v92h65v26q0 89 45 133.5t124 44.5h253v-708h-104v616h-146q-68 0 -68 -79v-33h111v-92h-111v-412h-104v412h-65z" />
    <glyph glyph-name=".notdef" horiz-adv-x="645" 
d="M94 0v700h457v-700h-457zM447 606h-249v-512h249v512z" />
    <glyph glyph-name=".null" horiz-adv-x="0" 
 />
    <glyph glyph-name="nonmarkingreturn" horiz-adv-x="333" 
 />
    <glyph glyph-name="NULL" horiz-adv-x="0" 
 />
    <glyph glyph-name="NULL" horiz-adv-x="0" 
 />
    <glyph glyph-name="CR" unicode="&#xd;" horiz-adv-x="258" 
 />
    <glyph glyph-name="space" unicode=" " horiz-adv-x="258" 
 />
    <glyph glyph-name="exclam" unicode="!" horiz-adv-x="351" 
d="M107 700h142l-27 -479h-88zM102 71q0 32 21.5 53.5t54.5 21.5t54.5 -21.5t21.5 -53.5t-21.5 -53.5t-54.5 -21.5t-54.5 21.5t-21.5 53.5z" />
    <glyph glyph-name="quotedbl" unicode="&#x22;" horiz-adv-x="469" 
d="M114 469l-30 239h130l-30 -239h-70zM285 469l-30 239h130l-30 -239h-70z" />
    <glyph glyph-name="numbersign" unicode="#" horiz-adv-x="726" 
d="M108 417v82h135l41 201h88l-41 -201h125l41 201h88l-41 -201h114v-82h-131l-27 -134h118v-82h-135l-41 -201h-88l41 201h-125l-41 -201h-88l41 201h-114v82h131l27 134h-118zM314 417l-27 -134h125l27 134h-125z" />
    <glyph glyph-name="dollar" unicode="$" horiz-adv-x="536" 
d="M460 590l-89 -59q-41 77 -104 77q-33 0 -53 -22t-20 -54q0 -38 31 -65.5t75 -48t88 -44t75 -66.5t31 -103q0 -82 -47 -138t-123 -70v-87h-100v87q-70 14 -117 65t-63 125l90 57q38 -148 141 -148q47 0 77 29.5t30 75.5q0 32 -22 56.5t-55 40t-72 35.5t-72 41.5t-55 60
t-22 89.5q0 67 39 116t101 63v87h100v-89q86 -22 136 -111z" />
    <glyph glyph-name="percent" unicode="%" horiz-adv-x="840" 
d="M55 548q0 67 47 113.5t115 46.5t115 -46.5t47 -113.5t-47 -113.5t-115 -46.5t-115 46.5t-47 113.5zM143 548q0 -34 20 -55.5t54 -21.5t54 21.5t20 55.5t-20 55.5t-54 21.5t-54 -21.5t-20 -55.5zM461 152q0 67 47 113.5t115 46.5t115 -46.5t47 -113.5t-47 -113.5
t-115 -46.5t-115 46.5t-47 113.5zM549 152q0 -34 20 -55.5t54 -21.5t54 21.5t20 55.5t-20 55.5t-54 21.5t-54 -21.5t-20 -55.5zM667 733l58 -45l-539 -720l-58 45z" />
    <glyph glyph-name="ampersand" unicode="&#x26;" horiz-adv-x="683" 
d="M144 559q0 62 44.5 105.5t114.5 43.5q73 0 116 -42.5t43 -97.5q0 -113 -123 -177l128 -167q16 26 47 115l63 -71q-19 -66 -52 -120l112 -148h-117l-52 71q-31 -36 -84 -57.5t-104 -21.5q-93 0 -152.5 58t-59.5 153q0 145 129 220q-53 72 -53 136zM412 143l-157 205
q-38 -22 -62.5 -61t-24.5 -89t31.5 -80t79.5 -30q84 0 133 55zM303 616q-28 0 -44.5 -17.5t-16.5 -43.5q0 -47 37 -95q85 40 85 100q0 27 -16.5 41.5t-44.5 14.5z" />
    <glyph glyph-name="quotesingle" unicode="'" horiz-adv-x="298" 
d="M114 469l-30 239h130l-30 -239h-70z" />
    <glyph glyph-name="parenleft" unicode="(" horiz-adv-x="304" 
d="M173 750h104q-55 -84 -80.5 -176.5t-25.5 -223.5t25.5 -223.5t80.5 -176.5h-104q-51 86 -78.5 176t-27.5 224t27.5 224t78.5 176z" />
    <glyph glyph-name="parenright" unicode=")" horiz-adv-x="304" 
d="M27 750h104q51 -86 78.5 -176t27.5 -224t-27.5 -224t-78.5 -176h-104q55 84 80.5 176.5t25.5 223.5t-25.5 223.5t-80.5 176.5z" />
    <glyph glyph-name="asterisk" unicode="*" horiz-adv-x="484" 
d="M286 708v-124l119 39l25 -85l-118 -39l74 -101l-69 -51l-75 100l-75 -100l-69 51l74 101l-118 39l25 85l119 -39v124h88z" />
    <glyph glyph-name="plus" unicode="+" horiz-adv-x="564" 
d="M236 539h92v-176h177v-92h-177v-177h-92v177h-176v92h176v176z" />
    <glyph glyph-name="comma" unicode="," horiz-adv-x="343" 
d="M62 -132l71 260h143l-136 -260h-78z" />
    <glyph glyph-name="hyphen" unicode="-" horiz-adv-x="489" 
d="M68 271v92h353v-92h-353z" />
    <glyph glyph-name="period" unicode="." horiz-adv-x="318" 
d="M159 143q31 0 52.5 -21.5t21.5 -52.5t-21.5 -52.5t-52.5 -21.5t-52.5 21.5t-21.5 52.5t21.5 52.5t52.5 21.5z" />
    <glyph glyph-name="slash" unicode="/" horiz-adv-x="547" 
d="M449 750h103l-436 -800h-103z" />
    <glyph glyph-name="zero" unicode="0" horiz-adv-x="632" 
d="M316 708q122 0 187 -95t65 -263t-65 -263t-187 -95t-187 95t-65 263t65 263t187 95zM316 612q-73 0 -109.5 -68t-36.5 -194t36.5 -194t109.5 -68t109.5 68t36.5 194t-36.5 194t-109.5 68z" />
    <glyph glyph-name="one" unicode="1" horiz-adv-x="396" 
d="M265 700h43v-700h-106v550l-131 -78v112z" />
    <glyph glyph-name="two" unicode="2" horiz-adv-x="575" 
d="M68 0v44l258 331q33 41 44.5 69t11.5 61q0 49 -24.5 78t-71.5 29q-44 0 -71 -29t-33 -78l-100 19q5 79 62.5 131.5t141.5 52.5q90 0 146.5 -53.5t56.5 -145.5q0 -86 -58 -160l-199 -253h270v-96h-434z" />
    <glyph glyph-name="three" unicode="3" 
d="M59 193l103 13q19 -118 126 -118q56 0 90.5 35.5t34.5 99.5q0 66 -34.5 101.5t-90.5 35.5q-30 0 -61 -14l-42 56l145 202h-237v96h390v-36l-170 -232q12 3 29 3q80 0 128.5 -59.5t48.5 -152.5q0 -100 -66.5 -165.5t-164.5 -65.5q-91 0 -157 57t-72 144z" />
    <glyph glyph-name="four" unicode="4" horiz-adv-x="609" 
d="M363 0v140h-302v48l296 512h112v-464h82v-96h-82v-140h-106zM193 236h170v304z" />
    <glyph glyph-name="five" unicode="5" horiz-adv-x="579" 
d="M75 183l103 19q9 -59 39.5 -86.5t75.5 -27.5q56 0 86.5 38t30.5 102t-30 102t-87 38q-80 0 -134 -72l-69 14l39 390h348v-96h-259l-21 -175q42 35 102 35q103 0 160 -65.5t57 -170.5q0 -104 -60.5 -170t-162.5 -66q-89 0 -148.5 50.5t-69.5 140.5z" />
    <glyph glyph-name="six" unicode="6" horiz-adv-x="578" 
d="M303 448q96 0 157 -64t61 -164q0 -97 -63.5 -162.5t-160.5 -65.5t-160.5 65.5t-63.5 162.5q0 67 34 127l208 361h118l-153 -264q8 4 23 4zM297 352q-53 0 -85.5 -35.5t-32.5 -96.5q0 -58 33 -95t85 -37t85 37t33 95q0 61 -32.5 96.5t-85.5 35.5z" />
    <glyph glyph-name="seven" unicode="7" horiz-adv-x="492" 
d="M466 700v-48l-268 -652h-106l249 604h-289v96h414z" />
    <glyph glyph-name="eight" unicode="8" horiz-adv-x="592" 
d="M296 708q86 0 142 -55t56 -134q0 -85 -70 -142q96 -56 96 -171q0 -98 -65 -156t-159 -58t-159 58t-65 156q0 115 96 171q-70 55 -70 142q0 79 56 134t142 55zM296 320q-51 0 -84.5 -30t-33.5 -84t34 -86t84 -32t84 32t34 86t-33.5 84t-84.5 30zM296 616q-41 0 -68 -28
t-27 -70q0 -43 27 -71t68 -28t68 28t27 71q0 42 -27 70t-68 28z" />
    <glyph glyph-name="nine" unicode="9" horiz-adv-x="579" 
d="M292 252q-96 0 -157 64t-61 164q0 97 63.5 162.5t160.5 65.5t160.5 -65.5t63.5 -162.5q0 -67 -34 -127l-208 -361h-118l153 264q-8 -4 -23 -4zM298 348q53 0 85.5 35.5t32.5 96.5q0 58 -33 95t-85 37t-85 -37t-33 -95q0 -61 32.5 -96.5t85.5 -35.5z" />
    <glyph glyph-name="colon" unicode=":" horiz-adv-x="318" 
d="M159 143q31 0 52.5 -21.5t21.5 -52.5t-21.5 -52.5t-52.5 -21.5t-52.5 21.5t-21.5 52.5t21.5 52.5t52.5 21.5zM159 466q31 0 52.5 -21.5t21.5 -52.5t-21.5 -52.5t-52.5 -21.5t-52.5 21.5t-21.5 52.5t21.5 52.5t52.5 21.5z" />
    <glyph glyph-name="semicolon" unicode=";" horiz-adv-x="318" 
d="M159 466q31 0 52.5 -21.5t21.5 -52.5t-21.5 -52.5t-52.5 -21.5t-52.5 21.5t-21.5 52.5t21.5 52.5t52.5 21.5zM32 -132l71 260h143l-136 -260h-78z" />
    <glyph glyph-name="less" unicode="&#x3c;" horiz-adv-x="465" 
d="M48 258v104l364 192v-111l-254 -133l254 -133v-111z" />
    <glyph glyph-name="equal" unicode="=" horiz-adv-x="605" 
d="M95 347v92h415v-92h-415zM95 181v92h415v-92h-415z" />
    <glyph glyph-name="greater" unicode="&#x3e;" horiz-adv-x="465" 
d="M417 362v-104l-364 -192v111l254 133l-254 133v111z" />
    <glyph glyph-name="question" unicode="?" horiz-adv-x="456" 
d="M369 312q-32 -105 -139 -105q-61 0 -98.5 33.5t-37.5 90.5q0 84 85 123l83 38q27 13 38 28.5t11 41.5q0 27 -21 44t-52 17q-75 0 -98 -82l-95 16q12 67 61.5 109t125.5 42q78 0 128.5 -41t50.5 -113q0 -81 -71 -116l-113 -55q-42 -20 -42 -56q0 -19 11.5 -30t31.5 -11
q23 0 36.5 14.5t23.5 42.5zM154 71q0 32 21.5 53.5t54.5 21.5t54.5 -21.5t21.5 -53.5t-21.5 -53.5t-54.5 -21.5t-54.5 21.5t-21.5 53.5z" />
    <glyph glyph-name="at" unicode="@" horiz-adv-x="910" 
d="M585 509h76l-24 -253l-1 -17q0 -39 39 -39q75 0 75 152q0 144 -70.5 209t-205.5 65q-79 0 -145 -34.5t-110 -110.5t-44 -183q0 -97 44 -167t110 -101.5t144 -31.5q46 0 72.5 2t73 14t95.5 37l35 -85q-80 -36 -134 -48t-142 -12q-180 0 -291.5 106.5t-111.5 288.5
q0 190 114.5 303.5t294.5 113.5q179 0 275 -96.5t96 -269.5q0 -117 -48.5 -180.5t-130.5 -63.5q-38 0 -69 18.5t-44 48.5q-44 -67 -130 -67q-83 0 -129 53t-46 134q0 95 59.5 158t153.5 63q75 0 108 -50zM459 424q-49 0 -78.5 -36t-29.5 -96q0 -40 22 -66t62 -26
q58 0 85.5 39t27.5 93q0 45 -24 68.5t-65 23.5z" />
    <glyph glyph-name="A" unicode="A" horiz-adv-x="608" 
d="M252 700h104l243 -700h-112l-58 174h-250l-58 -174h-112zM304 561l-92 -283h184z" />
    <glyph glyph-name="B" unicode="B" horiz-adv-x="623" 
d="M94 700h248q90 0 143 -47.5t53 -135.5q0 -41 -20 -80t-51 -55q50 -21 78.5 -68t28.5 -108q0 -98 -58 -152t-162 -54h-260v700zM332 596h-128v-172h128q96 0 96 86t-96 86zM339 320h-135v-216h135q123 0 123 108t-123 108z" />
    <glyph glyph-name="C" unicode="C" horiz-adv-x="695" 
d="M658 496l-104 -26q-27 69 -68.5 101.5t-110.5 32.5q-93 0 -152.5 -65.5t-59.5 -188.5t59.5 -188.5t152.5 -65.5q69 0 110.5 32.5t68.5 101.5l104 -26q-27 -101 -100 -156.5t-183 -55.5q-135 0 -229.5 94.5t-94.5 263.5t94.5 263.5t229.5 94.5q110 0 183 -55.5t100 -156.5
z" />
    <glyph glyph-name="D" unicode="D" horiz-adv-x="673" 
d="M94 700h206q135 0 228.5 -91t93.5 -259t-93.5 -259t-228.5 -91h-206v700zM268 596h-64v-492h64q49 0 90 12t76.5 39t55.5 76.5t20 118.5t-20 118.5t-55.5 76.5t-76.5 39t-90 12z" />
    <glyph glyph-name="E" unicode="E" horiz-adv-x="568" 
d="M94 700h415v-104h-305v-172h246v-104h-246v-216h315v-104h-425v700z" />
    <glyph glyph-name="F" unicode="F" horiz-adv-x="549" 
d="M94 700h424v-104h-314v-181h253v-104h-253v-311h-110v700z" />
    <glyph glyph-name="G" unicode="G" horiz-adv-x="720" 
d="M561 0l-8 87q-22 -38 -69 -66.5t-115 -28.5q-133 0 -225.5 92t-92.5 266t94 266t230 92q110 0 183.5 -59.5t95.5 -156.5l-101 -31q-50 143 -178 143q-94 0 -153 -65.5t-59 -188.5q0 -126 58.5 -190t153.5 -64q78 0 121.5 45.5t50.5 114.5h-136v97h246v-353h-96z" />
    <glyph glyph-name="H" unicode="H" horiz-adv-x="692" 
d="M94 0v700h110v-274h284v274h110v-700h-110v322h-284v-322h-110z" />
    <glyph glyph-name="I" unicode="I" horiz-adv-x="298" 
d="M94 0v700h110v-700h-110z" />
    <glyph glyph-name="J" unicode="J" horiz-adv-x="512" 
d="M324 222v478h110v-473q0 -120 -60 -177.5t-154 -57.5q-90 0 -146 52.5t-68 131.5l111 23q9 -49 35.5 -76t67.5 -27q51 0 77.5 29t26.5 97z" />
    <glyph glyph-name="K" unicode="K" horiz-adv-x="621" 
d="M94 700h110v-269l250 269h134l-282 -313l305 -387h-141l-266 343v-343h-110v700z" />
    <glyph glyph-name="L" unicode="L" horiz-adv-x="522" 
d="M94 700h110v-596h302v-104h-412v700z" />
    <glyph glyph-name="M" unicode="M" horiz-adv-x="796" 
d="M94 0v700h130l174 -466l174 466h130v-700h-110v472l-155 -408h-78l-155 408v-472h-110z" />
    <glyph glyph-name="N" unicode="N" horiz-adv-x="703" 
d="M499 700h110v-700h-118l-287 502v-502h-110v700h118l287 -504v504z" />
    <glyph glyph-name="O" unicode="O" horiz-adv-x="744" 
d="M372 708q136 0 228.5 -93.5t92.5 -264.5t-92.5 -264.5t-228.5 -93.5t-228.5 93.5t-92.5 264.5t92.5 264.5t228.5 93.5zM372 604q-90 0 -149.5 -65t-59.5 -189t59.5 -189t149.5 -65t149.5 65t59.5 189t-59.5 189t-149.5 65z" />
    <glyph glyph-name="P" unicode="P" horiz-adv-x="589" 
d="M345 286h-141v-286h-110v700h251q102 0 159.5 -58t57.5 -149t-57.5 -149t-159.5 -58zM350 390q47 0 73.5 27t26.5 76t-26.5 76t-73.5 27h-146v-206h146z" />
    <glyph glyph-name="Q" unicode="Q" horiz-adv-x="744" 
d="M372 708q136 0 228.5 -93.5t92.5 -264.5q0 -126 -54 -215l70 -69l-74 -74l-66 65q-83 -65 -197 -65q-136 0 -228.5 93.5t-92.5 264.5t92.5 264.5t228.5 93.5zM407 219l74 74l75 -76q25 56 25 133q0 124 -59.5 189t-149.5 65t-149.5 -65t-59.5 -189t59.5 -189t149.5 -65
q70 0 120 38z" />
    <glyph glyph-name="R" unicode="R" horiz-adv-x="649" 
d="M546 507q0 -72 -35.5 -120t-100.5 -65l202 -322h-130l-197 314h-81v-314h-110v700h245q98 0 152.5 -51.5t54.5 -141.5zM342 418q42 0 67 22t25 67t-25 67t-67 22h-138v-178h138z" />
    <glyph glyph-name="S" unicode="S" horiz-adv-x="530" 
d="M454 590l-89 -59q-41 77 -104 77q-33 0 -53 -22t-20 -54q0 -38 31 -65.5t75 -48t88 -44t75 -66.5t31 -103q0 -95 -61.5 -154t-157.5 -59q-90 0 -151 54t-80 141l90 57q38 -148 141 -148q47 0 77 29.5t30 75.5q0 32 -22 56.5t-55 40t-72 35.5t-72 41.5t-55 60t-22 89.5
q0 79 53 131.5t130 52.5q127 0 193 -118z" />
    <glyph glyph-name="T" unicode="T" horiz-adv-x="524" 
d="M11 596v104h502v-104h-196v-596h-110v596h-196z" />
    <glyph glyph-name="U" unicode="U" horiz-adv-x="654" 
d="M75 252v448h110v-453q0 -72 36 -111.5t106 -39.5t106 39.5t36 111.5v453h110v-448q0 -123 -70.5 -191.5t-181.5 -68.5t-181.5 69t-70.5 191z" />
    <glyph glyph-name="V" unicode="V" horiz-adv-x="598" 
d="M354 0h-110l-239 700h118l176 -546l176 546h118z" />
    <glyph glyph-name="W" unicode="W" horiz-adv-x="912" 
d="M773 700h116l-185 -700h-112l-136 444l-136 -444h-112l-185 700h116l128 -544l139 470h100l139 -470z" />
    <glyph glyph-name="X" unicode="X" 
d="M414 700h123l-185 -324l216 -376h-125l-153 267l-153 -267h-125l216 376l-185 324h123l124 -216z" />
    <glyph glyph-name="Y" unicode="Y" horiz-adv-x="514" 
d="M2 700h117l138 -291l138 291h117l-200 -400v-300h-110v300z" />
    <glyph glyph-name="Z" unicode="Z" horiz-adv-x="558" 
d="M53 596v104h452v-54l-315 -542h328v-104h-480v54l319 542h-304z" />
    <glyph glyph-name="bracketleft" unicode="[" horiz-adv-x="338" 
d="M94 -50v800h208v-94h-108v-612h108v-94h-208z" />
    <glyph glyph-name="backslash" unicode="\" horiz-adv-x="547" 
d="M-5 750h103l436 -800h-103z" />
    <glyph glyph-name="bracketright" unicode="]" horiz-adv-x="338" 
d="M244 750v-800h-208v94h108v612h-108v94h208z" />
    <glyph glyph-name="asciicircum" unicode="^" horiz-adv-x="578" 
d="M245 700h88l191 -287h-103l-132 195l-132 -195h-103z" />
    <glyph glyph-name="underscore" unicode="_" horiz-adv-x="499" 
d="M27 -92v92h445v-92h-445z" />
    <glyph glyph-name="grave" unicode="`" horiz-adv-x="242" 
d="M157 708l68 -148h-80l-129 148h141z" />
    <glyph glyph-name="a" unicode="a" horiz-adv-x="514" 
d="M44 145q0 77 60 121t158 44h87v22q0 45 -27.5 66.5t-70.5 21.5q-69 0 -94 -67l-95 20q16 64 67 101.5t123 37.5q201 0 201 -199v-313h-88l-10 66q-53 -74 -156 -74q-67 0 -111 39t-44 114zM154 145q0 -27 16 -44t47 -17q53 0 92.5 33.5t39.5 94.5v11h-91q-48 0 -76 -21
t-28 -57z" />
    <glyph glyph-name="b" unicode="b" horiz-adv-x="601" 
d="M552 252q0 -123 -57.5 -191.5t-167.5 -68.5q-46 0 -84.5 20.5t-52.5 45.5v-58h-104v708h104v-260q18 25 58 44.5t77 19.5q111 0 169 -70t58 -190zM442 252q0 77 -36 122.5t-93 45.5t-93 -45.5t-36 -122.5t36 -122.5t93 -45.5t93 45.5t36 122.5z" />
    <glyph glyph-name="c" unicode="c" horiz-adv-x="542" 
d="M411 171l93 -40q-61 -139 -218 -139q-114 0 -175.5 74.5t-61.5 185.5t61.5 185.5t175.5 74.5q157 0 218 -139l-93 -40q-39 87 -125 87q-64 0 -95.5 -46t-31.5 -122t31.5 -122t95.5 -46q86 0 125 87z" />
    <glyph glyph-name="d" unicode="d" horiz-adv-x="601" 
d="M49 252q0 120 58 190t169 70q37 0 77 -19.5t58 -44.5v260h104v-708h-104v58q-14 -25 -52.5 -45.5t-84.5 -20.5q-110 0 -167.5 68.5t-57.5 191.5zM159 252q0 -77 36 -122.5t93 -45.5t93 45.5t36 122.5t-36 122.5t-93 45.5t-93 -45.5t-36 -122.5z" />
    <glyph glyph-name="e" unicode="e" horiz-adv-x="559" 
d="M284 420q-50 0 -82 -30.5t-41 -79.5h245q-7 47 -38 78.5t-84 31.5zM516 268v-45h-357q0 -59 33 -99t92 -40q42 0 77.5 22.5t54.5 62.5l89 -35q-38 -74 -88 -108t-133 -34q-60 0 -106.5 23.5t-73.5 62t-41 83t-14 91.5t14 91.5t41 83t73.5 62t106.5 23.5q58 0 104 -22
t73 -58t41 -78t14 -86z" />
    <glyph glyph-name="f" unicode="f" horiz-adv-x="362" 
d="M38 412v92h65v26q0 89 45 133.5t124 44.5q49 0 83 -18l-21 -88q-27 14 -59 14q-68 0 -68 -79v-33h111v-92h-111v-412h-104v412h-65z" />
    <glyph glyph-name="g" unicode="g" horiz-adv-x="511" 
d="M87 343q0 77 51 123t129 46q50 0 92 -22l93 50l42 -75l-68 -38q22 -38 22 -84q0 -78 -51 -123.5t-130 -45.5q-43 0 -81 15q-27 -15 -27 -44q0 -39 52 -39h111q76 0 121.5 -37t45.5 -107q0 -88 -63.5 -131t-157.5 -43q-99 0 -160.5 43t-61.5 123q0 62 43 102
q-29 29 -29 79q0 67 61 102q-34 42 -34 106zM300 18h-81q-27 0 -51 3q-22 -23 -22 -61t32.5 -60t89.5 -22q54 0 84.5 20t30.5 56q0 64 -83 64zM188 343q0 -37 22 -59.5t57 -22.5q36 0 58 22.5t22 59.5t-22 59.5t-58 22.5q-35 0 -57 -22.5t-22 -59.5z" />
    <glyph glyph-name="h" unicode="h" horiz-adv-x="588" 
d="M86 708h104v-290q65 94 170 94q71 0 110 -39t39 -118v-355h-104v328q0 54 -20 73t-59 19q-48 0 -92 -57t-44 -150v-213h-104v708z" />
    <glyph glyph-name="i" unicode="i" horiz-adv-x="266" 
d="M61 646q0 30 21 51.5t51 21.5t51 -21.5t21 -51.5t-20.5 -50.5t-51.5 -20.5t-51.5 20.5t-20.5 50.5zM81 504h104v-504h-104v504z" />
    <glyph glyph-name="j" unicode="j" horiz-adv-x="266" 
d="M61 646q0 30 21 51.5t51 21.5t51 -21.5t21 -51.5t-20.5 -50.5t-51.5 -20.5t-51.5 20.5t-20.5 50.5zM1 -212l-26 91q53 16 79.5 46t26.5 88v491h104v-481q0 -101 -46.5 -157.5t-137.5 -77.5z" />
    <glyph glyph-name="k" unicode="k" horiz-adv-x="525" 
d="M86 708h104v-405l182 201h132l-211 -232l224 -272h-132l-195 241v-241h-104v708z" />
    <glyph glyph-name="l" unicode="l" horiz-adv-x="271" 
d="M84 708h104v-708h-104v708z" />
    <glyph glyph-name="m" unicode="m" horiz-adv-x="861" 
d="M86 504h104v-86q61 94 152 94q51 0 89.5 -28.5t49.5 -75.5q26 50 67 77t90 27q68 0 106 -41.5t38 -109.5v-361h-104v338q0 40 -20 61t-54 21q-49 0 -83.5 -59t-34.5 -159v-202h-104v338q0 40 -20 61t-54 21q-50 0 -84 -60.5t-34 -168.5v-191h-104v504z" />
    <glyph glyph-name="n" unicode="n" 
d="M86 504h104v-86q27 45 70 69.5t93 24.5q67 0 107.5 -39.5t40.5 -111.5v-361h-104v328q0 92 -78 92q-52 0 -90.5 -58.5t-38.5 -157.5v-204h-104v504z" />
    <glyph glyph-name="o" unicode="o" horiz-adv-x="594" 
d="M49 252q0 110 67.5 185t180.5 75t180.5 -75t67.5 -185t-67.5 -185t-180.5 -75t-180.5 75t-67.5 185zM159 252q0 -69 36.5 -118.5t101.5 -49.5t101.5 49.5t36.5 118.5t-36.5 118.5t-101.5 49.5t-101.5 -49.5t-36.5 -118.5z" />
    <glyph glyph-name="p" unicode="p" horiz-adv-x="601" 
d="M552 252q0 -120 -58 -190t-169 -70q-44 0 -80 18.5t-55 45.5v-260h-104v708h104v-58q14 25 52.5 45.5t84.5 20.5q110 0 167.5 -68.5t57.5 -191.5zM442 252q0 77 -36 122.5t-93 45.5t-93 -45.5t-36 -122.5t36 -122.5t93 -45.5t93 45.5t36 122.5z" />
    <glyph glyph-name="q" unicode="q" horiz-adv-x="601" 
d="M49 252q0 123 57.5 191.5t167.5 68.5q46 0 84.5 -20.5t52.5 -45.5v58h104v-708h-104v260q-18 -25 -58 -44.5t-77 -19.5q-111 0 -169 70t-58 190zM159 252q0 -77 36 -122.5t93 -45.5t93 45.5t36 122.5t-36 122.5t-93 45.5t-93 -45.5t-36 -122.5z" />
    <glyph glyph-name="r" unicode="r" horiz-adv-x="417" 
d="M190 0h-104v504h104v-84q25 44 66 68t83 24q34 0 64 -12l-18 -95q-24 15 -59 15q-55 0 -95.5 -60.5t-40.5 -172.5v-187z" />
    <glyph glyph-name="s" unicode="s" horiz-adv-x="450" 
d="M234 512q46 0 85.5 -21.5t63.5 -58.5l-66 -58q-36 46 -88 46q-21 0 -35.5 -13t-14.5 -37t21.5 -39t68.5 -33q26 -10 41.5 -16.5t37 -20t33 -27t20.5 -35t9 -47.5q0 -67 -48 -113.5t-127 -46.5q-72 0 -122 40t-73 95l88 48q40 -91 111 -91q68 0 68 66q0 13 -6 22.5t-20 18
t-25.5 13.5t-34 13.5t-34.5 13.5q-108 45 -108 138q0 60 44 101.5t111 41.5z" />
    <glyph glyph-name="t" unicode="t" horiz-adv-x="385" 
d="M21 412v92h84v139l104 65v-204h131v-92h-131v-246q0 -82 67 -82q25 0 48 14l27 -88q-37 -18 -81 -18q-75 0 -120 45.5t-45 134.5v240h-84z" />
    <glyph glyph-name="u" unicode="u" 
d="M494 0h-104v86q-27 -45 -70 -69.5t-93 -24.5q-67 0 -107.5 39.5t-40.5 111.5v361h104v-328q0 -92 78 -92q52 0 90.5 58.5t38.5 157.5v204h104v-504z" />
    <glyph glyph-name="v" unicode="v" horiz-adv-x="456" 
d="M12 504h106l110 -362l110 362h106l-167 -504h-98z" />
    <glyph glyph-name="w" unicode="w" horiz-adv-x="754" 
d="M613 504h110l-160 -504h-95l-91 356l-91 -356h-95l-160 504h110l97 -368l89 368h100l89 -368z" />
    <glyph glyph-name="x" unicode="x" horiz-adv-x="470" 
d="M327 504h112l-148 -238l166 -266h-112l-110 176l-110 -176h-112l166 266l-148 238h112l92 -148z" />
    <glyph glyph-name="y" unicode="y" horiz-adv-x="469" 
d="M8 504h110l119 -339l115 339h110l-255 -708h-104l82 229z" />
    <glyph glyph-name="z" unicode="z" horiz-adv-x="461" 
d="M61 412v92h347v-42l-227 -370h238v-92h-373v42l227 370h-212z" />
    <glyph glyph-name="braceleft" unicode="{" horiz-adv-x="332" 
d="M142 46v181q0 45 -16.5 60.5t-66.5 15.5v94q50 0 66.5 15.5t16.5 60.5v181q0 42 27.5 69t71.5 27h66v-94h-25q-22 0 -31 -9.5t-9 -32.5v-165q0 -87 -73 -99q73 -12 73 -99v-165q0 -23 9 -32.5t31 -9.5h25v-94h-66q-44 0 -71.5 27t-27.5 69z" />
    <glyph glyph-name="bar" unicode="|" horiz-adv-x="288" 
d="M94 750h100v-800h-100v800z" />
    <glyph glyph-name="braceright" unicode="}" horiz-adv-x="332" 
d="M190 227v-181q0 -42 -27.5 -69t-71.5 -27h-66v94h25q22 0 31 9.5t9 32.5v165q0 87 73 99q-73 12 -73 99v165q0 23 -9 32.5t-31 9.5h-25v94h66q44 0 71.5 -27t27.5 -69v-181q0 -45 16.5 -60.5t66.5 -15.5v-94q-50 0 -66.5 -15.5t-16.5 -60.5z" />
    <glyph glyph-name="asciitilde" unicode="~" horiz-adv-x="642" 
d="M133 257l-56 60q19 42 58.5 71.5t83.5 29.5q45 0 105 -26t93 -26q53 0 92 47l56 -60q-19 -42 -58.5 -71.5t-83.5 -29.5t-104.5 26t-93.5 26q-53 0 -92 -47z" />
    <glyph glyph-name="exclamdown" unicode="&#xa1;" horiz-adv-x="351" 
d="M244 -204h-142l27 479h88zM97 425q0 32 21.5 53.5t54.5 21.5t54.5 -21.5t21.5 -53.5t-21.5 -53.5t-54.5 -21.5t-54.5 21.5t-21.5 53.5z" />
    <glyph glyph-name="cent" unicode="&#xa2;" horiz-adv-x="569" 
d="M419 270l93 -40q-53 -117 -170 -135v-144h-100v145q-90 17 -137.5 87.5t-47.5 167.5t47.5 167.5t137.5 87.5v145h100v-144q117 -18 170 -135l-93 -40q-39 87 -125 87q-64 0 -95.5 -46t-31.5 -122t31.5 -122t95.5 -46q86 0 125 87z" />
    <glyph glyph-name="sterling" unicode="&#xa3;" horiz-adv-x="547" 
d="M62 314v100h48q-14 50 -14 90q0 91 55 147.5t145 56.5q73 0 125.5 -36t75.5 -102l-87 -41q-34 79 -114 79q-42 0 -69 -26t-27 -79q0 -51 10 -89h163v-100h-133q5 -25 5 -50q0 -98 -82 -169q49 32 90 32q29 0 61.5 -17.5t53.5 -17.5q46 0 80 57l79 -44q-32 -59 -68.5 -86
t-86.5 -27q-43 0 -88 17.5t-66 17.5q-60 0 -115 -35l-62 69q56 53 83 95t27 92q0 36 -9 66h-80z" />
    <glyph glyph-name="currency" unicode="&#xa4;" horiz-adv-x="562" 
d="M451 199l88 -67l-83 -83l-67 87q-47 -31 -108 -31q-62 0 -108 31l-67 -87l-83 83l88 67q-30 49 -30 108t30 108l-88 67l83 83l67 -87q46 31 108 31q61 0 108 -31l67 87l83 -83l-88 -67q30 -49 30 -108t-30 -108zM378 307q0 47 -26.5 76t-70.5 29t-70.5 -29t-26.5 -76
t26.5 -76t70.5 -29t70.5 29t26.5 76z" />
    <glyph glyph-name="yen" unicode="&#xa5;" horiz-adv-x="518" 
d="M10 700h117l132 -290l132 290h117l-149 -308h105v-92h-150v-67h150v-92h-150v-141h-110v141h-150v92h150v67h-150v92h105z" />
    <glyph glyph-name="brokenbar" unicode="&#xa6;" horiz-adv-x="288" 
d="M94 299h100v-349h-100v349zM194 401h-100v349h100v-349z" />
    <glyph glyph-name="section" unicode="&#xa7;" horiz-adv-x="533" 
d="M482 222q0 -88 -64 -136q32 -44 32 -107q0 -87 -52 -139t-125 -52q-156 0 -195 149l95 32q27 -81 100 -81q32 0 54.5 22.5t22.5 64.5q0 24 -8 41t-27.5 31.5t-37 23.5t-53 25.5t-59.5 29.5q-102 55 -102 148q0 88 64 136q-32 44 -32 107q0 87 52 139t125 52
q156 0 195 -149l-95 -32q-27 81 -100 81q-32 0 -54.5 -22.5t-22.5 -64.5q0 -24 8 -41t27.5 -31.5t37 -23.5t53 -25.5t59.5 -29.5q102 -55 102 -148zM389 213q0 25 -19.5 46t-42 32.5t-66 30.5t-65.5 31q-40 -26 -40 -70q0 -21 11 -37.5t32.5 -30t43 -23.5t53.5 -24t53 -25
q40 26 40 70z" />
    <glyph glyph-name="dieresis" unicode="&#xa8;" horiz-adv-x="347" 
d="M18 651q0 27 18 45t45 18t45 -18t18 -45t-18 -45t-45 -18t-45 18t-18 45zM204 651q0 27 18 45t45 18t45 -18t18 -45t-18 -45t-45 -18t-45 18t-18 45z" />
    <glyph glyph-name="copyright" unicode="&#xa9;" horiz-adv-x="896" 
d="M65 350q0 166 109.5 278t273.5 112t273.5 -112t109.5 -278t-109.5 -278t-273.5 -112t-273.5 112t-109.5 278zM161 350q0 -128 80 -213t207 -85t207 85t80 213t-80 213t-207 85t-207 -85t-80 -213zM541 288l85 -19q-10 -63 -60 -99t-118 -36q-82 0 -140.5 56.5
t-58.5 159.5t58.5 159.5t140.5 56.5q68 0 118 -36t60 -99l-85 -19q-23 70 -93 70q-47 0 -76 -34.5t-29 -97.5t29 -97.5t76 -34.5q70 0 93 70z" />
    <glyph glyph-name="ordfeminine" unicode="&#xaa;" horiz-adv-x="443" 
d="M60 416q0 61 47 95.5t124 34.5h68v17q0 36 -22 52.5t-57 16.5q-58 0 -75 -52l-69 15q11 51 49 80t95 29q161 0 161 -156v-248h-68l-9 54q-42 -58 -122 -58q-53 0 -87.5 30.5t-34.5 89.5zM146 416q0 -48 50 -48q41 0 72 26.5t31 74.5v11h-71q-37 0 -59.5 -17.5
t-22.5 -46.5z" />
    <glyph glyph-name="guillemotleft" unicode="&#xab;" horiz-adv-x="662" 
d="M46 274v72l293 206v-107l-189 -135l189 -135v-107zM316 274v72l293 206v-107l-189 -135l189 -135v-107z" />
    <glyph glyph-name="logicalnot" unicode="&#xac;" horiz-adv-x="588" 
d="M65 305v92h449v-255h-104v163h-345z" />
    <glyph glyph-name="registered" unicode="&#xae;" horiz-adv-x="896" 
d="M65 350q0 166 109.5 278t273.5 112t273.5 -112t109.5 -278t-109.5 -278t-273.5 -112t-273.5 112t-109.5 278zM161 350q0 -128 80 -213t207 -85t207 85t80 213t-80 213t-207 85t-207 -85t-80 -213zM536 137l-122 182h-25v-182h-86v426h158q67 0 102.5 -31.5t35.5 -90.5
q0 -49 -25 -79t-67 -39l127 -186h-98zM460 483h-71v-84h71q54 0 54 42t-54 42z" />
    <glyph glyph-name="macron" unicode="&#xaf;" horiz-adv-x="279" 
d="M11 608v92h257v-92h-257z" />
    <glyph glyph-name="degree" unicode="&#xb0;" horiz-adv-x="354" 
d="M63 593q0 48 32 79.5t82 31.5t82 -31.5t32 -79.5t-32 -79.5t-82 -31.5t-82 31.5t-32 79.5zM136 593q0 -19 11 -30.5t30 -11.5t30 11.5t11 30.5t-11 30.5t-30 11.5t-30 -11.5t-11 -30.5z" />
    <glyph glyph-name="plusminus" unicode="&#xb1;" horiz-adv-x="566" 
d="M237 621h92v-176h177v-92h-177v-177h-92v177h-176v92h176v176zM61 0v92h445v-92h-445z" />
    <glyph glyph-name="twosuperior" unicode="&#xb2;" horiz-adv-x="381" 
d="M58 300v30l151 186q25 31 25 67q0 23 -12.5 36t-32.5 13q-49 0 -54 -60l-73 20q5 49 40.5 80.5t86.5 31.5q57 0 91 -32t34 -87q0 -54 -39 -101l-92 -112h139v-72h-264z" />
    <glyph glyph-name="threesuperior" unicode="&#xb3;" horiz-adv-x="388" 
d="M58 417l70 10q4 -28 22 -43.5t43 -15.5q56 0 56 67q0 29 -15 45t-41 16q-21 0 -38 -12l-36 47l73 97h-117v72h230v-29l-91 -120q51 0 83 -34t32 -85q0 -62 -35 -99t-101 -37q-58 0 -95 34t-40 87z" />
    <glyph glyph-name="acute" unicode="&#xb4;" horiz-adv-x="242" 
d="M17 560l68 148h141l-129 -148h-80z" />
    <glyph glyph-name="mu" unicode="&#xb5;" 
d="M494 0h-104v86q-58 -94 -163 -94q-22 0 -44 5v-201h-104v708h104v-328q0 -92 78 -92q52 0 90.5 58.5t38.5 157.5v204h104v-504z" />
    <glyph glyph-name="paragraph" unicode="&#xb6;" horiz-adv-x="715" 
d="M57 490q0 87 61.5 148.5t148.5 61.5h385v-92h-62v-812h-104v812h-115v-812h-104v484q-87 0 -148.5 61.5t-61.5 148.5z" />
    <glyph glyph-name="periodcentered" unicode="&#xb7;" horiz-adv-x="318" 
d="M159 443q31 0 52.5 -21.5t21.5 -52.5t-21.5 -52.5t-52.5 -21.5t-52.5 21.5t-21.5 52.5t21.5 52.5t52.5 21.5z" />
    <glyph glyph-name="cedilla" unicode="&#xb8;" horiz-adv-x="221" 
d="M213 -60l-84 -191l-121 56l124 135h81z" />
    <glyph glyph-name="onesuperior" unicode="&#xb9;" horiz-adv-x="298" 
d="M185 700h30v-400h-77v292l-84 -40v85z" />
    <glyph glyph-name="ordmasculine" unicode="&#xba;" horiz-adv-x="517" 
d="M64 500q0 86 53 145t142 59t141.5 -59t52.5 -145t-52.5 -145t-141.5 -59t-142 59t-53 145zM150 500q0 -54 29 -93t80 -39t79.5 39t28.5 93t-28.5 93t-79.5 39t-80 -39t-29 -93z" />
    <glyph glyph-name="guillemotright" unicode="&#xbb;" horiz-adv-x="662" 
d="M616 346v-72l-293 -206v107l189 135l-189 135v107zM346 346v-72l-293 -206v107l189 135l-189 135v107z" />
    <glyph glyph-name="onequarter" unicode="&#xbc;" horiz-adv-x="821" 
d="M205 700h30v-400h-77v292l-84 -40v85zM663 733l58 -45l-539 -720l-58 45zM617 0v71h-167v35l160 294h84v-257h44v-72h-44v-71h-77zM543 143h74v143z" />
    <glyph glyph-name="onehalf" unicode="&#xbd;" horiz-adv-x="901" 
d="M205 700h30v-400h-77v292l-84 -40v85zM667 733l58 -45l-539 -720l-58 45zM554 0v30l151 186q25 31 25 67q0 23 -12.5 36t-32.5 13q-49 0 -54 -60l-73 20q5 49 40.5 80.5t86.5 31.5q57 0 91 -32t34 -87q0 -54 -39 -101l-92 -112h139v-72h-264z" />
    <glyph glyph-name="threequarters" unicode="&#xbe;" horiz-adv-x="815" 
d="M691 733l58 -45l-539 -720l-58 45zM58 417l70 10q4 -28 22 -43.5t43 -15.5q56 0 56 67q0 29 -15 45t-41 16q-21 0 -38 -12l-36 47l73 97h-117v72h230v-29l-91 -120q51 0 83 -34t32 -85q0 -62 -35 -99t-101 -37q-58 0 -95 34t-40 87zM635 0v71h-167v35l160 294h84v-257h44
v-72h-44v-71h-77zM561 143h74v143z" />
    <glyph glyph-name="questiondown" unicode="&#xbf;" horiz-adv-x="456" 
d="M87 184q32 105 139 105q61 0 98.5 -33.5t37.5 -90.5q0 -84 -85 -123l-83 -38q-27 -13 -38 -28.5t-11 -41.5q0 -27 21 -44t52 -17q75 0 98 82l95 -16q-12 -67 -61.5 -109t-125.5 -42q-78 0 -128.5 41t-50.5 113q0 81 71 116l113 55q42 20 42 56q0 19 -11.5 30t-31.5 11
q-23 0 -36.5 -14.5t-23.5 -42.5zM302 425q0 -32 -21.5 -53.5t-54.5 -21.5t-54.5 21.5t-21.5 53.5t21.5 53.5t54.5 21.5t54.5 -21.5t21.5 -53.5z" />
    <glyph glyph-name="Agrave" unicode="&#xc0;" horiz-adv-x="608" 
d="M252 700h104l243 -700h-112l-58 174h-250l-58 -174h-112zM304 561l-92 -283h184zM302 904l68 -148h-80l-129 148h141z" />
    <glyph glyph-name="Aacute" unicode="&#xc1;" horiz-adv-x="608" 
d="M252 700h104l243 -700h-112l-58 174h-250l-58 -174h-112zM304 561l-92 -283h184zM232 756l68 148h141l-129 -148h-80z" />
    <glyph glyph-name="Acircumflex" unicode="&#xc2;" horiz-adv-x="608" 
d="M252 700h104l243 -700h-112l-58 174h-250l-58 -174h-112zM304 561l-92 -283h184zM127 762l162 176h30l162 -176h-100l-77 80l-77 -80h-100z" />
    <glyph glyph-name="Atilde" unicode="&#xc3;" horiz-adv-x="608" 
d="M252 700h104l243 -700h-112l-58 174h-250l-58 -174h-112zM304 561l-92 -283h184zM177 773l-57 47q16 34 48 57.5t67 23.5q38 0 72.5 -20.5t58.5 -20.5q33 0 66 40l57 -47q-16 -34 -48 -57.5t-67 -23.5q-38 0 -72.5 20.5t-58.5 20.5q-33 0 -66 -40z" />
    <glyph glyph-name="Adieresis" unicode="&#xc4;" horiz-adv-x="608" 
d="M252 700h104l243 -700h-112l-58 174h-250l-58 -174h-112zM304 561l-92 -283h184zM148 847q0 27 18 45t45 18t45 -18t18 -45t-18 -45t-45 -18t-45 18t-18 45zM334 847q0 27 18 45t45 18t45 -18t18 -45t-18 -45t-45 -18t-45 18t-18 45z" />
    <glyph glyph-name="Aring" unicode="&#xc5;" horiz-adv-x="608" 
d="M252 700h104l243 -700h-112l-58 174h-250l-58 -174h-112zM304 561l-92 -283h184zM203 849q0 43 29 72.5t72 29.5q44 0 72.5 -29.5t28.5 -72.5q0 -42 -28.5 -70t-72.5 -28q-43 0 -72 28.5t-29 69.5zM268 850q0 -16 10 -26.5t26 -10.5t26 10.5t10 26.5q0 17 -10 28t-26 11
t-26 -11t-10 -28z" />
    <glyph glyph-name="AE" unicode="&#xc6;" horiz-adv-x="848" 
d="M312 700h477v-104h-305v-172h246v-104h-246v-216h315v-104h-425v174h-179l-73 -174h-112zM357 561l-118 -283h135v283h-17z" />
    <glyph glyph-name="Ccedilla" unicode="&#xc7;" horiz-adv-x="695" 
d="M658 496l-104 -26q-27 69 -68.5 101.5t-110.5 32.5q-93 0 -152.5 -65.5t-59.5 -188.5t59.5 -188.5t152.5 -65.5q69 0 110.5 32.5t68.5 101.5l104 -26q-27 -101 -100 -156.5t-183 -55.5q-135 0 -229.5 94.5t-94.5 263.5t94.5 263.5t229.5 94.5q110 0 183 -55.5t100 -156.5
zM461 -60l-84 -191l-121 56l124 135h81z" />
    <glyph glyph-name="Egrave" unicode="&#xc8;" horiz-adv-x="568" 
d="M94 700h415v-104h-305v-172h246v-104h-246v-216h315v-104h-425v700zM305 904l68 -148h-80l-129 148h141z" />
    <glyph glyph-name="Eacute" unicode="&#xc9;" horiz-adv-x="568" 
d="M94 700h415v-104h-305v-172h246v-104h-246v-216h315v-104h-425v700zM227 756l68 148h141l-129 -148h-80z" />
    <glyph glyph-name="Ecircumflex" unicode="&#xca;" horiz-adv-x="568" 
d="M94 700h415v-104h-305v-172h246v-104h-246v-216h315v-104h-425v700zM127 762l162 176h30l162 -176h-100l-77 80l-77 -80h-100z" />
    <glyph glyph-name="Edieresis" unicode="&#xcb;" horiz-adv-x="568" 
d="M94 700h415v-104h-305v-172h246v-104h-246v-216h315v-104h-425v700zM149 847q0 27 18 45t45 18t45 -18t18 -45t-18 -45t-45 -18t-45 18t-18 45zM335 847q0 27 18 45t45 18t45 -18t18 -45t-18 -45t-45 -18t-45 18t-18 45z" />
    <glyph glyph-name="Igrave" unicode="&#xcc;" horiz-adv-x="298" 
d="M94 0v700h110v-700h-110zM161 904l68 -148h-80l-129 148h141z" />
    <glyph glyph-name="Iacute" unicode="&#xcd;" horiz-adv-x="298" 
d="M94 0v700h110v-700h-110zM70 756l68 148h141l-129 -148h-80z" />
    <glyph glyph-name="Icircumflex" unicode="&#xce;" horiz-adv-x="298" 
d="M94 0v700h110v-700h-110zM-22 762l162 176h30l162 -176h-100l-77 80l-77 -80h-100z" />
    <glyph glyph-name="Idieresis" unicode="&#xcf;" horiz-adv-x="298" 
d="M94 0v700h110v-700h-110zM-7 847q0 27 18 45t45 18t45 -18t18 -45t-18 -45t-45 -18t-45 18t-18 45zM179 847q0 27 18 45t45 18t45 -18t18 -45t-18 -45t-45 -18t-45 18t-18 45z" />
    <glyph glyph-name="Eth" unicode="&#xd0;" horiz-adv-x="689" 
d="M28 304v92h82v304h206q135 0 228.5 -91t93.5 -259t-93.5 -259t-228.5 -91h-206v304h-82zM284 596h-64v-200h82v-92h-82v-200h64q49 0 90 12t76.5 39t55.5 76.5t20 118.5t-20 118.5t-55.5 76.5t-76.5 39t-90 12z" />
    <glyph glyph-name="Ntilde" unicode="&#xd1;" horiz-adv-x="703" 
d="M499 700h110v-700h-118l-287 502v-502h-110v700h118l287 -504v504zM224 773l-57 47q16 34 48 57.5t67 23.5q38 0 72.5 -20.5t58.5 -20.5q33 0 66 40l57 -47q-16 -34 -48 -57.5t-67 -23.5q-38 0 -72.5 20.5t-58.5 20.5q-33 0 -66 -40z" />
    <glyph glyph-name="Ograve" unicode="&#xd2;" horiz-adv-x="744" 
d="M372 708q136 0 228.5 -93.5t92.5 -264.5t-92.5 -264.5t-228.5 -93.5t-228.5 93.5t-92.5 264.5t92.5 264.5t228.5 93.5zM372 604q-90 0 -149.5 -65t-59.5 -189t59.5 -189t149.5 -65t149.5 65t59.5 189t-59.5 189t-149.5 65zM382 904l68 -148h-80l-129 148h141z" />
    <glyph glyph-name="Oacute" unicode="&#xd3;" horiz-adv-x="744" 
d="M372 708q136 0 228.5 -93.5t92.5 -264.5t-92.5 -264.5t-228.5 -93.5t-228.5 93.5t-92.5 264.5t92.5 264.5t228.5 93.5zM372 604q-90 0 -149.5 -65t-59.5 -189t59.5 -189t149.5 -65t149.5 65t59.5 189t-59.5 189t-149.5 65zM301 756l68 148h141l-129 -148h-80z" />
    <glyph glyph-name="Ocircumflex" unicode="&#xd4;" horiz-adv-x="744" 
d="M372 708q136 0 228.5 -93.5t92.5 -264.5t-92.5 -264.5t-228.5 -93.5t-228.5 93.5t-92.5 264.5t92.5 264.5t228.5 93.5zM372 604q-90 0 -149.5 -65t-59.5 -189t59.5 -189t149.5 -65t149.5 65t59.5 189t-59.5 189t-149.5 65zM195 762l162 176h30l162 -176h-100l-77 80
l-77 -80h-100z" />
    <glyph glyph-name="Otilde" unicode="&#xd5;" horiz-adv-x="744" 
d="M372 708q136 0 228.5 -93.5t92.5 -264.5t-92.5 -264.5t-228.5 -93.5t-228.5 93.5t-92.5 264.5t92.5 264.5t228.5 93.5zM372 604q-90 0 -149.5 -65t-59.5 -189t59.5 -189t149.5 -65t149.5 65t59.5 189t-59.5 189t-149.5 65zM245 773l-57 47q16 34 48 57.5t67 23.5
q38 0 72.5 -20.5t58.5 -20.5q33 0 66 40l57 -47q-16 -34 -48 -57.5t-67 -23.5q-38 0 -72.5 20.5t-58.5 20.5q-33 0 -66 -40z" />
    <glyph glyph-name="Odieresis" unicode="&#xd6;" horiz-adv-x="744" 
d="M372 708q136 0 228.5 -93.5t92.5 -264.5t-92.5 -264.5t-228.5 -93.5t-228.5 93.5t-92.5 264.5t92.5 264.5t228.5 93.5zM372 604q-90 0 -149.5 -65t-59.5 -189t59.5 -189t149.5 -65t149.5 65t59.5 189t-59.5 189t-149.5 65zM217 847q0 27 18 45t45 18t45 -18t18 -45
t-18 -45t-45 -18t-45 18t-18 45zM403 847q0 27 18 45t45 18t45 -18t18 -45t-18 -45t-45 -18t-45 18t-18 45z" />
    <glyph glyph-name="multiply" unicode="&#xd7;" horiz-adv-x="564" 
d="M500 162l-65 -65l-153 153l-153 -153l-65 65l153 154l-153 154l65 65l153 -153l153 153l65 -65l-153 -154z" />
    <glyph glyph-name="Oslash" unicode="&#xd8;" horiz-adv-x="744" 
d="M612 735l72 -53l-67 -87q76 -95 76 -245q0 -171 -92.5 -264.5t-228.5 -93.5q-99 0 -179 52l-61 -79l-72 53l67 87q-76 95 -76 245q0 171 92.5 264.5t228.5 93.5q99 0 179 -52zM581 350q0 91 -35 153l-287 -374q49 -33 113 -33q90 0 149.5 65t59.5 189zM372 604
q-90 0 -149.5 -65t-59.5 -189q0 -88 35 -153l287 374q-50 33 -113 33z" />
    <glyph glyph-name="Ugrave" unicode="&#xd9;" horiz-adv-x="654" 
d="M75 252v448h110v-453q0 -72 36 -111.5t106 -39.5t106 39.5t36 111.5v453h110v-448q0 -123 -70.5 -191.5t-181.5 -68.5t-181.5 69t-70.5 191zM332 904l68 -148h-80l-129 148h141z" />
    <glyph glyph-name="Uacute" unicode="&#xda;" horiz-adv-x="654" 
d="M75 252v448h110v-453q0 -72 36 -111.5t106 -39.5t106 39.5t36 111.5v453h110v-448q0 -123 -70.5 -191.5t-181.5 -68.5t-181.5 69t-70.5 191zM251 756l68 148h141l-129 -148h-80z" />
    <glyph glyph-name="Ucircumflex" unicode="&#xdb;" horiz-adv-x="654" 
d="M75 252v448h110v-453q0 -72 36 -111.5t106 -39.5t106 39.5t36 111.5v453h110v-448q0 -123 -70.5 -191.5t-181.5 -68.5t-181.5 69t-70.5 191zM150 762l162 176h30l162 -176h-100l-77 80l-77 -80h-100z" />
    <glyph glyph-name="Udieresis" unicode="&#xdc;" horiz-adv-x="654" 
d="M75 252v448h110v-453q0 -72 36 -111.5t106 -39.5t106 39.5t36 111.5v453h110v-448q0 -123 -70.5 -191.5t-181.5 -68.5t-181.5 69t-70.5 191zM172 847q0 27 18 45t45 18t45 -18t18 -45t-18 -45t-45 -18t-45 18t-18 45zM358 847q0 27 18 45t45 18t45 -18t18 -45t-18 -45
t-45 -18t-45 18t-18 45z" />
    <glyph glyph-name="Yacute" unicode="&#xdd;" horiz-adv-x="514" 
d="M2 700h117l138 -291l138 291h117l-200 -400v-300h-110v300zM175 756l68 148h141l-129 -148h-80z" />
    <glyph glyph-name="Thorn" unicode="&#xde;" horiz-adv-x="589" 
d="M345 143h-141v-143h-110v700h110v-143h141q102 0 159.5 -58t57.5 -149t-57.5 -149t-159.5 -58zM350 247q47 0 73.5 27t26.5 76t-26.5 76t-73.5 27h-146v-206h146z" />
    <glyph glyph-name="germandbls" unicode="&#xdf;" horiz-adv-x="560" 
d="M35 337v92h48v85q0 95 55.5 144.5t140.5 49.5q94 0 141.5 -51.5t47.5 -130.5q0 -53 -25.5 -86t-59.5 -44q62 -19 99 -64.5t37 -119.5q0 -112 -58 -166t-161 -54q-39 0 -69 8v92q40 -8 69 -8q116 0 116 125q0 128 -125 128h-39v92h27q44 0 67.5 25t23.5 69q0 45 -25 69
t-66 24q-42 0 -67 -28t-25 -81v-507h-104v337h-48z" />
    <glyph glyph-name="agrave" unicode="&#xe0;" horiz-adv-x="514" 
d="M44 145q0 77 60 121t158 44h87v22q0 45 -27.5 66.5t-70.5 21.5q-69 0 -94 -67l-95 20q16 64 67 101.5t123 37.5q201 0 201 -199v-313h-88l-10 66q-53 -74 -156 -74q-67 0 -111 39t-44 114zM154 145q0 -27 16 -44t47 -17q53 0 92.5 33.5t39.5 94.5v11h-91q-48 0 -76 -21
t-28 -57zM259 708l68 -148h-80l-129 148h141z" />
    <glyph glyph-name="aacute" unicode="&#xe1;" horiz-adv-x="514" 
d="M44 145q0 77 60 121t158 44h87v22q0 45 -27.5 66.5t-70.5 21.5q-69 0 -94 -67l-95 20q16 64 67 101.5t123 37.5q201 0 201 -199v-313h-88l-10 66q-53 -74 -156 -74q-67 0 -111 39t-44 114zM154 145q0 -27 16 -44t47 -17q53 0 92.5 33.5t39.5 94.5v11h-91q-48 0 -76 -21
t-28 -57zM175 560l68 148h141l-129 -148h-80z" />
    <glyph glyph-name="acircumflex" unicode="&#xe2;" horiz-adv-x="514" 
d="M44 145q0 77 60 121t158 44h87v22q0 45 -27.5 66.5t-70.5 21.5q-69 0 -94 -67l-95 20q16 64 67 101.5t123 37.5q201 0 201 -199v-313h-88l-10 66q-53 -74 -156 -74q-67 0 -111 39t-44 114zM154 145q0 -27 16 -44t47 -17q53 0 92.5 33.5t39.5 94.5v11h-91q-48 0 -76 -21
t-28 -57zM80 566l162 176h30l162 -176h-100l-77 80l-77 -80h-100z" />
    <glyph glyph-name="atilde" unicode="&#xe3;" horiz-adv-x="514" 
d="M44 145q0 77 60 121t158 44h87v22q0 45 -27.5 66.5t-70.5 21.5q-69 0 -94 -67l-95 20q16 64 67 101.5t123 37.5q201 0 201 -199v-313h-88l-10 66q-53 -74 -156 -74q-67 0 -111 39t-44 114zM154 145q0 -27 16 -44t47 -17q53 0 92.5 33.5t39.5 94.5v11h-91q-48 0 -76 -21
t-28 -57zM123 577l-57 47q16 34 48 57.5t67 23.5q38 0 72.5 -20.5t58.5 -20.5q33 0 66 40l57 -47q-16 -34 -48 -57.5t-67 -23.5q-38 0 -72.5 20.5t-58.5 20.5q-33 0 -66 -40z" />
    <glyph glyph-name="adieresis" unicode="&#xe4;" horiz-adv-x="514" 
d="M44 145q0 77 60 121t158 44h87v22q0 45 -27.5 66.5t-70.5 21.5q-69 0 -94 -67l-95 20q16 64 67 101.5t123 37.5q201 0 201 -199v-313h-88l-10 66q-53 -74 -156 -74q-67 0 -111 39t-44 114zM154 145q0 -27 16 -44t47 -17q53 0 92.5 33.5t39.5 94.5v11h-91q-48 0 -76 -21
t-28 -57zM100 651q0 27 18 45t45 18t45 -18t18 -45t-18 -45t-45 -18t-45 18t-18 45zM286 651q0 27 18 45t45 18t45 -18t18 -45t-18 -45t-45 -18t-45 18t-18 45z" />
    <glyph glyph-name="aring" unicode="&#xe5;" horiz-adv-x="514" 
d="M44 145q0 77 60 121t158 44h87v22q0 45 -27.5 66.5t-70.5 21.5q-69 0 -94 -67l-95 20q16 64 67 101.5t123 37.5q201 0 201 -199v-313h-88l-10 66q-53 -74 -156 -74q-67 0 -111 39t-44 114zM154 145q0 -27 16 -44t47 -17q53 0 92.5 33.5t39.5 94.5v11h-91q-48 0 -76 -21
t-28 -57zM151 653q0 43 29 72.5t72 29.5q44 0 72.5 -29.5t28.5 -72.5q0 -42 -28.5 -70t-72.5 -28q-43 0 -72 28.5t-29 69.5zM216 654q0 -16 10 -26.5t26 -10.5t26 10.5t10 26.5q0 17 -10 28t-26 11t-26 -11t-10 -28z" />
    <glyph glyph-name="ae" unicode="&#xe6;" horiz-adv-x="859" 
d="M816 268v-45h-357q0 -59 33 -99t92 -40q42 0 77.5 22.5t54.5 62.5l89 -35q-38 -74 -88 -108t-133 -34q-136 0 -199 113q-55 -113 -186 -113q-67 0 -111 39t-44 114q0 77 60 121t158 44h87v22q0 46 -28.5 67t-72.5 21q-74 0 -96 -66l-88 19q14 64 62.5 101.5t121.5 37.5
q118 0 169 -69q64 69 167 69q58 0 104 -22t73 -58t41 -78t14 -86zM154 145q0 -27 16 -44t47 -17q53 0 92.5 33.5t39.5 94.5v15h-91q-47 0 -75.5 -23t-28.5 -59zM584 420q-50 0 -82 -30.5t-41 -79.5h245q-7 47 -38 78.5t-84 31.5z" />
    <glyph glyph-name="ccedilla" unicode="&#xe7;" horiz-adv-x="542" 
d="M411 171l93 -40q-61 -139 -218 -139q-114 0 -175.5 74.5t-61.5 185.5t61.5 185.5t175.5 74.5q157 0 218 -139l-93 -40q-39 87 -125 87q-64 0 -95.5 -46t-31.5 -122t31.5 -122t95.5 -46q86 0 125 87zM372 -60l-84 -191l-121 56l124 135h81z" />
    <glyph glyph-name="egrave" unicode="&#xe8;" horiz-adv-x="559" 
d="M284 420q-50 0 -82 -30.5t-41 -79.5h245q-7 47 -38 78.5t-84 31.5zM516 268v-45h-357q0 -59 33 -99t92 -40q42 0 77.5 22.5t54.5 62.5l89 -35q-38 -74 -88 -108t-133 -34q-60 0 -106.5 23.5t-73.5 62t-41 83t-14 91.5t14 91.5t41 83t73.5 62t106.5 23.5q58 0 104 -22
t73 -58t41 -78t14 -86zM281 708l68 -148h-80l-129 148h141z" />
    <glyph glyph-name="eacute" unicode="&#xe9;" horiz-adv-x="559" 
d="M284 420q-50 0 -82 -30.5t-41 -79.5h245q-7 47 -38 78.5t-84 31.5zM516 268v-45h-357q0 -59 33 -99t92 -40q42 0 77.5 22.5t54.5 62.5l89 -35q-38 -74 -88 -108t-133 -34q-60 0 -106.5 23.5t-73.5 62t-41 83t-14 91.5t14 91.5t41 83t73.5 62t106.5 23.5q58 0 104 -22
t73 -58t41 -78t14 -86zM206 560l68 148h141l-129 -148h-80z" />
    <glyph glyph-name="ecircumflex" unicode="&#xea;" horiz-adv-x="559" 
d="M284 420q-50 0 -82 -30.5t-41 -79.5h245q-7 47 -38 78.5t-84 31.5zM516 268v-45h-357q0 -59 33 -99t92 -40q42 0 77.5 22.5t54.5 62.5l89 -35q-38 -74 -88 -108t-133 -34q-60 0 -106.5 23.5t-73.5 62t-41 83t-14 91.5t14 91.5t41 83t73.5 62t106.5 23.5q58 0 104 -22
t73 -58t41 -78t14 -86zM107 566l162 176h30l162 -176h-100l-77 80l-77 -80h-100z" />
    <glyph glyph-name="edieresis" unicode="&#xeb;" horiz-adv-x="559" 
d="M284 420q-50 0 -82 -30.5t-41 -79.5h245q-7 47 -38 78.5t-84 31.5zM516 268v-45h-357q0 -59 33 -99t92 -40q42 0 77.5 22.5t54.5 62.5l89 -35q-38 -74 -88 -108t-133 -34q-60 0 -106.5 23.5t-73.5 62t-41 83t-14 91.5t14 91.5t41 83t73.5 62t106.5 23.5q58 0 104 -22
t73 -58t41 -78t14 -86zM128 651q0 27 18 45t45 18t45 -18t18 -45t-18 -45t-45 -18t-45 18t-18 45zM314 651q0 27 18 45t45 18t45 -18t18 -45t-18 -45t-45 -18t-45 18t-18 45z" />
    <glyph glyph-name="igrave" unicode="&#xec;" horiz-adv-x="266" 
d="M81 504h104v-504h-104v504zM140 708l68 -148h-80l-129 148h141z" />
    <glyph glyph-name="iacute" unicode="&#xed;" horiz-adv-x="266" 
d="M81 504h104v-504h-104v504zM59 560l68 148h141l-129 -148h-80z" />
    <glyph glyph-name="icircumflex" unicode="&#xee;" horiz-adv-x="266" 
d="M81 504h104v-504h-104v504zM-43 566l162 176h30l162 -176h-100l-77 80l-77 -80h-100z" />
    <glyph glyph-name="idieresis" unicode="&#xef;" horiz-adv-x="266" 
d="M81 504h104v-504h-104v504zM-23 651q0 27 18 45t45 18t45 -18t18 -45t-18 -45t-45 -18t-45 18t-18 45zM163 651q0 27 18 45t45 18t45 -18t18 -45t-18 -45t-45 -18t-45 18t-18 45z" />
    <glyph glyph-name="eth" unicode="&#xf0;" horiz-adv-x="582" 
d="M257 538l-68 48l33 48q-29 16 -82 40l51 76q54 -24 82 -41l35 52l68 -48l-34 -49q191 -147 191 -412q0 -111 -64.5 -185.5t-177.5 -74.5t-177.5 74.5t-64.5 185.5t64.5 185.5t177.5 74.5q57 0 92 -27q-26 57 -91 105zM159 252q0 -70 34 -119t98 -49t98 49t34 119t-34 119
t-98 49t-98 -49t-34 -119z" />
    <glyph glyph-name="ntilde" unicode="&#xf1;" 
d="M86 504h104v-86q27 45 70 69.5t93 24.5q67 0 107.5 -39.5t40.5 -111.5v-361h-104v328q0 92 -78 92q-52 0 -90.5 -58.5t-38.5 -157.5v-204h-104v504zM175 577l-57 47q16 34 48 57.5t67 23.5q38 0 72.5 -20.5t58.5 -20.5q33 0 66 40l57 -47q-16 -34 -48 -57.5t-67 -23.5
q-38 0 -72.5 20.5t-58.5 20.5q-33 0 -66 -40z" />
    <glyph glyph-name="ograve" unicode="&#xf2;" horiz-adv-x="594" 
d="M49 252q0 110 67.5 185t180.5 75t180.5 -75t67.5 -185t-67.5 -185t-180.5 -75t-180.5 75t-67.5 185zM159 252q0 -69 36.5 -118.5t101.5 -49.5t101.5 49.5t36.5 118.5t-36.5 118.5t-101.5 49.5t-101.5 -49.5t-36.5 -118.5zM313 708l68 -148h-80l-129 148h141z" />
    <glyph glyph-name="oacute" unicode="&#xf3;" horiz-adv-x="594" 
d="M49 252q0 110 67.5 185t180.5 75t180.5 -75t67.5 -185t-67.5 -185t-180.5 -75t-180.5 75t-67.5 185zM159 252q0 -69 36.5 -118.5t101.5 -49.5t101.5 49.5t36.5 118.5t-36.5 118.5t-101.5 49.5t-101.5 -49.5t-36.5 -118.5zM220 560l68 148h141l-129 -148h-80z" />
    <glyph glyph-name="ocircumflex" unicode="&#xf4;" horiz-adv-x="594" 
d="M49 252q0 110 67.5 185t180.5 75t180.5 -75t67.5 -185t-67.5 -185t-180.5 -75t-180.5 75t-67.5 185zM159 252q0 -69 36.5 -118.5t101.5 -49.5t101.5 49.5t36.5 118.5t-36.5 118.5t-101.5 49.5t-101.5 -49.5t-36.5 -118.5zM120 566l162 176h30l162 -176h-100l-77 80
l-77 -80h-100z" />
    <glyph glyph-name="otilde" unicode="&#xf5;" horiz-adv-x="594" 
d="M49 252q0 110 67.5 185t180.5 75t180.5 -75t67.5 -185t-67.5 -185t-180.5 -75t-180.5 75t-67.5 185zM159 252q0 -69 36.5 -118.5t101.5 -49.5t101.5 49.5t36.5 118.5t-36.5 118.5t-101.5 49.5t-101.5 -49.5t-36.5 -118.5zM169 577l-57 47q16 34 48 57.5t67 23.5
q38 0 72.5 -20.5t58.5 -20.5q33 0 66 40l57 -47q-16 -34 -48 -57.5t-67 -23.5q-38 0 -72.5 20.5t-58.5 20.5q-33 0 -66 -40z" />
    <glyph glyph-name="odieresis" unicode="&#xf6;" horiz-adv-x="594" 
d="M49 252q0 110 67.5 185t180.5 75t180.5 -75t67.5 -185t-67.5 -185t-180.5 -75t-180.5 75t-67.5 185zM159 252q0 -69 36.5 -118.5t101.5 -49.5t101.5 49.5t36.5 118.5t-36.5 118.5t-101.5 49.5t-101.5 -49.5t-36.5 -118.5zM141 651q0 27 18 45t45 18t45 -18t18 -45
t-18 -45t-45 -18t-45 18t-18 45zM327 651q0 27 18 45t45 18t45 -18t18 -45t-18 -45t-45 -18t-45 18t-18 45z" />
    <glyph glyph-name="divide" unicode="&#xf7;" horiz-adv-x="535" 
d="M267 202q31 0 52.5 -21.5t21.5 -52.5t-21.5 -52.5t-52.5 -21.5t-52.5 21.5t-21.5 52.5t21.5 52.5t52.5 21.5zM267 574q31 0 52.5 -21.5t21.5 -52.5t-21.5 -52.5t-52.5 -21.5t-52.5 21.5t-21.5 52.5t21.5 52.5t52.5 21.5zM45 271v92h445v-92h-445z" />
    <glyph glyph-name="oslash" unicode="&#xf8;" horiz-adv-x="594" 
d="M118 -50l-73 54l60 77q-56 72 -56 171q0 110 67.5 185t180.5 75q68 0 123 -30l56 72l73 -54l-60 -77q56 -72 56 -171q0 -110 -67.5 -185t-180.5 -75q-68 0 -123 30zM435 252q0 42 -16 82l-184 -234q29 -16 62 -16q65 0 101.5 49.5t36.5 118.5zM159 252q0 -42 16 -82
l184 234q-29 16 -62 16q-65 0 -101.5 -49.5t-36.5 -118.5z" />
    <glyph glyph-name="ugrave" unicode="&#xf9;" 
d="M494 0h-104v86q-27 -45 -70 -69.5t-93 -24.5q-67 0 -107.5 39.5t-40.5 111.5v361h104v-328q0 -92 78 -92q52 0 90.5 58.5t38.5 157.5v204h104v-504zM302 708l68 -148h-80l-129 148h141z" />
    <glyph glyph-name="uacute" unicode="&#xfa;" 
d="M494 0h-104v86q-27 -45 -70 -69.5t-93 -24.5q-67 0 -107.5 39.5t-40.5 111.5v361h104v-328q0 -92 78 -92q52 0 90.5 58.5t38.5 157.5v204h104v-504zM202 560l68 148h141l-129 -148h-80z" />
    <glyph glyph-name="ucircumflex" unicode="&#xfb;" 
d="M494 0h-104v86q-27 -45 -70 -69.5t-93 -24.5q-67 0 -107.5 39.5t-40.5 111.5v361h104v-328q0 -92 78 -92q52 0 90.5 58.5t38.5 157.5v204h104v-504zM97 566l162 176h30l162 -176h-100l-77 80l-77 -80h-100z" />
    <glyph glyph-name="udieresis" unicode="&#xfc;" 
d="M494 0h-104v86q-27 -45 -70 -69.5t-93 -24.5q-67 0 -107.5 39.5t-40.5 111.5v361h104v-328q0 -92 78 -92q52 0 90.5 58.5t38.5 157.5v204h104v-504zM134 651q0 27 18 45t45 18t45 -18t18 -45t-18 -45t-45 -18t-45 18t-18 45zM320 651q0 27 18 45t45 18t45 -18t18 -45
t-18 -45t-45 -18t-45 18t-18 45z" />
    <glyph glyph-name="yacute" unicode="&#xfd;" horiz-adv-x="469" 
d="M8 504h110l119 -339l115 339h110l-255 -708h-104l82 229zM160 560l68 148h141l-129 -148h-80z" />
    <glyph glyph-name="thorn" unicode="&#xfe;" horiz-adv-x="601" 
d="M552 252q0 -123 -57.5 -191.5t-167.5 -68.5q-46 0 -84.5 20.5t-52.5 45.5v-262h-104v912h104v-260q18 25 58 44.5t77 19.5q111 0 169 -70t58 -190zM442 252q0 77 -36 122.5t-93 45.5t-93 -45.5t-36 -122.5t36 -122.5t93 -45.5t93 45.5t36 122.5z" />
    <glyph glyph-name="ydieresis" unicode="&#xff;" horiz-adv-x="469" 
d="M8 504h110l119 -339l115 339h110l-255 -708h-104l82 229zM82 651q0 27 18 45t45 18t45 -18t18 -45t-18 -45t-45 -18t-45 18t-18 45zM268 651q0 27 18 45t45 18t45 -18t18 -45t-18 -45t-45 -18t-45 18t-18 45z" />
    <glyph glyph-name="Amacron" unicode="&#x100;" horiz-adv-x="608" 
d="M252 700h104l243 -700h-112l-58 174h-250l-58 -174h-112zM304 561l-92 -283h184zM176 804v92h257v-92h-257z" />
    <glyph glyph-name="amacron" unicode="&#x101;" horiz-adv-x="514" 
d="M44 145q0 77 60 121t158 44h87v22q0 45 -27.5 66.5t-70.5 21.5q-69 0 -94 -67l-95 20q16 64 67 101.5t123 37.5q201 0 201 -199v-313h-88l-10 66q-53 -74 -156 -74q-67 0 -111 39t-44 114zM154 145q0 -27 16 -44t47 -17q53 0 92.5 33.5t39.5 94.5v11h-91q-48 0 -76 -21
t-28 -57zM132 608v92h257v-92h-257z" />
    <glyph glyph-name="Abreve" unicode="&#x102;" horiz-adv-x="608" 
d="M252 700h104l243 -700h-112l-58 174h-250l-58 -174h-112zM304 561l-92 -283h184zM338 896h81q0 -45 -32.5 -77t-82.5 -32t-82.5 32t-32.5 77h81q0 -16 10 -25.5t24 -9.5q15 0 24.5 9.5t9.5 25.5z" />
    <glyph glyph-name="abreve" unicode="&#x103;" horiz-adv-x="514" 
d="M44 145q0 77 60 121t158 44h87v22q0 45 -27.5 66.5t-70.5 21.5q-69 0 -94 -67l-95 20q16 64 67 101.5t123 37.5q201 0 201 -199v-313h-88l-10 66q-53 -74 -156 -74q-67 0 -111 39t-44 114zM154 145q0 -27 16 -44t47 -17q53 0 92.5 33.5t39.5 94.5v11h-91q-48 0 -76 -21
t-28 -57zM294 700h81q0 -45 -32.5 -77t-82.5 -32t-82.5 32t-32.5 77h81q0 -16 10 -25.5t24 -9.5q15 0 24.5 9.5t9.5 25.5z" />
    <glyph glyph-name="Aogonek" unicode="&#x104;" horiz-adv-x="608" 
d="M530 0h-43l-58 174h-250l-58 -174h-112l243 700h104l243 -700q-56 -49 -56 -79q0 -29 28 -29q15 0 24.5 8.5t27.5 32.5l48 -39q-26 -39 -51 -56.5t-62 -17.5q-42 0 -66.5 22.5t-24.5 62.5q0 54 63 95zM304 561l-92 -283h184z" />
    <glyph glyph-name="aogonek" unicode="&#x105;" horiz-adv-x="514" 
d="M378 0l-23 66q-53 -74 -156 -74q-67 0 -111 39t-44 114q0 77 60 121t158 44h87v22q0 45 -27.5 66.5t-70.5 21.5q-69 0 -94 -67l-95 20q16 64 67 101.5t123 37.5q201 0 201 -199v-313q-56 -49 -56 -79q0 -29 28 -29q15 0 24.5 8.5t27.5 32.5l48 -39q-26 -39 -51 -56.5
t-62 -17.5q-42 0 -66.5 22.5t-24.5 62.5q0 55 57 95zM154 145q0 -27 16 -44t47 -17q53 0 92.5 33.5t39.5 94.5v11h-91q-48 0 -76 -21t-28 -57z" />
    <glyph glyph-name="Cacute" unicode="&#x106;" horiz-adv-x="695" 
d="M658 496l-104 -26q-27 69 -68.5 101.5t-110.5 32.5q-93 0 -152.5 -65.5t-59.5 -188.5t59.5 -188.5t152.5 -65.5q69 0 110.5 32.5t68.5 101.5l104 -26q-27 -101 -100 -156.5t-183 -55.5q-135 0 -229.5 94.5t-94.5 263.5t94.5 263.5t229.5 94.5q110 0 183 -55.5t100 -156.5
zM305 756l68 148h141l-129 -148h-80z" />
    <glyph glyph-name="cacute" unicode="&#x107;" horiz-adv-x="542" 
d="M411 171l93 -40q-61 -139 -218 -139q-114 0 -175.5 74.5t-61.5 185.5t61.5 185.5t175.5 74.5q157 0 218 -139l-93 -40q-39 87 -125 87q-64 0 -95.5 -46t-31.5 -122t31.5 -122t95.5 -46q86 0 125 87zM206 560l68 148h141l-129 -148h-80z" />
    <glyph glyph-name="Ccircumflex" unicode="&#x108;" horiz-adv-x="695" 
d="M658 496l-104 -26q-27 69 -68.5 101.5t-110.5 32.5q-93 0 -152.5 -65.5t-59.5 -188.5t59.5 -188.5t152.5 -65.5q69 0 110.5 32.5t68.5 101.5l104 -26q-27 -101 -100 -156.5t-183 -55.5q-135 0 -229.5 94.5t-94.5 263.5t94.5 263.5t229.5 94.5q110 0 183 -55.5t100 -156.5
zM201 762l162 176h30l162 -176h-100l-77 80l-77 -80h-100z" />
    <glyph glyph-name="ccircumflex" unicode="&#x109;" horiz-adv-x="542" 
d="M411 171l93 -40q-61 -139 -218 -139q-114 0 -175.5 74.5t-61.5 185.5t61.5 185.5t175.5 74.5q157 0 218 -139l-93 -40q-39 87 -125 87q-64 0 -95.5 -46t-31.5 -122t31.5 -122t95.5 -46q86 0 125 87zM109 566l162 176h30l162 -176h-100l-77 80l-77 -80h-100z" />
    <glyph glyph-name="Cdotaccent" unicode="&#x10a;" horiz-adv-x="695" 
d="M658 496l-104 -26q-27 69 -68.5 101.5t-110.5 32.5q-93 0 -152.5 -65.5t-59.5 -188.5t59.5 -188.5t152.5 -65.5q69 0 110.5 32.5t68.5 101.5l104 -26q-27 -101 -100 -156.5t-183 -55.5q-135 0 -229.5 94.5t-94.5 263.5t94.5 263.5t229.5 94.5q110 0 183 -55.5t100 -156.5
zM303 842q0 30 21 51.5t51 21.5t51 -21.5t21 -51.5t-20.5 -50.5t-51.5 -20.5t-51.5 20.5t-20.5 50.5z" />
    <glyph glyph-name="cdotaccent" unicode="&#x10b;" horiz-adv-x="542" 
d="M411 171l93 -40q-61 -139 -218 -139q-114 0 -175.5 74.5t-61.5 185.5t61.5 185.5t175.5 74.5q157 0 218 -139l-93 -40q-39 87 -125 87q-64 0 -95.5 -46t-31.5 -122t31.5 -122t95.5 -46q86 0 125 87zM214 646q0 30 21 51.5t51 21.5t51 -21.5t21 -51.5t-20.5 -50.5
t-51.5 -20.5t-51.5 20.5t-20.5 50.5z" />
    <glyph glyph-name="Ccaron" unicode="&#x10c;" horiz-adv-x="695" 
d="M658 496l-104 -26q-27 69 -68.5 101.5t-110.5 32.5q-93 0 -152.5 -65.5t-59.5 -188.5t59.5 -188.5t152.5 -65.5q69 0 110.5 32.5t68.5 101.5l104 -26q-27 -101 -100 -156.5t-183 -55.5q-135 0 -229.5 94.5t-94.5 263.5t94.5 263.5t229.5 94.5q110 0 183 -55.5t100 -156.5
zM360 762l-162 176h100l77 -80l77 80h100l-162 -176h-30z" />
    <glyph glyph-name="ccaron" unicode="&#x10d;" horiz-adv-x="542" 
d="M411 171l93 -40q-61 -139 -218 -139q-114 0 -175.5 74.5t-61.5 185.5t61.5 185.5t175.5 74.5q157 0 218 -139l-93 -40q-39 87 -125 87q-64 0 -95.5 -46t-31.5 -122t31.5 -122t95.5 -46q86 0 125 87zM271 566l-162 176h100l77 -80l77 80h100l-162 -176h-30z" />
    <glyph glyph-name="Dcaron" unicode="&#x10e;" horiz-adv-x="673" 
d="M94 700h206q135 0 228.5 -91t93.5 -259t-93.5 -259t-228.5 -91h-206v700zM268 596h-64v-492h64q49 0 90 12t76.5 39t55.5 76.5t20 118.5t-20 118.5t-55.5 76.5t-76.5 39t-90 12zM268 762l-162 176h100l77 -80l77 80h100l-162 -176h-30z" />
    <glyph glyph-name="dcaron" unicode="&#x10f;" horiz-adv-x="787" 
d="M49 252q0 120 58 190t169 70q37 0 77 -19.5t58 -44.5v260h104v-708h-104v58q-14 -25 -52.5 -45.5t-84.5 -20.5q-110 0 -167.5 68.5t-57.5 191.5zM159 252q0 -77 36 -122.5t93 -45.5t93 45.5t36 122.5t-36 122.5t-93 45.5t-93 -45.5t-36 -122.5zM563 486l74 222h143
l-139 -222h-78z" />
    <glyph glyph-name="Dcroat" unicode="&#x110;" horiz-adv-x="673" 
d="M28 304v92h82v304h206q135 0 228.5 -91t93.5 -259t-93.5 -259t-228.5 -91h-206v304h-82zM284 596h-64v-200h82v-92h-82v-200h64q49 0 90 12t76.5 39t55.5 76.5t20 118.5t-20 118.5t-55.5 76.5t-76.5 39t-90 12z" />
    <glyph glyph-name="dcroat" unicode="&#x111;" horiz-adv-x="601" 
d="M290 563v84h121v61h104v-61h71v-84h-71v-563h-104v58q-14 -25 -52.5 -45.5t-84.5 -20.5q-110 0 -167.5 68.5t-57.5 191.5q0 120 58 190t169 70q37 0 77 -19.5t58 -44.5v115h-121zM159 252q0 -77 36 -122.5t93 -45.5t93 45.5t36 122.5t-36 122.5t-93 45.5t-93 -45.5
t-36 -122.5z" />
    <glyph glyph-name="Emacron" unicode="&#x112;" horiz-adv-x="568" 
d="M94 700h415v-104h-305v-172h246v-104h-246v-216h315v-104h-425v700zM176 804v92h257v-92h-257z" />
    <glyph glyph-name="emacron" unicode="&#x113;" horiz-adv-x="559" 
d="M284 420q-50 0 -82 -30.5t-41 -79.5h245q-7 47 -38 78.5t-84 31.5zM516 268v-45h-357q0 -59 33 -99t92 -40q42 0 77.5 22.5t54.5 62.5l89 -35q-38 -74 -88 -108t-133 -34q-60 0 -106.5 23.5t-73.5 62t-41 83t-14 91.5t14 91.5t41 83t73.5 62t106.5 23.5q58 0 104 -22
t73 -58t41 -78t14 -86zM157 608v92h257v-92h-257z" />
    <glyph glyph-name="Ebreve" unicode="&#x114;" horiz-adv-x="568" 
d="M94 700h415v-104h-305v-172h246v-104h-246v-216h315v-104h-425v700zM328 896h81q0 -45 -32.5 -77t-82.5 -32t-82.5 32t-32.5 77h81q0 -16 10 -25.5t24 -9.5q15 0 24.5 9.5t9.5 25.5z" />
    <glyph glyph-name="ebreve" unicode="&#x115;" horiz-adv-x="559" 
d="M284 420q-50 0 -82 -30.5t-41 -79.5h245q-7 47 -38 78.5t-84 31.5zM516 268v-45h-357q0 -59 33 -99t92 -40q42 0 77.5 22.5t54.5 62.5l89 -35q-38 -74 -88 -108t-133 -34q-60 0 -106.5 23.5t-73.5 62t-41 83t-14 91.5t14 91.5t41 83t73.5 62t106.5 23.5q58 0 104 -22
t73 -58t41 -78t14 -86zM318 700h81q0 -45 -32.5 -77t-82.5 -32t-82.5 32t-32.5 77h81q0 -16 10 -25.5t24 -9.5q15 0 24.5 9.5t9.5 25.5z" />
    <glyph glyph-name="Edotaccent" unicode="&#x116;" horiz-adv-x="568" 
d="M94 700h415v-104h-305v-172h246v-104h-246v-216h315v-104h-425v700zM233 842q0 30 21 51.5t51 21.5t51 -21.5t21 -51.5t-20.5 -50.5t-51.5 -20.5t-51.5 20.5t-20.5 50.5z" />
    <glyph glyph-name="edotaccent" unicode="&#x117;" horiz-adv-x="559" 
d="M284 420q-50 0 -82 -30.5t-41 -79.5h245q-7 47 -38 78.5t-84 31.5zM516 268v-45h-357q0 -59 33 -99t92 -40q42 0 77.5 22.5t54.5 62.5l89 -35q-38 -74 -88 -108t-133 -34q-60 0 -106.5 23.5t-73.5 62t-41 83t-14 91.5t14 91.5t41 83t73.5 62t106.5 23.5q58 0 104 -22
t73 -58t41 -78t14 -86zM212 646q0 30 21 51.5t51 21.5t51 -21.5t21 -51.5t-20.5 -50.5t-51.5 -20.5t-51.5 20.5t-20.5 50.5z" />
    <glyph glyph-name="Eogonek" unicode="&#x118;" horiz-adv-x="568" 
d="M450 0h-356v700h415v-104h-305v-172h246v-104h-246v-216h315v-104q-56 -49 -56 -79q0 -29 28 -29q15 0 24.5 8.5t27.5 32.5l48 -39q-26 -39 -51 -56.5t-62 -17.5q-42 0 -66.5 22.5t-24.5 62.5q0 54 63 95z" />
    <glyph glyph-name="eogonek" unicode="&#x119;" horiz-adv-x="559" 
d="M516 268v-45h-357q0 -59 33 -99t92 -40q42 0 77.5 22.5t54.5 62.5l89 -35q-30 -57 -64.5 -89.5t-83.5 -44.5q-56 -49 -56 -79q0 -29 28 -29q15 0 24.5 8.5t27.5 32.5l48 -39q-26 -39 -51 -56.5t-62 -17.5q-42 0 -66.5 22.5t-24.5 62.5q0 48 51 87q-112 4 -169.5 82
t-57.5 178q0 47 14 91.5t41 83t73.5 62t106.5 23.5q58 0 104 -22t73 -58t41 -78t14 -86zM284 420q-50 0 -82 -30.5t-41 -79.5h245q-7 47 -38 78.5t-84 31.5z" />
    <glyph glyph-name="Ecaron" unicode="&#x11a;" horiz-adv-x="568" 
d="M94 700h415v-104h-305v-172h246v-104h-246v-216h315v-104h-425v700zM279 762l-162 176h100l77 -80l77 80h100l-162 -176h-30z" />
    <glyph glyph-name="ecaron" unicode="&#x11b;" horiz-adv-x="559" 
d="M284 420q-50 0 -82 -30.5t-41 -79.5h245q-7 47 -38 78.5t-84 31.5zM516 268v-45h-357q0 -59 33 -99t92 -40q42 0 77.5 22.5t54.5 62.5l89 -35q-38 -74 -88 -108t-133 -34q-60 0 -106.5 23.5t-73.5 62t-41 83t-14 91.5t14 91.5t41 83t73.5 62t106.5 23.5q58 0 104 -22
t73 -58t41 -78t14 -86zM269 566l-162 176h100l77 -80l77 80h100l-162 -176h-30z" />
    <glyph glyph-name="Gcircumflex" unicode="&#x11c;" horiz-adv-x="720" 
d="M561 0l-8 87q-22 -38 -69 -66.5t-115 -28.5q-133 0 -225.5 92t-92.5 266t94 266t230 92q110 0 183.5 -59.5t95.5 -156.5l-101 -31q-50 143 -178 143q-94 0 -153 -65.5t-59 -188.5q0 -126 58.5 -190t153.5 -64q78 0 121.5 45.5t50.5 114.5h-136v97h246v-353h-96zM198 762
l162 176h30l162 -176h-100l-77 80l-77 -80h-100z" />
    <glyph glyph-name="gcircumflex" unicode="&#x11d;" horiz-adv-x="511" 
d="M87 343q0 77 51 123t129 46q50 0 92 -22l93 50l42 -75l-68 -38q22 -38 22 -84q0 -78 -51 -123.5t-130 -45.5q-43 0 -81 15q-27 -15 -27 -44q0 -39 52 -39h111q76 0 121.5 -37t45.5 -107q0 -88 -63.5 -131t-157.5 -43q-99 0 -160.5 43t-61.5 123q0 62 43 102
q-29 29 -29 79q0 67 61 102q-34 42 -34 106zM300 18h-81q-27 0 -51 3q-22 -23 -22 -61t32.5 -60t89.5 -22q54 0 84.5 20t30.5 56q0 64 -83 64zM188 343q0 -37 22 -59.5t57 -22.5q36 0 58 22.5t22 59.5t-22 59.5t-58 22.5q-35 0 -57 -22.5t-22 -59.5zM90 566l162 176h30
l162 -176h-100l-77 80l-77 -80h-100z" />
    <glyph glyph-name="Gbreve" unicode="&#x11e;" horiz-adv-x="720" 
d="M561 0l-8 87q-22 -38 -69 -66.5t-115 -28.5q-133 0 -225.5 92t-92.5 266t94 266t230 92q110 0 183.5 -59.5t95.5 -156.5l-101 -31q-50 143 -178 143q-94 0 -153 -65.5t-59 -188.5q0 -126 58.5 -190t153.5 -64q78 0 121.5 45.5t50.5 114.5h-136v97h246v-353h-96zM409 896
h81q0 -45 -32.5 -77t-82.5 -32t-82.5 32t-32.5 77h81q0 -16 9.5 -25.5t24.5 -9.5t24.5 9.5t9.5 25.5z" />
    <glyph glyph-name="gbreve" unicode="&#x11f;" horiz-adv-x="511" 
d="M87 343q0 77 51 123t129 46q50 0 92 -22l93 50l42 -75l-68 -38q22 -38 22 -84q0 -78 -51 -123.5t-130 -45.5q-43 0 -81 15q-27 -15 -27 -44q0 -39 52 -39h111q76 0 121.5 -37t45.5 -107q0 -88 -63.5 -131t-157.5 -43q-99 0 -160.5 43t-61.5 123q0 62 43 102
q-29 29 -29 79q0 67 61 102q-34 42 -34 106zM300 18h-81q-27 0 -51 3q-22 -23 -22 -61t32.5 -60t89.5 -22q54 0 84.5 20t30.5 56q0 64 -83 64zM188 343q0 -37 22 -59.5t57 -22.5q36 0 58 22.5t22 59.5t-22 59.5t-58 22.5q-35 0 -57 -22.5t-22 -59.5zM301 700h81
q0 -45 -32.5 -77t-82.5 -32t-82.5 32t-32.5 77h81q0 -16 9.5 -25.5t24.5 -9.5t24.5 9.5t9.5 25.5z" />
    <glyph glyph-name="Gdotaccent" unicode="&#x120;" horiz-adv-x="720" 
d="M561 0l-8 87q-22 -38 -69 -66.5t-115 -28.5q-133 0 -225.5 92t-92.5 266t94 266t230 92q110 0 183.5 -59.5t95.5 -156.5l-101 -31q-50 143 -178 143q-94 0 -153 -65.5t-59 -188.5q0 -126 58.5 -190t153.5 -64q78 0 121.5 45.5t50.5 114.5h-136v97h246v-353h-96zM303 842
q0 30 21 51.5t51 21.5t51 -21.5t21 -51.5t-20.5 -50.5t-51.5 -20.5t-51.5 20.5t-20.5 50.5z" />
    <glyph glyph-name="gdotaccent" unicode="&#x121;" horiz-adv-x="511" 
d="M87 343q0 77 51 123t129 46q50 0 92 -22l93 50l42 -75l-68 -38q22 -38 22 -84q0 -78 -51 -123.5t-130 -45.5q-43 0 -81 15q-27 -15 -27 -44q0 -39 52 -39h111q76 0 121.5 -37t45.5 -107q0 -88 -63.5 -131t-157.5 -43q-99 0 -160.5 43t-61.5 123q0 62 43 102
q-29 29 -29 79q0 67 61 102q-34 42 -34 106zM300 18h-81q-27 0 -51 3q-22 -23 -22 -61t32.5 -60t89.5 -22q54 0 84.5 20t30.5 56q0 64 -83 64zM188 343q0 -37 22 -59.5t57 -22.5q36 0 58 22.5t22 59.5t-22 59.5t-58 22.5q-35 0 -57 -22.5t-22 -59.5zM195 646q0 30 21 51.5
t51 21.5t51 -21.5t21 -51.5t-20.5 -50.5t-51.5 -20.5t-51.5 20.5t-20.5 50.5z" />
    <glyph glyph-name="uni0122" unicode="&#x122;" horiz-adv-x="720" 
d="M561 0l-8 87q-22 -38 -69 -66.5t-115 -28.5q-133 0 -225.5 92t-92.5 266t94 266t230 92q110 0 183.5 -59.5t95.5 -156.5l-101 -31q-50 143 -178 143q-94 0 -153 -65.5t-59 -188.5q0 -126 58.5 -190t153.5 -64q78 0 121.5 45.5t50.5 114.5h-136v97h246v-353h-96zM239 -312
l71 260h143l-136 -260h-78z" />
    <glyph glyph-name="uni0123" unicode="&#x123;" horiz-adv-x="511" 
d="M87 343q0 77 51 123t129 46q50 0 92 -22l93 50l42 -75l-68 -38q22 -38 22 -84q0 -78 -51 -123.5t-130 -45.5q-43 0 -81 15q-27 -15 -27 -44q0 -39 52 -39h111q76 0 121.5 -37t45.5 -107q0 -88 -63.5 -131t-157.5 -43q-99 0 -160.5 43t-61.5 123q0 62 43 102
q-29 29 -29 79q0 67 61 102q-34 42 -34 106zM300 18h-81q-27 0 -51 3q-22 -23 -22 -61t32.5 -60t89.5 -22q54 0 84.5 20t30.5 56q0 64 -83 64zM188 343q0 -37 22 -59.5t57 -22.5q36 0 58 22.5t22 59.5t-22 59.5t-58 22.5q-35 0 -57 -22.5t-22 -59.5zM240 798l74 -222h-78
l-139 222h143z" />
    <glyph glyph-name="Hcircumflex" unicode="&#x124;" horiz-adv-x="692" 
d="M94 0v700h110v-274h284v274h110v-700h-110v322h-284v-322h-110zM169 762l162 176h30l162 -176h-100l-77 80l-77 -80h-100z" />
    <glyph glyph-name="hcircumflex" unicode="&#x125;" horiz-adv-x="588" 
d="M86 708h104v-290q65 94 170 94q71 0 110 -39t39 -118v-355h-104v328q0 54 -20 73t-59 19q-48 0 -92 -57t-44 -150v-213h-104v708zM100 762l162 176h30l162 -176h-100l-77 80l-77 -80h-100z" />
    <glyph glyph-name="Hbar" unicode="&#x126;" horiz-adv-x="692" 
d="M18 504v92h76v104h110v-104h284v104h110v-104h76v-92h-76v-504h-110v322h-284v-322h-110v504h-76zM204 426h284v78h-284v-78z" />
    <glyph glyph-name="hbar" unicode="&#x127;" horiz-adv-x="588" 
d="M86 708h104v-61h122v-84h-122v-145q65 94 170 94q71 0 110 -39t39 -118v-355h-104v328q0 92 -79 92q-48 0 -92 -57t-44 -150v-213h-104v563h-68v84h68v61z" />
    <glyph glyph-name="Itilde" unicode="&#x128;" horiz-adv-x="298" 
d="M94 0v700h110v-700h-110zM22 773l-57 47q16 34 48 57.5t67 23.5q38 0 72.5 -20.5t58.5 -20.5q33 0 66 40l57 -47q-16 -34 -48 -57.5t-67 -23.5q-38 0 -72.5 20.5t-58.5 20.5q-33 0 -66 -40z" />
    <glyph glyph-name="itilde" unicode="&#x129;" horiz-adv-x="266" 
d="M81 504h104v-504h-104v504zM6 577l-57 47q16 34 48 57.5t67 23.5q38 0 72.5 -20.5t58.5 -20.5q33 0 66 40l57 -47q-16 -34 -48 -57.5t-67 -23.5q-38 0 -72.5 20.5t-58.5 20.5q-33 0 -66 -40z" />
    <glyph glyph-name="Imacron" unicode="&#x12a;" horiz-adv-x="298" 
d="M94 0v700h110v-700h-110zM20 804v92h257v-92h-257z" />
    <glyph glyph-name="imacron" unicode="&#x12b;" horiz-adv-x="266" 
d="M81 504h104v-504h-104v504zM5 608v92h257v-92h-257z" />
    <glyph glyph-name="Ibreve" unicode="&#x12c;" horiz-adv-x="298" 
d="M94 0v700h110v-700h-110zM183 896h81q0 -45 -32.5 -77t-82.5 -32t-82.5 32t-32.5 77h81q0 -16 9.5 -25.5t24.5 -9.5t24.5 9.5t9.5 25.5z" />
    <glyph glyph-name="ibreve" unicode="&#x12d;" horiz-adv-x="266" 
d="M81 504h104v-504h-104v504zM167 700h81q0 -45 -32.5 -77t-82.5 -32t-82.5 32t-32.5 77h81q0 -16 9.5 -25.5t24.5 -9.5t24.5 9.5t9.5 25.5z" />
    <glyph glyph-name="Iogonek" unicode="&#x12e;" horiz-adv-x="298" 
d="M94 0v700h110v-700q-56 -49 -56 -79q0 -29 28 -29q15 0 24.5 8.5t27.5 32.5l48 -39q-26 -39 -51 -56.5t-62 -17.5q-42 0 -66.5 22.5t-24.5 62.5q0 54 63 95h-41z" />
    <glyph glyph-name="iogonek" unicode="&#x12f;" horiz-adv-x="266" 
d="M116 0h-35v504h104v-504q-56 -49 -56 -79q0 -29 28 -29q15 0 24.5 8.5t27.5 32.5l48 -39q-26 -39 -51 -56.5t-62 -17.5q-42 0 -66.5 22.5t-24.5 62.5q0 54 63 95zM61 646q0 30 21 51.5t51 21.5t51 -21.5t21 -51.5t-20.5 -50.5t-51.5 -20.5t-51.5 20.5t-20.5 50.5z" />
    <glyph glyph-name="Idotaccent" unicode="&#x130;" horiz-adv-x="298" 
d="M94 0v700h110v-700h-110zM77 842q0 30 21 51.5t51 21.5t51 -21.5t21 -51.5t-20.5 -50.5t-51.5 -20.5t-51.5 20.5t-20.5 50.5z" />
    <glyph glyph-name="dotlessi" unicode="&#x131;" horiz-adv-x="266" 
d="M81 504h104v-504h-104v504z" />
    <glyph glyph-name="IJ" unicode="&#x132;" horiz-adv-x="810" 
d="M94 0v700h110v-700h-110zM622 222v478h110v-473q0 -120 -60 -177.5t-154 -57.5q-90 0 -146 52.5t-68 131.5l111 23q9 -49 35.5 -76t67.5 -27q51 0 77.5 29t26.5 97z" />
    <glyph glyph-name="ij" unicode="&#x133;" horiz-adv-x="495" 
d="M61 646q0 30 21 51.5t51 21.5t51 -21.5t21 -51.5t-20.5 -50.5t-51.5 -20.5t-51.5 20.5t-20.5 50.5zM81 504h104v-504h-104v504zM290 646q0 30 21 51.5t51 21.5t51 -21.5t21 -51.5t-20.5 -50.5t-51.5 -20.5t-51.5 20.5t-20.5 50.5zM230 -212l-26 91q53 16 79.5 46t26.5 88
v491h104v-481q0 -101 -46.5 -157.5t-137.5 -77.5z" />
    <glyph glyph-name="Jcircumflex" unicode="&#x134;" horiz-adv-x="512" 
d="M324 222v478h110v-473q0 -120 -60 -177.5t-154 -57.5q-90 0 -146 52.5t-68 131.5l111 23q9 -49 35.5 -76t67.5 -27q51 0 77.5 29t26.5 97zM201 762l162 176h30l162 -176h-100l-77 80l-77 -80h-100z" />
    <glyph glyph-name="jcircumflex" unicode="&#x135;" horiz-adv-x="266" 
d="M1 -212l-26 91q53 16 79.5 46t26.5 88v491h104v-481q0 -101 -46.5 -157.5t-137.5 -77.5zM-44 566l162 176h30l162 -176h-100l-77 80l-77 -80h-100z" />
    <glyph glyph-name="uni0136" unicode="&#x136;" horiz-adv-x="621" 
d="M94 700h110v-269l250 269h134l-282 -313l305 -387h-141l-266 343v-343h-110v700zM209 -312l71 260h143l-136 -260h-78z" />
    <glyph glyph-name="uni0137" unicode="&#x137;" horiz-adv-x="525" 
d="M86 708h104v-405l182 201h132l-211 -232l224 -272h-132l-195 241v-241h-104v708zM169 -312l71 260h143l-136 -260h-78z" />
    <glyph glyph-name="kgreenlandic" unicode="&#x138;" horiz-adv-x="525" 
d="M86 504h104v-201l189 201h132l-218 -232l224 -272h-132l-195 241v-241h-104v504z" />
    <glyph glyph-name="Lacute" unicode="&#x139;" horiz-adv-x="522" 
d="M94 700h110v-596h302v-104h-412v700zM101 756l68 148h141l-129 -148h-80z" />
    <glyph glyph-name="lacute" unicode="&#x13a;" horiz-adv-x="271" 
d="M84 708h104v-708h-104v708zM84 756l68 148h141l-129 -148h-80z" />
    <glyph glyph-name="uni013B" unicode="&#x13b;" horiz-adv-x="522" 
d="M94 700h110v-596h302v-104h-412v700zM179 -312l71 260h143l-136 -260h-78z" />
    <glyph glyph-name="uni013C" unicode="&#x13c;" horiz-adv-x="271" 
d="M84 708h104v-708h-104v708zM-5 -312l71 260h143l-136 -260h-78z" />
    <glyph glyph-name="Lcaron" unicode="&#x13d;" horiz-adv-x="522" 
d="M94 700h110v-596h302v-104h-412v700zM335 486l74 222h143l-139 -222h-78z" />
    <glyph glyph-name="lcaron" unicode="&#x13e;" horiz-adv-x="520" 
d="M84 708h104v-708h-104v708zM249 486l74 222h143l-139 -222h-78z" />
    <glyph glyph-name="Ldot" unicode="&#x13f;" horiz-adv-x="522" 
d="M94 700h110v-596h302v-104h-412v700zM391 443q31 0 52.5 -21.5t21.5 -52.5t-21.5 -52.5t-52.5 -21.5t-52.5 21.5t-21.5 52.5t21.5 52.5t52.5 21.5z" />
    <glyph glyph-name="ldot" unicode="&#x140;" horiz-adv-x="506" 
d="M84 708h104v-708h-104v708zM350 443q31 0 52.5 -21.5t21.5 -52.5t-21.5 -52.5t-52.5 -21.5t-52.5 21.5t-21.5 52.5t21.5 52.5t52.5 21.5z" />
    <glyph glyph-name="Lslash" unicode="&#x141;" horiz-adv-x="534" 
d="M44 216l-45 81l107 60v343h110v-282l107 60l45 -82l-152 -85v-207h302v-104h-412v250z" />
    <glyph glyph-name="lslash" unicode="&#x142;" horiz-adv-x="355" 
d="M123 708h104v-265l60 33l43 -81l-103 -56v-339h-104v282l-60 -33l-43 81l103 56v322z" />
    <glyph glyph-name="Nacute" unicode="&#x143;" horiz-adv-x="703" 
d="M499 700h110v-700h-118l-287 502v-502h-110v700h118l287 -504v504zM274 756l68 148h141l-129 -148h-80z" />
    <glyph glyph-name="nacute" unicode="&#x144;" 
d="M86 504h104v-86q27 45 70 69.5t93 24.5q67 0 107.5 -39.5t40.5 -111.5v-361h-104v328q0 92 -78 92q-52 0 -90.5 -58.5t-38.5 -157.5v-204h-104v504zM235 560l68 148h141l-129 -148h-80z" />
    <glyph glyph-name="uni0145" unicode="&#x145;" horiz-adv-x="703" 
d="M499 700h110v-700h-118l-287 502v-502h-110v700h118l287 -504v504zM223 -312l71 260h143l-136 -260h-78z" />
    <glyph glyph-name="uni0146" unicode="&#x146;" 
d="M86 504h104v-86q27 45 70 69.5t93 24.5q67 0 107.5 -39.5t40.5 -111.5v-361h-104v328q0 92 -78 92q-52 0 -90.5 -58.5t-38.5 -157.5v-204h-104v504zM169 -312l71 260h143l-136 -260h-78z" />
    <glyph glyph-name="Ncaron" unicode="&#x147;" horiz-adv-x="703" 
d="M499 700h110v-700h-118l-287 502v-502h-110v700h118l287 -504v504zM332 762l-162 176h100l77 -80l77 80h100l-162 -176h-30z" />
    <glyph glyph-name="ncaron" unicode="&#x148;" 
d="M86 504h104v-86q27 45 70 69.5t93 24.5q67 0 107.5 -39.5t40.5 -111.5v-361h-104v328q0 92 -78 92q-52 0 -90.5 -58.5t-38.5 -157.5v-204h-104v504zM292 566l-162 176h100l77 -80l77 80h100l-162 -176h-30z" />
    <glyph glyph-name="napostrophe" unicode="&#x149;" horiz-adv-x="729" 
d="M238 504h104v-86q27 45 70 69.5t93 24.5q67 0 107.5 -39.5t40.5 -111.5v-361h-104v328q0 92 -78 92q-52 0 -90.5 -58.5t-38.5 -157.5v-204h-104v504zM24 486l74 222h143l-139 -222h-78z" />
    <glyph glyph-name="Eng" unicode="&#x14a;" horiz-adv-x="703" 
d="M499 700h110v-700q0 -111 -59.5 -161.5t-154.5 -50.5v104q51 0 77.5 24t26.5 84l-295 502v-502h-110v700h118l287 -498v498z" />
    <glyph glyph-name="eng" unicode="&#x14b;" 
d="M317 -212l-26 91q53 16 79.5 46t26.5 88v315q0 92 -78 92q-52 0 -90.5 -58.5t-38.5 -157.5v-204h-104v504h104v-86q27 45 70 69.5t93 24.5q67 0 107.5 -39.5t40.5 -111.5v-338q0 -101 -46.5 -157.5t-137.5 -77.5z" />
    <glyph glyph-name="Omacron" unicode="&#x14c;" horiz-adv-x="744" 
d="M372 708q136 0 228.5 -93.5t92.5 -264.5t-92.5 -264.5t-228.5 -93.5t-228.5 93.5t-92.5 264.5t92.5 264.5t228.5 93.5zM372 604q-90 0 -149.5 -65t-59.5 -189t59.5 -189t149.5 -65t149.5 65t59.5 189t-59.5 189t-149.5 65zM244 804v92h257v-92h-257z" />
    <glyph glyph-name="omacron" unicode="&#x14d;" horiz-adv-x="594" 
d="M49 252q0 110 67.5 185t180.5 75t180.5 -75t67.5 -185t-67.5 -185t-180.5 -75t-180.5 75t-67.5 185zM159 252q0 -69 36.5 -118.5t101.5 -49.5t101.5 49.5t36.5 118.5t-36.5 118.5t-101.5 49.5t-101.5 -49.5t-36.5 -118.5zM169 608v92h257v-92h-257z" />
    <glyph glyph-name="Obreve" unicode="&#x14e;" horiz-adv-x="744" 
d="M372 708q136 0 228.5 -93.5t92.5 -264.5t-92.5 -264.5t-228.5 -93.5t-228.5 93.5t-92.5 264.5t92.5 264.5t228.5 93.5zM372 604q-90 0 -149.5 -65t-59.5 -189t59.5 -189t149.5 -65t149.5 65t59.5 189t-59.5 189t-149.5 65zM406 896h81q0 -45 -32.5 -77t-82.5 -32
t-82.5 32t-32.5 77h81q0 -16 10 -25.5t24 -9.5q15 0 24.5 9.5t9.5 25.5z" />
    <glyph glyph-name="obreve" unicode="&#x14f;" horiz-adv-x="594" 
d="M49 252q0 110 67.5 185t180.5 75t180.5 -75t67.5 -185t-67.5 -185t-180.5 -75t-180.5 75t-67.5 185zM159 252q0 -69 36.5 -118.5t101.5 -49.5t101.5 49.5t36.5 118.5t-36.5 118.5t-101.5 49.5t-101.5 -49.5t-36.5 -118.5zM331 700h81q0 -45 -32.5 -77t-82.5 -32t-82.5 32
t-32.5 77h81q0 -16 9.5 -25.5t24.5 -9.5t24.5 9.5t9.5 25.5z" />
    <glyph glyph-name="Ohungarumlaut" unicode="&#x150;" horiz-adv-x="744" 
d="M372 708q136 0 228.5 -93.5t92.5 -264.5t-92.5 -264.5t-228.5 -93.5t-228.5 93.5t-92.5 264.5t92.5 264.5t228.5 93.5zM372 604q-90 0 -149.5 -65t-59.5 -189t59.5 -189t149.5 -65t149.5 65t59.5 189t-59.5 189t-149.5 65zM200 756l68 140h141l-129 -140h-80zM408 756
l68 140h141l-129 -140h-80z" />
    <glyph glyph-name="ohungarumlaut" unicode="&#x151;" horiz-adv-x="594" 
d="M49 252q0 110 67.5 185t180.5 75t180.5 -75t67.5 -185t-67.5 -185t-180.5 -75t-180.5 75t-67.5 185zM159 252q0 -69 36.5 -118.5t101.5 -49.5t101.5 49.5t36.5 118.5t-36.5 118.5t-101.5 49.5t-101.5 -49.5t-36.5 -118.5zM116 560l68 140h141l-129 -140h-80zM324 560
l68 140h141l-129 -140h-80z" />
    <glyph glyph-name="OE" unicode="&#x152;" horiz-adv-x="1057" 
d="M583 700h415v-104h-305v-172h246v-104h-246v-216h315v-104h-425v69q-88 -77 -211 -77q-136 0 -228.5 93.5t-92.5 264.5t92.5 264.5t228.5 93.5q123 0 211 -77v69zM372 604q-90 0 -149.5 -65t-59.5 -189t59.5 -189t149.5 -65t149.5 65t59.5 189t-59.5 189t-149.5 65z" />
    <glyph glyph-name="oe" unicode="&#x153;" horiz-adv-x="945" 
d="M902 268v-45h-357q0 -59 33 -99t92 -40q42 0 77.5 22.5t54.5 62.5l89 -35q-38 -74 -88 -108t-133 -34q-118 0 -182 88q-68 -88 -191 -88q-113 0 -180.5 75t-67.5 185t67.5 185t180.5 75q123 0 191 -88q64 88 182 88q58 0 104 -22t73 -58t41 -78t14 -86zM159 252
q0 -69 36.5 -118.5t101.5 -49.5t101.5 49.5t36.5 118.5t-36.5 118.5t-101.5 49.5t-101.5 -49.5t-36.5 -118.5zM670 420q-50 0 -82 -30.5t-41 -79.5h245q-7 47 -38 78.5t-84 31.5z" />
    <glyph glyph-name="Racute" unicode="&#x154;" horiz-adv-x="649" 
d="M546 507q0 -72 -35.5 -120t-100.5 -65l202 -322h-130l-197 314h-81v-314h-110v700h245q98 0 152.5 -51.5t54.5 -141.5zM342 418q42 0 67 22t25 67t-25 67t-67 22h-138v-178h138zM227 756l68 148h141l-129 -148h-80z" />
    <glyph glyph-name="racute" unicode="&#x155;" horiz-adv-x="417" 
d="M190 0h-104v504h104v-84q25 44 66 68t83 24q34 0 64 -12l-18 -95q-24 15 -59 15q-55 0 -95.5 -60.5t-40.5 -172.5v-187zM174 560l68 148h141l-129 -148h-80z" />
    <glyph glyph-name="uni0156" unicode="&#x156;" horiz-adv-x="649" 
d="M546 507q0 -72 -35.5 -120t-100.5 -65l202 -322h-130l-197 314h-81v-314h-110v700h245q98 0 152.5 -51.5t54.5 -141.5zM342 418q42 0 67 22t25 67t-25 67t-67 22h-138v-178h138zM199 -312l71 260h143l-136 -260h-78z" />
    <glyph glyph-name="uni0157" unicode="&#x157;" horiz-adv-x="417" 
d="M190 0h-104v504h104v-84q25 44 66 68t83 24q34 0 64 -12l-18 -95q-24 15 -59 15q-55 0 -95.5 -60.5t-40.5 -172.5v-187zM69 -312l71 260h143l-136 -260h-78z" />
    <glyph glyph-name="Rcaron" unicode="&#x158;" horiz-adv-x="649" 
d="M546 507q0 -72 -35.5 -120t-100.5 -65l202 -322h-130l-197 314h-81v-314h-110v700h245q98 0 152.5 -51.5t54.5 -141.5zM342 418q42 0 67 22t25 67t-25 67t-67 22h-138v-178h138zM285 762l-162 176h100l77 -80l77 80h100l-162 -176h-30z" />
    <glyph glyph-name="rcaron" unicode="&#x159;" horiz-adv-x="417" 
d="M190 0h-104v504h104v-84q25 44 66 68t83 24q34 0 64 -12l-18 -95q-24 15 -59 15q-55 0 -95.5 -60.5t-40.5 -172.5v-187zM229 566l-162 176h100l77 -80l77 80h100l-162 -176h-30z" />
    <glyph glyph-name="Sacute" unicode="&#x15a;" horiz-adv-x="530" 
d="M454 590l-89 -59q-41 77 -104 77q-33 0 -53 -22t-20 -54q0 -38 31 -65.5t75 -48t88 -44t75 -66.5t31 -103q0 -95 -61.5 -154t-157.5 -59q-90 0 -151 54t-80 141l90 57q38 -148 141 -148q47 0 77 29.5t30 75.5q0 32 -22 56.5t-55 40t-72 35.5t-72 41.5t-55 60t-22 89.5
q0 79 53 131.5t130 52.5q127 0 193 -118zM189 756l68 148h141l-129 -148h-80z" />
    <glyph glyph-name="sacute" unicode="&#x15b;" horiz-adv-x="450" 
d="M234 512q46 0 85.5 -21.5t63.5 -58.5l-66 -58q-36 46 -88 46q-21 0 -35.5 -13t-14.5 -37t21.5 -39t68.5 -33q26 -10 41.5 -16.5t37 -20t33 -27t20.5 -35t9 -47.5q0 -67 -48 -113.5t-127 -46.5q-72 0 -122 40t-73 95l88 48q40 -91 111 -91q68 0 68 66q0 13 -6 22.5t-20 18
t-25.5 13.5t-34 13.5t-34.5 13.5q-108 45 -108 138q0 60 44 101.5t111 41.5zM158 560l68 148h141l-129 -148h-80z" />
    <glyph glyph-name="Scircumflex" unicode="&#x15c;" horiz-adv-x="530" 
d="M454 590l-89 -59q-41 77 -104 77q-33 0 -53 -22t-20 -54q0 -38 31 -65.5t75 -48t88 -44t75 -66.5t31 -103q0 -95 -61.5 -154t-157.5 -59q-90 0 -151 54t-80 141l90 57q38 -148 141 -148q47 0 77 29.5t30 75.5q0 32 -22 56.5t-55 40t-72 35.5t-72 41.5t-55 60t-22 89.5
q0 79 53 131.5t130 52.5q127 0 193 -118zM86 762l162 176h30l162 -176h-100l-77 80l-77 -80h-100z" />
    <glyph glyph-name="scircumflex" unicode="&#x15d;" horiz-adv-x="450" 
d="M234 512q46 0 85.5 -21.5t63.5 -58.5l-66 -58q-36 46 -88 46q-21 0 -35.5 -13t-14.5 -37t21.5 -39t68.5 -33q26 -10 41.5 -16.5t37 -20t33 -27t20.5 -35t9 -47.5q0 -67 -48 -113.5t-127 -46.5q-72 0 -122 40t-73 95l88 48q40 -91 111 -91q68 0 68 66q0 13 -6 22.5t-20 18
t-25.5 13.5t-34 13.5t-34.5 13.5q-108 45 -108 138q0 60 44 101.5t111 41.5zM57 566l162 176h30l162 -176h-100l-77 80l-77 -80h-100z" />
    <glyph glyph-name="Scedilla" unicode="&#x15e;" horiz-adv-x="530" 
d="M454 590l-89 -59q-41 77 -104 77q-33 0 -53 -22t-20 -54q0 -38 31 -65.5t75 -48t88 -44t75 -66.5t31 -103q0 -95 -61.5 -154t-157.5 -59q-90 0 -151 54t-80 141l90 57q38 -148 141 -148q47 0 77 29.5t30 75.5q0 32 -22 56.5t-55 40t-72 35.5t-72 41.5t-55 60t-22 89.5
q0 79 53 131.5t130 52.5q127 0 193 -118zM335 -60l-84 -191l-121 56l124 135h81z" />
    <glyph glyph-name="scedilla" unicode="&#x15f;" horiz-adv-x="450" 
d="M234 512q46 0 85.5 -21.5t63.5 -58.5l-66 -58q-36 46 -88 46q-21 0 -35.5 -13t-14.5 -37t21.5 -39t68.5 -33q26 -10 41.5 -16.5t37 -20t33 -27t20.5 -35t9 -47.5q0 -67 -48 -113.5t-127 -46.5q-72 0 -122 40t-73 95l88 48q40 -91 111 -91q68 0 68 66q0 13 -6 22.5t-20 18
t-25.5 13.5t-34 13.5t-34.5 13.5q-108 45 -108 138q0 60 44 101.5t111 41.5zM309 -60l-84 -191l-121 56l124 135h81z" />
    <glyph glyph-name="Scaron" unicode="&#x160;" horiz-adv-x="530" 
d="M454 590l-89 -59q-41 77 -104 77q-33 0 -53 -22t-20 -54q0 -38 31 -65.5t75 -48t88 -44t75 -66.5t31 -103q0 -95 -61.5 -154t-157.5 -59q-90 0 -151 54t-80 141l90 57q38 -148 141 -148q47 0 77 29.5t30 75.5q0 32 -22 56.5t-55 40t-72 35.5t-72 41.5t-55 60t-22 89.5
q0 79 53 131.5t130 52.5q127 0 193 -118zM247 762l-162 176h100l77 -80l77 80h100l-162 -176h-30z" />
    <glyph glyph-name="scaron" unicode="&#x161;" horiz-adv-x="453" 
d="M234 512q46 0 85.5 -21.5t63.5 -58.5l-66 -58q-36 46 -88 46q-21 0 -35.5 -13t-14.5 -37t21.5 -39t68.5 -33q26 -10 41.5 -16.5t37 -20t33 -27t20.5 -35t9 -47.5q0 -67 -48 -113.5t-127 -46.5q-72 0 -122 40t-73 95l88 48q40 -91 111 -91q68 0 68 66q0 13 -6 22.5t-20 18
t-25.5 13.5t-34 13.5t-34.5 13.5q-108 45 -108 138q0 60 44 101.5t111 41.5zM220 566l-162 176h100l77 -80l77 80h100l-162 -176h-30z" />
    <glyph glyph-name="uni0162" unicode="&#x162;" horiz-adv-x="524" 
d="M11 596v104h502v-104h-196v-596h-110v596h-196zM125 -312l71 260h143l-136 -260h-78z" />
    <glyph glyph-name="uni0163" unicode="&#x163;" horiz-adv-x="385" 
d="M21 412v92h84v139l104 65v-204h131v-92h-131v-246q0 -82 67 -82q25 0 48 14l27 -88q-37 -18 -81 -18q-75 0 -120 45.5t-45 134.5v240h-84zM109 -312l71 260h143l-136 -260h-78z" />
    <glyph glyph-name="Tcaron" unicode="&#x164;" horiz-adv-x="524" 
d="M11 596v104h502v-104h-196v-596h-110v596h-196zM247 762l-162 176h100l77 -80l77 80h100l-162 -176h-30z" />
    <glyph glyph-name="tcaron" unicode="&#x165;" horiz-adv-x="591" 
d="M21 412v92h84v139l104 65v-204h131v-92h-131v-246q0 -82 67 -82q25 0 48 14l27 -88q-37 -18 -81 -18q-75 0 -120 45.5t-45 134.5v240h-84zM377 486l74 222h143l-139 -222h-78z" />
    <glyph glyph-name="Tbar" unicode="&#x166;" horiz-adv-x="524" 
d="M11 596v104h502v-104h-196v-120h173v-92h-173v-384h-110v384h-173v92h173v120h-196z" />
    <glyph glyph-name="tbar" unicode="&#x167;" horiz-adv-x="385" 
d="M21 412v92h84v139l104 65v-204h131v-92h-131v-82h118v-84h-118v-80q0 -82 67 -82q25 0 48 14l27 -88q-37 -18 -81 -18q-75 0 -120 45.5t-45 134.5v74h-67v84h67v82h-84z" />
    <glyph glyph-name="Utilde" unicode="&#x168;" horiz-adv-x="654" 
d="M75 252v448h110v-453q0 -72 36 -111.5t106 -39.5t106 39.5t36 111.5v453h110v-448q0 -123 -70.5 -191.5t-181.5 -68.5t-181.5 69t-70.5 191zM200 773l-57 47q16 34 48 57.5t67 23.5q38 0 72.5 -20.5t58.5 -20.5q33 0 66 40l57 -47q-16 -34 -48 -57.5t-67 -23.5
q-38 0 -72.5 20.5t-58.5 20.5q-33 0 -66 -40z" />
    <glyph glyph-name="utilde" unicode="&#x169;" 
d="M494 0h-104v86q-27 -45 -70 -69.5t-93 -24.5q-67 0 -107.5 39.5t-40.5 111.5v361h104v-328q0 -92 78 -92q52 0 90.5 58.5t38.5 157.5v204h104v-504zM162 577l-57 47q16 34 48 57.5t67 23.5q38 0 72.5 -20.5t58.5 -20.5q33 0 66 40l57 -47q-16 -34 -48 -57.5t-67 -23.5
q-38 0 -72.5 20.5t-58.5 20.5q-33 0 -66 -40z" />
    <glyph glyph-name="Umacron" unicode="&#x16a;" horiz-adv-x="654" 
d="M75 252v448h110v-453q0 -72 36 -111.5t106 -39.5t106 39.5t36 111.5v453h110v-448q0 -123 -70.5 -191.5t-181.5 -68.5t-181.5 69t-70.5 191zM199 804v92h257v-92h-257z" />
    <glyph glyph-name="umacron" unicode="&#x16b;" 
d="M494 0h-104v86q-27 -45 -70 -69.5t-93 -24.5q-67 0 -107.5 39.5t-40.5 111.5v361h104v-328q0 -92 78 -92q52 0 90.5 58.5t38.5 157.5v204h104v-504zM161 608v92h257v-92h-257z" />
    <glyph glyph-name="Ubreve" unicode="&#x16c;" horiz-adv-x="654" 
d="M75 252v448h110v-453q0 -72 36 -111.5t106 -39.5t106 39.5t36 111.5v453h110v-448q0 -123 -70.5 -191.5t-181.5 -68.5t-181.5 69t-70.5 191zM361 896h81q0 -45 -32.5 -77t-82.5 -32t-82.5 32t-32.5 77h81q0 -16 9.5 -25.5t24.5 -9.5t24.5 9.5t9.5 25.5z" />
    <glyph glyph-name="ubreve" unicode="&#x16d;" 
d="M494 0h-104v86q-27 -45 -70 -69.5t-93 -24.5q-67 0 -107.5 39.5t-40.5 111.5v361h104v-328q0 -92 78 -92q52 0 90.5 58.5t38.5 157.5v204h104v-504zM322 700h81q0 -45 -32.5 -77t-82.5 -32t-82.5 32t-32.5 77h81q0 -16 10 -25.5t24 -9.5q15 0 24.5 9.5t9.5 25.5z" />
    <glyph glyph-name="Uring" unicode="&#x16e;" horiz-adv-x="654" 
d="M75 252v448h110v-453q0 -72 36 -111.5t106 -39.5t106 39.5t36 111.5v453h110v-448q0 -123 -70.5 -191.5t-181.5 -68.5t-181.5 69t-70.5 191zM226 849q0 43 29 72.5t72 29.5q44 0 72.5 -29.5t28.5 -72.5q0 -42 -28.5 -70t-72.5 -28q-43 0 -72 28.5t-29 69.5zM291 850
q0 -16 10 -26.5t26 -10.5t26 10.5t10 26.5q0 17 -10 28t-26 11t-26 -11t-10 -28z" />
    <glyph glyph-name="uring" unicode="&#x16f;" 
d="M494 0h-104v86q-27 -45 -70 -69.5t-93 -24.5q-67 0 -107.5 39.5t-40.5 111.5v361h104v-328q0 -92 78 -92q52 0 90.5 58.5t38.5 157.5v204h104v-504zM189 653q0 43 29 72.5t72 29.5q44 0 72.5 -29.5t28.5 -72.5q0 -42 -28.5 -70t-72.5 -28q-43 0 -72 28.5t-29 69.5z
M254 654q0 -16 10 -26.5t26 -10.5t26 10.5t10 26.5q0 17 -10 28t-26 11t-26 -11t-10 -28z" />
    <glyph glyph-name="Uhungarumlaut" unicode="&#x170;" horiz-adv-x="654" 
d="M75 252v448h110v-453q0 -72 36 -111.5t106 -39.5t106 39.5t36 111.5v453h110v-448q0 -123 -70.5 -191.5t-181.5 -68.5t-181.5 69t-70.5 191zM145 756l68 140h141l-129 -140h-80zM353 756l68 140h141l-129 -140h-80z" />
    <glyph glyph-name="uhungarumlaut" unicode="&#x171;" 
d="M494 0h-104v86q-27 -45 -70 -69.5t-93 -24.5q-67 0 -107.5 39.5t-40.5 111.5v361h104v-328q0 -92 78 -92q52 0 90.5 58.5t38.5 157.5v204h104v-504zM96 560l68 140h141l-129 -140h-80zM304 560l68 140h141l-129 -140h-80z" />
    <glyph glyph-name="Uogonek" unicode="&#x172;" horiz-adv-x="654" 
d="M75 252v448h110v-453q0 -72 36 -111.5t106 -39.5t106 39.5t36 111.5v453h110v-448q0 -103 -49.5 -168t-132.5 -84q-56 -49 -56 -79q0 -29 28 -29q15 0 24.5 8.5t27.5 32.5l48 -39q-26 -39 -51 -56.5t-62 -17.5q-42 0 -66.5 22.5t-24.5 62.5q0 49 51 87q-107 4 -174 72.5
t-67 187.5z" />
    <glyph glyph-name="uogonek" unicode="&#x173;" 
d="M425 0h-35v86q-27 -45 -70 -69.5t-93 -24.5q-67 0 -107.5 39.5t-40.5 111.5v361h104v-328q0 -92 78 -92q52 0 90.5 58.5t38.5 157.5v204h104v-504q-56 -49 -56 -79q0 -29 28 -29q15 0 24.5 8.5t27.5 32.5l48 -39q-26 -39 -51 -56.5t-62 -17.5q-42 0 -66.5 22.5
t-24.5 62.5q0 54 63 95z" />
    <glyph glyph-name="Wcircumflex" unicode="&#x174;" horiz-adv-x="912" 
d="M773 700h116l-185 -700h-112l-136 444l-136 -444h-112l-185 700h116l128 -544l139 470h100l139 -470zM279 762l162 176h30l162 -176h-100l-77 80l-77 -80h-100z" />
    <glyph glyph-name="wcircumflex" unicode="&#x175;" horiz-adv-x="754" 
d="M613 504h110l-160 -504h-95l-91 356l-91 -356h-95l-160 504h110l97 -368l89 368h100l89 -368zM200 566l162 176h30l162 -176h-100l-77 80l-77 -80h-100z" />
    <glyph glyph-name="Ycircumflex" unicode="&#x176;" horiz-adv-x="514" 
d="M2 700h117l138 -291l138 291h117l-200 -400v-300h-110v300zM80 762l162 176h30l162 -176h-100l-77 80l-77 -80h-100z" />
    <glyph glyph-name="ycircumflex" unicode="&#x177;" horiz-adv-x="469" 
d="M8 504h110l119 -339l115 339h110l-255 -708h-104l82 229zM60 566l162 176h30l162 -176h-100l-77 80l-77 -80h-100z" />
    <glyph glyph-name="Ydieresis" unicode="&#x178;" horiz-adv-x="514" 
d="M2 700h117l138 -291l138 291h117l-200 -400v-300h-110v300zM102 847q0 27 18 45t45 18t45 -18t18 -45t-18 -45t-45 -18t-45 18t-18 45zM288 847q0 27 18 45t45 18t45 -18t18 -45t-18 -45t-45 -18t-45 18t-18 45z" />
    <glyph glyph-name="Zacute" unicode="&#x179;" horiz-adv-x="558" 
d="M53 596v104h452v-54l-315 -542h328v-104h-480v54l319 542h-304zM193 756l68 148h141l-129 -148h-80z" />
    <glyph glyph-name="zacute" unicode="&#x17a;" horiz-adv-x="461" 
d="M61 412v92h347v-42l-227 -370h238v-92h-373v42l227 370h-212zM156 560l68 148h141l-129 -148h-80z" />
    <glyph glyph-name="Zdotaccent" unicode="&#x17b;" horiz-adv-x="558" 
d="M53 596v104h452v-54l-315 -542h328v-104h-480v54l319 542h-304zM202 842q0 30 21 51.5t51 21.5t51 -21.5t21 -51.5t-20.5 -50.5t-51.5 -20.5t-51.5 20.5t-20.5 50.5z" />
    <glyph glyph-name="zdotaccent" unicode="&#x17c;" horiz-adv-x="461" 
d="M61 412v92h347v-42l-227 -370h238v-92h-373v42l227 370h-212zM164 646q0 30 21 51.5t51 21.5t51 -21.5t21 -51.5t-20.5 -50.5t-51.5 -20.5t-51.5 20.5t-20.5 50.5z" />
    <glyph glyph-name="Zcaron" unicode="&#x17d;" horiz-adv-x="558" 
d="M53 596v104h452v-54l-315 -542h328v-104h-480v54l319 542h-304zM264 762l-162 176h100l77 -80l77 80h100l-162 -176h-30z" />
    <glyph glyph-name="zcaron" unicode="&#x17e;" horiz-adv-x="461" 
d="M61 412v92h347v-42l-227 -370h238v-92h-373v42l227 370h-212zM215 566l-162 176h100l77 -80l77 80h100l-162 -176h-30z" />
    <glyph glyph-name="longs" unicode="&#x17f;" horiz-adv-x="362" 
d="M38 412v92h65v17q0 90 48.5 138.5t130.5 48.5q51 0 91 -21l-21 -88q-32 17 -65 17q-80 0 -80 -91v-525h-104v412h-65z" />
    <glyph glyph-name="uni018E" unicode="&#x18e;" horiz-adv-x="568" 
d="M474 0h-415v104h305v172h-246v104h246v216h-315v104h425v-700z" />
    <glyph glyph-name="uni018F" unicode="&#x18f;" horiz-adv-x="559" 
d="M275 84q50 0 82 30.5t41 79.5h-245q7 -47 38 -78.5t84 -31.5zM43 236v45h357q0 59 -33 99t-92 40q-41 0 -77 -22.5t-55 -62.5l-89 35q38 74 88 108t133 34q60 0 106.5 -23.5t73.5 -62t41 -83t14 -91.5t-14 -91.5t-41 -83t-73.5 -62t-106.5 -23.5q-58 0 -104 22t-73 58
t-41 78t-14 86z" />
    <glyph glyph-name="florin" unicode="&#x192;" horiz-adv-x="478" 
d="M102 412l18 92h85l5 26q35 178 203 178q54 0 80 -18l-38 -88q-24 14 -57 14q-69 0 -83 -79l-6 -33h111l-18 -92h-111l-88 -446q-35 -178 -203 -178q-54 0 -80 18l38 88q24 -14 57 -14q67 0 83 79l89 453h-85z" />
    <glyph glyph-name="uni01B5" unicode="&#x1b5;" horiz-adv-x="558" 
d="M53 596v104h452v-54l-146 -250h125v-92h-178l-116 -200h328v-104h-480v54l147 250h-107v92h161l118 200h-304z" />
    <glyph glyph-name="uni01B6" unicode="&#x1b6;" horiz-adv-x="461" 
d="M61 412v92h347v-42l-96 -156h75v-84h-126l-80 -130h238v-92h-373v42l110 180h-84v84h136l65 106h-212z" />
    <glyph glyph-name="Aringacute" unicode="&#x1fa;" horiz-adv-x="608" 
d="M252 700h104l243 -700h-112l-58 174h-250l-58 -174h-112zM304 561l-92 -283h184zM232 956l68 148h141l-129 -148h-80zM203 823q0 43 29 72.5t72 29.5q44 0 72.5 -29.5t28.5 -72.5q0 -42 -28.5 -70t-72.5 -28q-43 0 -72 28.5t-29 69.5zM268 824q0 -16 10 -26.5t26 -10.5
t26 10.5t10 26.5q0 17 -10 28t-26 11t-26 -11t-10 -28z" />
    <glyph glyph-name="aringacute" unicode="&#x1fb;" horiz-adv-x="514" 
d="M44 145q0 77 60 121t158 44h87v22q0 45 -27.5 66.5t-70.5 21.5q-69 0 -94 -67l-95 20q16 64 67 101.5t123 37.5q201 0 201 -199v-313h-88l-10 66q-53 -74 -156 -74q-67 0 -111 39t-44 114zM154 145q0 -27 16 -44t47 -17q53 0 92.5 33.5t39.5 94.5v11h-91q-48 0 -76 -21
t-28 -57zM150 653q0 43 29 72.5t72 29.5q44 0 72.5 -29.5t28.5 -72.5q0 -42 -28.5 -70t-72.5 -28q-43 0 -72 28.5t-29 69.5zM215 654q0 -16 10 -26.5t26 -10.5t26 10.5t10 26.5q0 17 -10 28t-26 11t-26 -11t-10 -28zM182 786l68 148h141l-129 -148h-80z" />
    <glyph glyph-name="AEacute" unicode="&#x1fc;" horiz-adv-x="848" 
d="M312 700h477v-104h-305v-172h246v-104h-246v-216h315v-104h-425v174h-179l-73 -174h-112zM357 561l-118 -283h135v283h-17zM469 756l68 148h141l-129 -148h-80z" />
    <glyph glyph-name="aeacute" unicode="&#x1fd;" horiz-adv-x="859" 
d="M816 268v-45h-357q0 -59 33 -99t92 -40q42 0 77.5 22.5t54.5 62.5l89 -35q-38 -74 -88 -108t-133 -34q-136 0 -199 113q-55 -113 -186 -113q-67 0 -111 39t-44 114q0 77 60 121t158 44h87v22q0 46 -28.5 67t-72.5 21q-74 0 -96 -66l-88 19q14 64 62.5 101.5t121.5 37.5
q118 0 169 -69q64 69 167 69q58 0 104 -22t73 -58t41 -78t14 -86zM154 145q0 -27 16 -44t47 -17q53 0 92.5 33.5t39.5 94.5v15h-91q-47 0 -75.5 -23t-28.5 -59zM584 420q-50 0 -82 -30.5t-41 -79.5h245q-7 47 -38 78.5t-84 31.5zM353 560l68 148h141l-129 -148h-80z" />
    <glyph glyph-name="circumflex" unicode="&#x2c6;" horiz-adv-x="412" 
d="M29 566l162 176h30l162 -176h-100l-77 80l-77 -80h-100z" />
    <glyph glyph-name="caron" unicode="&#x2c7;" horiz-adv-x="412" 
d="M191 566l-162 176h100l77 -80l77 80h100l-162 -176h-30z" />
    <glyph glyph-name="breve" unicode="&#x2d8;" horiz-adv-x="256" 
d="M158 700h81q0 -45 -32.5 -77t-82.5 -32t-82.5 32t-32.5 77h81q0 -16 10 -25.5t24 -9.5q15 0 24.5 9.5t9.5 25.5z" />
    <glyph glyph-name="dotaccent" unicode="&#x2d9;" horiz-adv-x="279" 
d="M67 646q0 30 21 51.5t51 21.5t51 -21.5t21 -51.5t-20.5 -50.5t-51.5 -20.5t-51.5 20.5t-20.5 50.5z" />
    <glyph glyph-name="ring" unicode="&#x2da;" horiz-adv-x="234" 
d="M16 653q0 43 29 72.5t72 29.5q44 0 72.5 -29.5t28.5 -72.5q0 -42 -28.5 -70t-72.5 -28q-43 0 -72 28.5t-29 69.5zM81 654q0 -16 10 -26.5t26 -10.5t26 10.5t10 26.5q0 17 -10 28t-26 11t-26 -11t-10 -28z" />
    <glyph glyph-name="ogonek" unicode="&#x2db;" horiz-adv-x="240" 
d="M81 0h69q-56 -49 -56 -79q0 -28 28 -28q15 0 25 8.5t27 31.5l48 -39q-26 -39 -51 -56.5t-62 -17.5q-42 0 -66.5 22.5t-24.5 62.5q0 54 63 95z" />
    <glyph glyph-name="tilde" unicode="&#x2dc;" horiz-adv-x="403" 
d="M74 577l-57 47q16 34 48 57.5t67 23.5q38 0 72.5 -20.5t58.5 -20.5q33 0 66 40l57 -47q-16 -34 -48 -57.5t-67 -23.5q-38 0 -72.5 20.5t-58.5 20.5q-33 0 -66 -40z" />
    <glyph glyph-name="hungarumlaut" unicode="&#x2dd;" horiz-adv-x="450" 
d="M20 560l68 140h141l-129 -140h-80zM228 560l68 140h141l-129 -140h-80z" />
    <glyph glyph-name="pi" unicode="&#x3c0;" horiz-adv-x="608" 
d="M53 410v94h501v-94h-85v-410h-104v410h-123v-410h-104v410h-85z" />
    <glyph glyph-name="uni0400" unicode="&#x400;" horiz-adv-x="568" 
d="M94 700h415v-104h-305v-172h246v-104h-246v-216h315v-104h-425v700zM307 904l68 -148h-80l-129 148h141z" />
    <glyph glyph-name="uni0401" unicode="&#x401;" horiz-adv-x="568" 
d="M94 700h415v-104h-305v-172h246v-104h-246v-216h315v-104h-425v700zM148 847q0 27 18 45t45 18t45 -18t18 -45t-18 -45t-45 -18t-45 18t-18 45zM334 847q0 27 18 45t45 18t45 -18t18 -45t-18 -45t-45 -18t-45 18t-18 45z" />
    <glyph glyph-name="uni0402" unicode="&#x402;" horiz-adv-x="713" 
d="M450 -8l-26 91q53 16 79.5 46t26.5 88v111q0 54 -20 73t-59 19q-48 0 -92 -57t-44 -150v-213h-110v596h-196v104h502v-104h-196v-178q65 94 170 94q71 0 110 -39t39 -118v-128q0 -101 -46.5 -157.5t-137.5 -77.5z" />
    <glyph glyph-name="uni0403" unicode="&#x403;" horiz-adv-x="529" 
d="M94 700h426v-104h-316v-596h-110v700zM216 756l68 148h141l-129 -148h-80z" />
    <glyph glyph-name="uni0404" unicode="&#x404;" horiz-adv-x="683" 
d="M492 402v-104h-326q11 -100 61.5 -151t130.5 -51q63 0 112.5 38.5t71.5 99.5l104 -30q-27 -97 -106.5 -154.5t-181.5 -57.5q-133 0 -220 93.5t-87 264.5t87 264.5t220 93.5q102 0 181.5 -57.5t106.5 -154.5l-104 -30q-22 61 -71.5 99.5t-112.5 38.5q-80 0 -130.5 -51.5
t-61.5 -150.5h326z" />
    <glyph glyph-name="uni0405" unicode="&#x405;" horiz-adv-x="530" 
d="M454 590l-89 -59q-41 77 -104 77q-33 0 -53 -22t-20 -54q0 -38 31 -65.5t75 -48t88 -44t75 -66.5t31 -103q0 -95 -61.5 -154t-157.5 -59q-90 0 -151 54t-80 141l90 57q38 -148 141 -148q47 0 77 29.5t30 75.5q0 32 -22 56.5t-55 40t-72 35.5t-72 41.5t-55 60t-22 89.5
q0 79 53 131.5t130 52.5q127 0 193 -118z" />
    <glyph glyph-name="uni0406" unicode="&#x406;" horiz-adv-x="298" 
d="M94 0v700h110v-700h-110z" />
    <glyph glyph-name="uni0407" unicode="&#x407;" horiz-adv-x="298" 
d="M94 0v700h110v-700h-110zM-7 847q0 27 18 45t45 18t45 -18t18 -45t-18 -45t-45 -18t-45 18t-18 45zM179 847q0 27 18 45t45 18t45 -18t18 -45t-18 -45t-45 -18t-45 18t-18 45z" />
    <glyph glyph-name="uni0408" unicode="&#x408;" horiz-adv-x="512" 
d="M324 222v478h110v-473q0 -120 -60 -177.5t-154 -57.5q-90 0 -146 52.5t-68 131.5l111 23q9 -49 35.5 -76t67.5 -27q51 0 77.5 29t26.5 97z" />
    <glyph glyph-name="uni0409" unicode="&#x409;" horiz-adv-x="908" 
d="M110 200l37 500h342v-276h150q104 0 162 -56t58 -156t-58 -156t-162 -56h-260v596h-134l-28 -406q-7 -96 -57 -143t-150 -47v104q93 0 100 96zM624 320h-135v-216h135q123 0 123 108t-123 108z" />
    <glyph glyph-name="uni040A" unicode="&#x40a;" horiz-adv-x="955" 
d="M94 0v700h110v-276h222v276h110v-276h150q104 0 162 -56t58 -156t-58 -156t-162 -56h-260v320h-222v-320h-110zM671 320h-135v-216h135q123 0 123 108t-123 108z" />
    <glyph glyph-name="uni040B" unicode="&#x40b;" horiz-adv-x="715" 
d="M636 0h-104v328q0 54 -20 73t-59 19q-48 0 -92 -57t-44 -150v-213h-110v596h-196v104h502v-104h-196v-178q65 94 170 94q71 0 110 -39t39 -118v-355z" />
    <glyph glyph-name="uni040C" unicode="&#x40c;" horiz-adv-x="621" 
d="M94 700h110v-269l250 269h134l-282 -313l305 -387h-141l-266 343v-343h-110v700zM256 756l68 148h141l-129 -148h-80z" />
    <glyph glyph-name="uni040D" unicode="&#x40d;" horiz-adv-x="703" 
d="M94 700h110v-504l287 504h118v-700h-110v502l-287 -502h-118v700zM351 904l68 -148h-80l-129 148h141z" />
    <glyph glyph-name="uni040E" unicode="&#x40e;" horiz-adv-x="510" 
d="M2 700h110l145 -363l147 363h104l-286 -708h-104l85 211zM288 896h81q0 -45 -32.5 -77t-82.5 -32t-82.5 32t-32.5 77h81q0 -16 10 -25.5t24 -9.5q15 0 24.5 9.5t9.5 25.5z" />
    <glyph glyph-name="uni040F" unicode="&#x40f;" horiz-adv-x="692" 
d="M94 0v700h110v-596h284v596h110v-700h-197v-124h-110v124h-197z" />
    <glyph glyph-name="uni0410" unicode="&#x410;" horiz-adv-x="608" 
d="M252 700h104l243 -700h-112l-58 174h-250l-58 -174h-112zM304 561l-92 -283h184z" />
    <glyph glyph-name="uni0411" unicode="&#x411;" horiz-adv-x="623" 
d="M508 700v-104h-304v-172h150q104 0 162 -56t58 -156t-58 -156t-162 -56h-260v700h414zM339 320h-135v-216h135q123 0 123 108t-123 108z" />
    <glyph glyph-name="uni0412" unicode="&#x412;" horiz-adv-x="623" 
d="M94 700h248q90 0 143 -47.5t53 -135.5q0 -41 -20 -80t-51 -55q50 -21 78.5 -68t28.5 -108q0 -98 -58 -152t-162 -54h-260v700zM332 596h-128v-172h128q96 0 96 86t-96 86zM339 320h-135v-216h135q123 0 123 108t-123 108z" />
    <glyph glyph-name="uni0413" unicode="&#x413;" horiz-adv-x="529" 
d="M94 700h426v-104h-316v-596h-110v700z" />
    <glyph glyph-name="uni0414" unicode="&#x414;" horiz-adv-x="691" 
d="M70 -124l-13 228h54l100 596h390v-596h60l-12 -228h-94v124h-391v-124h-94zM491 596h-186l-84 -492h270v492z" />
    <glyph glyph-name="uni0415" unicode="&#x415;" horiz-adv-x="568" 
d="M94 700h415v-104h-305v-172h246v-104h-246v-216h315v-104h-425v700z" />
    <glyph glyph-name="uni0416" unicode="&#x416;" horiz-adv-x="946" 
d="M418 700h110v-269l250 269h134l-282 -313l306 -387h-142l-266 343v-343h-110v343l-266 -343h-142l306 387l-282 313h134l250 -269v269z" />
    <glyph glyph-name="uni0417" unicode="&#x417;" 
d="M59 193l103 13q19 -118 126 -118q56 0 90.5 35.5t34.5 99.5q0 66 -34.5 101.5t-90.5 35.5q-30 0 -61 -14l-42 56l145 202h-237v96h390v-36l-170 -232q12 3 29 3q80 0 128.5 -59.5t48.5 -152.5q0 -100 -66.5 -165.5t-164.5 -65.5q-91 0 -157 57t-72 144z" />
    <glyph glyph-name="uni0418" unicode="&#x418;" horiz-adv-x="703" 
d="M94 700h110v-504l287 504h118v-700h-110v502l-287 -502h-118v700z" />
    <glyph glyph-name="uni0419" unicode="&#x419;" horiz-adv-x="703" 
d="M94 700h110v-504l287 504h118v-700h-110v502l-287 -502h-118v700zM385 896h81q0 -45 -32.5 -77t-82.5 -32t-82.5 32t-32.5 77h81q0 -16 9.5 -25.5t24.5 -9.5t24.5 9.5t9.5 25.5z" />
    <glyph glyph-name="uni041A" unicode="&#x41a;" horiz-adv-x="621" 
d="M94 700h110v-269l250 269h134l-282 -313l305 -387h-141l-266 343v-343h-110v700z" />
    <glyph glyph-name="uni041B" unicode="&#x41b;" horiz-adv-x="646" 
d="M110 200l37 500h405v-700h-110v596h-197l-28 -406q-7 -96 -57 -143t-150 -47v104q93 0 100 96z" />
    <glyph glyph-name="uni041C" unicode="&#x41c;" horiz-adv-x="796" 
d="M94 0v700h130l174 -466l174 466h130v-700h-110v472l-155 -408h-78l-155 408v-472h-110z" />
    <glyph glyph-name="uni041D" unicode="&#x41d;" horiz-adv-x="692" 
d="M94 0v700h110v-274h284v274h110v-700h-110v322h-284v-322h-110z" />
    <glyph glyph-name="uni041E" unicode="&#x41e;" horiz-adv-x="744" 
d="M372 708q136 0 228.5 -93.5t92.5 -264.5t-92.5 -264.5t-228.5 -93.5t-228.5 93.5t-92.5 264.5t92.5 264.5t228.5 93.5zM372 604q-90 0 -149.5 -65t-59.5 -189t59.5 -189t149.5 -65t149.5 65t59.5 189t-59.5 189t-149.5 65z" />
    <glyph glyph-name="uni041F" unicode="&#x41f;" horiz-adv-x="692" 
d="M94 0v700h504v-700h-110v596h-284v-596h-110z" />
    <glyph glyph-name="uni0420" unicode="&#x420;" horiz-adv-x="589" 
d="M345 286h-141v-286h-110v700h251q102 0 159.5 -58t57.5 -149t-57.5 -149t-159.5 -58zM350 390q47 0 73.5 27t26.5 76t-26.5 76t-73.5 27h-146v-206h146z" />
    <glyph glyph-name="uni0421" unicode="&#x421;" horiz-adv-x="695" 
d="M658 496l-104 -26q-27 69 -68.5 101.5t-110.5 32.5q-93 0 -152.5 -65.5t-59.5 -188.5t59.5 -188.5t152.5 -65.5q69 0 110.5 32.5t68.5 101.5l104 -26q-27 -101 -100 -156.5t-183 -55.5q-135 0 -229.5 94.5t-94.5 263.5t94.5 263.5t229.5 94.5q110 0 183 -55.5t100 -156.5
z" />
    <glyph glyph-name="uni0422" unicode="&#x422;" horiz-adv-x="524" 
d="M11 596v104h502v-104h-196v-596h-110v596h-196z" />
    <glyph glyph-name="uni0423" unicode="&#x423;" horiz-adv-x="510" 
d="M2 700h110l145 -363l147 363h104l-286 -708h-104l85 211z" />
    <glyph glyph-name="uni0424" unicode="&#x424;" horiz-adv-x="782" 
d="M446 72v-72h-110v72h-6q-120 0 -200.5 77.5t-80.5 200.5t80.5 200.5t200.5 77.5h6v72h110v-72h6q120 0 200.5 -77.5t80.5 -200.5t-80.5 -200.5t-200.5 -77.5h-6zM454 536h-8v-372h8q73 0 121 53.5t48 132.5t-48 132.5t-121 53.5zM336 164v372h-8q-73 0 -121 -53.5
t-48 -132.5t48 -132.5t121 -53.5h8z" />
    <glyph glyph-name="uni0425" unicode="&#x425;" 
d="M414 700h123l-185 -324l216 -376h-125l-153 267l-153 -267h-125l216 376l-185 324h123l124 -216z" />
    <glyph glyph-name="uni0426" unicode="&#x426;" horiz-adv-x="695" 
d="M94 0v700h110v-596h284v596h110v-596h67l-12 -228h-94v124h-465z" />
    <glyph glyph-name="uni0427" unicode="&#x427;" horiz-adv-x="663" 
d="M459 0v246q-61 -50 -168 -50q-99 0 -156 60.5t-57 186.5v257h110v-249q0 -151 123 -151q91 0 148 65v335h110v-700h-110z" />
    <glyph glyph-name="uni0428" unicode="&#x428;" horiz-adv-x="982" 
d="M436 104v596h110v-596h232v596h110v-700h-794v700h110v-596h232z" />
    <glyph glyph-name="uni0429" unicode="&#x429;" horiz-adv-x="985" 
d="M436 104v596h110v-596h232v596h110v-596h67l-12 -228h-94v124h-755v700h110v-596h232z" />
    <glyph glyph-name="uni042A" unicode="&#x42a;" horiz-adv-x="669" 
d="M14 596v104h236v-276h150q104 0 162 -56t58 -156t-58 -156t-162 -56h-260v596h-126zM385 320h-135v-216h135q123 0 123 108t-123 108z" />
    <glyph glyph-name="uni042B" unicode="&#x42b;" horiz-adv-x="862" 
d="M94 0v700h110v-276h150q104 0 162 -56t58 -156t-58 -156t-162 -56h-260zM339 320h-135v-216h135q123 0 123 108t-123 108zM664 708h104v-708h-104v708z" />
    <glyph glyph-name="uni042C" unicode="&#x42c;" horiz-adv-x="623" 
d="M204 700v-276h150q104 0 162 -56t58 -156t-58 -156t-162 -56h-260v700h110zM339 320h-135v-216h135q123 0 123 108t-123 108z" />
    <glyph glyph-name="uni042D" unicode="&#x42d;" horiz-adv-x="683" 
d="M191 298v104h326q-11 99 -61.5 150.5t-130.5 51.5q-63 0 -112.5 -38.5t-71.5 -99.5l-104 30q27 97 106.5 154.5t181.5 57.5q133 0 220 -93.5t87 -264.5t-87 -264.5t-220 -93.5q-102 0 -181.5 57.5t-106.5 154.5l104 30q22 -61 71.5 -99.5t112.5 -38.5q80 0 130.5 51
t61.5 151h-326z" />
    <glyph glyph-name="uni042E" unicode="&#x42e;" horiz-adv-x="1026" 
d="M654 708q136 0 228.5 -93.5t92.5 -264.5t-92.5 -264.5t-228.5 -93.5q-125 0 -215 79.5t-104 226.5h-131v-298h-110v700h110v-298h131q14 147 104 226.5t215 79.5zM654 604q-90 0 -149.5 -65t-59.5 -189t59.5 -189t149.5 -65t149.5 65t59.5 189t-59.5 189t-149.5 65z" />
    <glyph glyph-name="uni042F" unicode="&#x42f;" horiz-adv-x="649" 
d="M103 507q0 90 54.5 141.5t152.5 51.5h245v-700h-110v314h-81l-197 -314h-130l202 322q-65 17 -100.5 65t-35.5 120zM307 418h138v178h-138q-42 0 -67 -22t-25 -67t25 -67t67 -22z" />
    <glyph glyph-name="uni0430" unicode="&#x430;" horiz-adv-x="514" 
d="M44 145q0 77 60 121t158 44h87v22q0 45 -27.5 66.5t-70.5 21.5q-69 0 -94 -67l-95 20q16 64 67 101.5t123 37.5q201 0 201 -199v-313h-88l-10 66q-53 -74 -156 -74q-67 0 -111 39t-44 114zM154 145q0 -27 16 -44t47 -17q53 0 92.5 33.5t39.5 94.5v11h-91q-48 0 -76 -21
t-28 -57z" />
    <glyph glyph-name="uni0431" unicode="&#x431;" horiz-adv-x="594" 
d="M49 310q0 208 67 299t191 91h41q56 0 75 47h65q0 -139 -140 -139h-44q-62 0 -101.5 -41.5t-43.5 -116.5q69 62 157 62q104 0 166.5 -75t62.5 -185t-67.5 -185t-180.5 -75q-115 0 -181.5 84.5t-66.5 233.5zM159 252q0 -69 36.5 -118.5t101.5 -49.5t101.5 49.5t36.5 118.5
t-36.5 118.5t-101.5 49.5t-101.5 -49.5t-36.5 -118.5z" />
    <glyph glyph-name="uni0432" unicode="&#x432;" horiz-adv-x="514" 
d="M86 504h192q72 0 116 -34.5t44 -97.5q0 -29 -14.5 -57t-36.5 -40q34 -17 55.5 -50t21.5 -77q0 -70 -44.5 -109t-123.5 -39h-210v504zM266 412h-76v-100h76q69 0 69 50t-69 50zM271 220h-81v-128h81q88 0 88 64t-88 64z" />
    <glyph glyph-name="uni0433" unicode="&#x433;" horiz-adv-x="431" 
d="M86 0v504h331v-92h-227v-412h-104z" />
    <glyph glyph-name="uni0434" unicode="&#x434;" horiz-adv-x="576" 
d="M424 -114v114h-278v-114h-94l-13 206h36l68 412h352v-412h35l-12 -206h-94zM227 412l-54 -320h218v320h-164z" />
    <glyph glyph-name="uni0435" unicode="&#x435;" horiz-adv-x="559" 
d="M284 420q-50 0 -82 -30.5t-41 -79.5h245q-7 47 -38 78.5t-84 31.5zM516 268v-45h-357q0 -59 33 -99t92 -40q42 0 77.5 22.5t54.5 62.5l89 -35q-38 -74 -88 -108t-133 -34q-60 0 -106.5 23.5t-73.5 62t-41 83t-14 91.5t14 91.5t41 83t73.5 62t106.5 23.5q58 0 104 -22
t73 -58t41 -78t14 -86z" />
    <glyph glyph-name="uni0436" unicode="&#x436;" horiz-adv-x="774" 
d="M335 504h104v-201l182 201h132l-211 -232l224 -272h-132l-195 241v-241h-104v241l-195 -241h-132l224 272l-211 232h132l182 -201v201z" />
    <glyph glyph-name="uni0437" unicode="&#x437;" horiz-adv-x="445" 
d="M48 140l100 15q6 -35 27.5 -55t51.5 -20q35 0 55 22t20 57q0 36 -19.5 58.5t-52.5 22.5q-26 0 -45 -11l-49 62l91 123h-152v90h299v-33l-125 -160q7 1 15 1q58 0 97 -42.5t39 -112.5q0 -76 -49.5 -120.5t-123.5 -44.5q-70 0 -121 41t-58 107z" />
    <glyph glyph-name="uni0438" unicode="&#x438;" horiz-adv-x="592" 
d="M86 504h104v-341l201 341h115v-504h-104v341l-201 -341h-115v504z" />
    <glyph glyph-name="uni0439" unicode="&#x439;" horiz-adv-x="592" 
d="M86 504h104v-341l201 341h115v-504h-104v341l-201 -341h-115v504zM335 700h81q0 -45 -32.5 -77t-82.5 -32t-82.5 32t-32.5 77h81q0 -16 9.5 -25.5t24.5 -9.5t24.5 9.5t9.5 25.5z" />
    <glyph glyph-name="uni043A" unicode="&#x43a;" horiz-adv-x="525" 
d="M86 504h104v-201l182 201h132l-211 -232l224 -272h-132l-195 241v-241h-104v504z" />
    <glyph glyph-name="uni043B" unicode="&#x43b;" horiz-adv-x="599" 
d="M132 168l33 336h350v-504h-104v412h-154l-30 -280q-8 -79 -53.5 -105.5t-136.5 -26.5v92q88 0 95 76z" />
    <glyph glyph-name="uni043C" unicode="&#x43c;" horiz-adv-x="648" 
d="M86 0v504h115l123 -308l123 308h115v-504h-104v303l-98 -257h-72l-98 257v-303h-104z" />
    <glyph glyph-name="uni043D" unicode="&#x43d;" horiz-adv-x="572" 
d="M86 0v504h104v-190h192v190h104v-504h-104v222h-192v-222h-104z" />
    <glyph glyph-name="uni043E" unicode="&#x43e;" horiz-adv-x="594" 
d="M49 252q0 110 67.5 185t180.5 75t180.5 -75t67.5 -185t-67.5 -185t-180.5 -75t-180.5 75t-67.5 185zM159 252q0 -69 36.5 -118.5t101.5 -49.5t101.5 49.5t36.5 118.5t-36.5 118.5t-101.5 49.5t-101.5 -49.5t-36.5 -118.5z" />
    <glyph glyph-name="uni043F" unicode="&#x43f;" horiz-adv-x="569" 
d="M86 0v504h397v-504h-104v412h-189v-412h-104z" />
    <glyph glyph-name="uni0440" unicode="&#x440;" horiz-adv-x="601" 
d="M552 252q0 -120 -58 -190t-169 -70q-44 0 -80 18.5t-55 45.5v-260h-104v708h104v-58q14 25 52.5 45.5t84.5 20.5q110 0 167.5 -68.5t57.5 -191.5zM442 252q0 77 -36 122.5t-93 45.5t-93 -45.5t-36 -122.5t36 -122.5t93 -45.5t93 45.5t36 122.5z" />
    <glyph glyph-name="uni0441" unicode="&#x441;" horiz-adv-x="542" 
d="M411 171l93 -40q-61 -139 -218 -139q-114 0 -175.5 74.5t-61.5 185.5t61.5 185.5t175.5 74.5q157 0 218 -139l-93 -40q-39 87 -125 87q-64 0 -95.5 -46t-31.5 -122t31.5 -122t95.5 -46q86 0 125 87z" />
    <glyph glyph-name="uni0442" unicode="&#x442;" horiz-adv-x="445" 
d="M35 412v92h375v-92h-136v-412h-104v412h-135z" />
    <glyph glyph-name="uni0443" unicode="&#x443;" horiz-adv-x="469" 
d="M8 504h110l119 -339l115 339h110l-255 -708h-104l82 229z" />
    <glyph glyph-name="uni0444" unicode="&#x444;" horiz-adv-x="718" 
d="M411 -8v-196h-104v196q-115 0 -186.5 75t-71.5 185t71.5 185t186.5 75v196h104v-196q115 0 186.5 -75t71.5 -185t-71.5 -185t-186.5 -75zM417 420h-6v-336h6q65 0 103.5 49t38.5 119t-38.5 119t-103.5 49zM307 84v336h-6q-65 0 -103.5 -49t-38.5 -119t38.5 -119
t103.5 -49h6z" />
    <glyph glyph-name="uni0445" unicode="&#x445;" horiz-adv-x="470" 
d="M327 504h112l-148 -238l166 -266h-112l-110 176l-110 -176h-112l166 266l-148 238h112l92 -148z" />
    <glyph glyph-name="uni0446" unicode="&#x446;" horiz-adv-x="564" 
d="M483 92h35l-12 -206h-94v114h-326v504h104v-412h189v412h104v-412z" />
    <glyph glyph-name="uni0447" unicode="&#x447;" horiz-adv-x="576" 
d="M490 0h-104v159q-41 -37 -75 -52t-83 -15q-67 0 -107.5 39.5t-40.5 111.5v261h104v-228q0 -92 78 -92q72 0 124 99v221h104v-504z" />
    <glyph glyph-name="uni0448" unicode="&#x448;" horiz-adv-x="826" 
d="M361 92v412h104v-412h171v412h104v-504h-654v504h104v-412h171z" />
    <glyph glyph-name="uni0449" unicode="&#x449;" horiz-adv-x="821" 
d="M740 92h35l-12 -206h-94v114h-583v504h104v-412h171v412h104v-412h171v412h104v-412z" />
    <glyph glyph-name="uni044A" unicode="&#x44a;" horiz-adv-x="550" 
d="M35 412v92h191v-192h106q78 0 123 -42.5t45 -113.5t-45 -113.5t-123 -42.5h-210v412h-87zM307 220h-81v-128h81q88 0 88 64t-88 64z" />
    <glyph glyph-name="uni044B" unicode="&#x44b;" horiz-adv-x="773" 
d="M86 0v504h104v-192h106q78 0 123 -42.5t45 -113.5t-45 -113.5t-123 -42.5h-210zM271 220h-81v-128h81q88 0 88 64t-88 64zM583 504h104v-504h-104v504z" />
    <glyph glyph-name="uni044C" unicode="&#x44c;" horiz-adv-x="514" 
d="M86 0v504h104v-192h106q78 0 123 -42.5t45 -113.5t-45 -113.5t-123 -42.5h-210zM271 220h-81v-128h81q88 0 88 64t-88 64z" />
    <glyph glyph-name="uni044D" unicode="&#x44d;" horiz-adv-x="546" 
d="M38 118l89 47q43 -81 126 -81q56 0 89.5 32.5t42.5 89.5h-229v92h229q-9 56 -42.5 89t-89.5 33q-83 0 -126 -81l-89 47q66 126 215 126q115 0 179.5 -74t64.5 -186t-64.5 -186t-179.5 -74q-149 0 -215 126z" />
    <glyph glyph-name="uni044E" unicode="&#x44e;" horiz-adv-x="845" 
d="M86 504h104v-206h80q13 93 78.5 153.5t166.5 60.5q113 0 180.5 -75t67.5 -185t-67.5 -185t-180.5 -75q-101 0 -166.5 60t-78.5 154h-80v-206h-104v504zM377 252q0 -69 36.5 -118.5t101.5 -49.5t101.5 49.5t36.5 118.5t-36.5 118.5t-101.5 49.5t-101.5 -49.5t-36.5 -118.5
z" />
    <glyph glyph-name="uni044F" unicode="&#x44f;" horiz-adv-x="488" 
d="M55 365q0 63 44 101t116 38h187v-504h-104v226h-41l-121 -226h-112l130 232q-46 14 -72.5 48t-26.5 85zM212 318h86v94h-86q-59 0 -59 -47t59 -47z" />
    <glyph glyph-name="uni0450" unicode="&#x450;" horiz-adv-x="559" 
d="M284 420q-50 0 -82 -30.5t-41 -79.5h245q-7 47 -38 78.5t-84 31.5zM516 268v-45h-357q0 -59 33 -99t92 -40q42 0 77.5 22.5t54.5 62.5l89 -35q-38 -74 -88 -108t-133 -34q-60 0 -106.5 23.5t-73.5 62t-41 83t-14 91.5t14 91.5t41 83t73.5 62t106.5 23.5q58 0 104 -22
t73 -58t41 -78t14 -86zM276 708l68 -148h-80l-129 148h141z" />
    <glyph glyph-name="uni0451" unicode="&#x451;" horiz-adv-x="559" 
d="M284 420q-50 0 -82 -30.5t-41 -79.5h245q-7 47 -38 78.5t-84 31.5zM516 268v-45h-357q0 -59 33 -99t92 -40q42 0 77.5 22.5t54.5 62.5l89 -35q-38 -74 -88 -108t-133 -34q-60 0 -106.5 23.5t-73.5 62t-41 83t-14 91.5t14 91.5t41 83t73.5 62t106.5 23.5q58 0 104 -22
t73 -58t41 -78t14 -86zM128 651q0 27 18 45t45 18t45 -18t18 -45t-18 -45t-45 -18t-45 18t-18 45zM314 651q0 27 18 45t45 18t45 -18t18 -45t-18 -45t-45 -18t-45 18t-18 45z" />
    <glyph glyph-name="uni0452" unicode="&#x452;" horiz-adv-x="588" 
d="M86 708h104v-61h122v-84h-122v-145q65 94 170 94q71 0 110 -39t39 -118v-332q0 -101 -46.5 -157.5t-137.5 -77.5l-26 91q53 16 79.5 46t26.5 88v315q0 54 -20 73t-59 19q-48 0 -92 -57t-44 -150v-213h-104v563h-68v84h68v61z" />
    <glyph glyph-name="uni0453" unicode="&#x453;" horiz-adv-x="431" 
d="M86 0v504h331v-92h-227v-412h-104zM164 560l68 148h141l-129 -148h-80z" />
    <glyph glyph-name="uni0454" unicode="&#x454;" horiz-adv-x="546" 
d="M419 165l89 -47q-66 -126 -215 -126q-115 0 -179.5 74t-64.5 186t64.5 186t179.5 74q149 0 215 -126l-89 -47q-43 81 -126 81q-56 0 -89.5 -33t-42.5 -89h229v-92h-229q9 -57 42.5 -89.5t89.5 -32.5q83 0 126 81z" />
    <glyph glyph-name="uni0455" unicode="&#x455;" horiz-adv-x="450" 
d="M234 512q46 0 85.5 -21.5t63.5 -58.5l-66 -58q-36 46 -88 46q-21 0 -35.5 -13t-14.5 -37t21.5 -39t68.5 -33q26 -10 41.5 -16.5t37 -20t33 -27t20.5 -35t9 -47.5q0 -67 -48 -113.5t-127 -46.5q-72 0 -122 40t-73 95l88 48q40 -91 111 -91q68 0 68 66q0 13 -6 22.5t-20 18
t-25.5 13.5t-34 13.5t-34.5 13.5q-108 45 -108 138q0 60 44 101.5t111 41.5z" />
    <glyph glyph-name="uni0456" unicode="&#x456;" horiz-adv-x="266" 
d="M61 646q0 30 21 51.5t51 21.5t51 -21.5t21 -51.5t-20.5 -50.5t-51.5 -20.5t-51.5 20.5t-20.5 50.5zM81 504h104v-504h-104v504z" />
    <glyph glyph-name="uni0457" unicode="&#x457;" horiz-adv-x="266" 
d="M-23 651q0 27 18 45t45 18t45 -18t18 -45t-18 -45t-45 -18t-45 18t-18 45zM163 651q0 27 18 45t45 18t45 -18t18 -45t-18 -45t-45 -18t-45 18t-18 45zM81 504h104v-504h-104v504z" />
    <glyph glyph-name="uni0458" unicode="&#x458;" horiz-adv-x="266" 
d="M61 646q0 30 21 51.5t51 21.5t51 -21.5t21 -51.5t-20.5 -50.5t-51.5 -20.5t-51.5 20.5t-20.5 50.5zM1 -212l-26 91q53 16 79.5 46t26.5 88v491h104v-481q0 -101 -46.5 -157.5t-137.5 -77.5z" />
    <glyph glyph-name="uni0459" unicode="&#x459;" horiz-adv-x="796" 
d="M257 412l-30 -280q-8 -79 -53.5 -105.5t-136.5 -26.5v92q88 0 95 76l33 336h307v-192h106q78 0 123 -42.5t45 -113.5t-45 -113.5t-123 -42.5h-210v412h-111zM553 220h-81v-128h81q88 0 88 64t-88 64z" />
    <glyph glyph-name="uni045A" unicode="&#x45a;" horiz-adv-x="815" 
d="M84 504h104v-192h199v192h104v-192h106q78 0 123 -42.5t45 -113.5t-45 -113.5t-123 -42.5h-210v220h-199v-220h-104v504zM572 220h-81v-128h81q88 0 88 64t-88 64z" />
    <glyph glyph-name="uni045B" unicode="&#x45b;" horiz-adv-x="588" 
d="M86 708h104v-61h122v-84h-122v-145q65 94 170 94q71 0 110 -39t39 -118v-355h-104v328q0 92 -79 92q-48 0 -92 -57t-44 -150v-213h-104v563h-68v84h68v61z" />
    <glyph glyph-name="uni045C" unicode="&#x45c;" horiz-adv-x="525" 
d="M86 504h104v-201l182 201h132l-211 -232l224 -272h-132l-195 241v-241h-104v504zM209 560l68 148h141l-129 -148h-80z" />
    <glyph glyph-name="uni045D" unicode="&#x45d;" horiz-adv-x="592" 
d="M86 504h104v-341l201 341h115v-504h-104v341l-201 -341h-115v504zM302 708l68 -148h-80l-129 148h141z" />
    <glyph glyph-name="uni045E" unicode="&#x45e;" horiz-adv-x="469" 
d="M8 504h110l119 -339l115 339h110l-255 -708h-104l82 229zM271 700h81q0 -45 -32.5 -77t-82.5 -32t-82.5 32t-32.5 77h81q0 -16 9.5 -25.5t24.5 -9.5t24.5 9.5t9.5 25.5z" />
    <glyph glyph-name="uni045F" unicode="&#x45f;" horiz-adv-x="570" 
d="M484 504v-504h-147v-114h-104v114h-147v504h104v-412h190v412h104z" />
    <glyph glyph-name="endash" unicode="&#x2013;" horiz-adv-x="581" 
d="M68 271v92h445v-92h-445z" />
    <glyph glyph-name="emdash" unicode="&#x2014;" horiz-adv-x="779" 
d="M68 271v92h643v-92h-643z" />
    <glyph glyph-name="quoteleft" unicode="&#x2018;" horiz-adv-x="318" 
d="M197 708l74 -222h-78l-139 222h143z" />
    <glyph glyph-name="quoteright" unicode="&#x2019;" horiz-adv-x="318" 
d="M47 486l74 222h143l-139 -222h-78z" />
    <glyph glyph-name="quotesinglbase" unicode="&#x201a;" horiz-adv-x="318" 
d="M47 -14l74 222h143l-139 -222h-78z" />
    <glyph glyph-name="quotedblleft" unicode="&#x201c;" horiz-adv-x="516" 
d="M395 708l74 -222h-78l-139 222h143zM197 708l74 -222h-78l-139 222h143z" />
    <glyph glyph-name="quotedblright" unicode="&#x201d;" horiz-adv-x="516" 
d="M245 486l74 222h143l-139 -222h-78zM47 486l74 222h143l-139 -222h-78z" />
    <glyph glyph-name="quotedblbase" unicode="&#x201e;" horiz-adv-x="516" 
d="M47 -14l74 222h143l-139 -222h-78zM245 -14l74 222h143l-139 -222h-78z" />
    <glyph glyph-name="dagger" unicode="&#x2020;" horiz-adv-x="466" 
d="M56 412v92h127v246h100v-246h127v-92h-127v-462h-100v462h-127z" />
    <glyph glyph-name="daggerdbl" unicode="&#x2021;" horiz-adv-x="466" 
d="M56 412v92h127v246h100v-246h127v-92h-127v-124h127v-92h-127v-246h-100v246h-127v92h127v124h-127z" />
    <glyph glyph-name="bullet" unicode="&#x2022;" horiz-adv-x="372" 
d="M81 330q0 44 30.5 74.5t74.5 30.5t74.5 -30.5t30.5 -74.5t-30.5 -74.5t-74.5 -30.5t-74.5 30.5t-30.5 74.5z" />
    <glyph glyph-name="ellipsis" unicode="&#x2026;" horiz-adv-x="854" 
d="M159 143q31 0 52.5 -21.5t21.5 -52.5t-21.5 -52.5t-52.5 -21.5t-52.5 21.5t-21.5 52.5t21.5 52.5t52.5 21.5zM427 143q31 0 52.5 -21.5t21.5 -52.5t-21.5 -52.5t-52.5 -21.5t-52.5 21.5t-21.5 52.5t21.5 52.5t52.5 21.5zM695 143q31 0 52.5 -21.5t21.5 -52.5t-21.5 -52.5
t-52.5 -21.5t-52.5 21.5t-21.5 52.5t21.5 52.5t52.5 21.5z" />
    <glyph glyph-name="perthousand" unicode="&#x2030;" horiz-adv-x="1240" 
d="M55 548q0 67 47 113.5t115 46.5t115 -46.5t47 -113.5t-47 -113.5t-115 -46.5t-115 46.5t-47 113.5zM143 548q0 -34 20 -55.5t54 -21.5t54 21.5t20 55.5t-20 55.5t-54 21.5t-54 -21.5t-20 -55.5zM461 152q0 67 47 113.5t115 46.5t115 -46.5t47 -113.5t-47 -113.5
t-115 -46.5t-115 46.5t-47 113.5zM549 152q0 -34 20 -55.5t54 -21.5t54 21.5t20 55.5t-20 55.5t-54 21.5t-54 -21.5t-20 -55.5zM861 152q0 67 47 113.5t115 46.5t115 -46.5t47 -113.5t-47 -113.5t-115 -46.5t-115 46.5t-47 113.5zM949 152q0 -34 20 -55.5t54 -21.5t54 21.5
t20 55.5t-20 55.5t-54 21.5t-54 -21.5t-20 -55.5zM663 733l58 -45l-539 -720l-58 45z" />
    <glyph glyph-name="guilsinglleft" unicode="&#x2039;" horiz-adv-x="392" 
d="M46 274v72l293 206v-107l-189 -135l189 -135v-107z" />
    <glyph glyph-name="guilsinglright" unicode="&#x203a;" horiz-adv-x="392" 
d="M346 346v-72l-293 -206v107l189 135l-189 135v107z" />
    <glyph glyph-name="fraction" unicode="&#x2044;" horiz-adv-x="611" 
d="M546 733l58 -45l-539 -720l-58 45z" />
    <glyph glyph-name="zerosuperior" unicode="&#x2070;" horiz-adv-x="406" 
d="M203 704q74 0 116.5 -54t42.5 -150t-42.5 -150t-116.5 -54t-116.5 54t-42.5 150t42.5 150t116.5 54zM203 632q-35 0 -57 -33t-22 -99t22 -99t57 -33t57 33t22 99t-22 99t-57 33z" />
    <glyph glyph-name="foursuperior" unicode="&#x2074;" horiz-adv-x="344" 
d="M197 300v71h-167v35l160 294h84v-257h44v-72h-44v-71h-77zM123 443h74v143z" />
    <glyph glyph-name="fivesuperior" unicode="&#x2075;" horiz-adv-x="345" 
d="M45 409l75 10q10 -51 58 -51q61 0 61 63q0 69 -61 69q-37 0 -64 -29l-61 13l22 216h217v-72h-152l-12 -82q25 19 66 19q57 0 91 -37.5t34 -96.5q0 -61 -39.5 -98t-101.5 -37q-52 0 -90 31.5t-43 81.5z" />
    <glyph glyph-name="sixsuperior" unicode="&#x2076;" horiz-adv-x="366" 
d="M200 559q53 0 87 -35.5t34 -96.5q0 -58 -38 -94.5t-99 -36.5t-99 37t-38 94q0 44 19 78l111 199h88l-89 -149q10 4 24 4zM184 487q-25 0 -41 -16.5t-16 -43.5q0 -26 16 -42.5t41 -16.5t41 16.5t16 42.5q0 27 -16 43.5t-41 16.5z" />
    <glyph glyph-name="sevensuperior" unicode="&#x2077;" horiz-adv-x="338" 
d="M293 700v-30l-152 -370h-80l135 328h-153v72h250z" />
    <glyph glyph-name="eightsuperior" unicode="&#x2078;" horiz-adv-x="356" 
d="M178 704q54 0 87 -31t33 -77q0 -24 -12.5 -46.5t-32.5 -33.5q58 -31 58 -93q0 -58 -36.5 -92.5t-96.5 -34.5t-96.5 34.5t-36.5 92.5q0 62 58 93q-20 11 -32.5 33.5t-12.5 46.5q0 46 33 77t87 31zM178 478q-26 0 -39.5 -15t-13.5 -40t13.5 -40t39.5 -15t39.5 15t13.5 40
t-13.5 40t-39.5 15zM178 646q-22 0 -35.5 -14t-13.5 -36t13.5 -36t35.5 -14t35.5 14t13.5 36t-13.5 36t-35.5 14z" />
    <glyph glyph-name="ninesuperior" unicode="&#x2079;" horiz-adv-x="366" 
d="M166 441q-53 0 -87 35.5t-34 96.5q0 58 38 94.5t99 36.5t99 -37t38 -94q0 -44 -19 -78l-111 -199h-88l88 148q-7 -3 -23 -3zM182 513q25 0 41 16.5t16 43.5q0 26 -16 42.5t-41 16.5t-41 -16.5t-16 -42.5q0 -27 16 -43.5t41 -16.5z" />
    <glyph glyph-name="zeroinferior" unicode="&#x2080;" horiz-adv-x="406" 
d="M203 200q74 0 116.5 -54t42.5 -150t-42.5 -150t-116.5 -54t-116.5 54t-42.5 150t42.5 150t116.5 54zM203 128q-35 0 -57 -33t-22 -99t22 -99t57 -33t57 33t22 99t-22 99t-57 33z" />
    <glyph glyph-name="oneinferior" unicode="&#x2081;" horiz-adv-x="298" 
d="M185 196h30v-400h-77v292l-84 -40v85z" />
    <glyph glyph-name="twoinferior" unicode="&#x2082;" horiz-adv-x="381" 
d="M58 -204v30l151 186q25 31 25 67q0 23 -12.5 36t-32.5 13q-49 0 -54 -60l-73 20q5 49 40.5 80.5t86.5 31.5q57 0 91 -32t34 -87q0 -54 -39 -101l-92 -112h139v-72h-264z" />
    <glyph glyph-name="threeinferior" unicode="&#x2083;" horiz-adv-x="388" 
d="M58 -87l70 10q4 -28 22 -43.5t43 -15.5q56 0 56 67q0 29 -15 45t-41 16q-21 0 -38 -12l-36 47l73 97h-117v72h230v-29l-91 -120q51 0 83 -34t32 -85q0 -62 -35 -99t-101 -37q-58 0 -95 34t-40 87z" />
    <glyph glyph-name="fourinferior" unicode="&#x2084;" horiz-adv-x="344" 
d="M197 -204v71h-167v35l160 294h84v-257h44v-72h-44v-71h-77zM123 -61h74v143z" />
    <glyph glyph-name="fiveinferior" unicode="&#x2085;" horiz-adv-x="345" 
d="M45 -95l75 10q10 -51 58 -51q61 0 61 63q0 69 -61 69q-37 0 -64 -29l-61 13l22 216h217v-72h-152l-12 -82q25 19 66 19q57 0 91 -37.5t34 -96.5q0 -61 -39.5 -98t-101.5 -37q-52 0 -90 31.5t-43 81.5z" />
    <glyph glyph-name="sixinferior" unicode="&#x2086;" horiz-adv-x="366" 
d="M200 55q53 0 87 -35.5t34 -96.5q0 -58 -38 -94.5t-99 -36.5t-99 37t-38 94q0 44 19 78l111 199h88l-89 -149q10 4 24 4zM184 -17q-25 0 -41 -16.5t-16 -43.5q0 -26 16 -42.5t41 -16.5t41 16.5t16 42.5q0 27 -16 43.5t-41 16.5z" />
    <glyph glyph-name="seveninferior" unicode="&#x2087;" horiz-adv-x="338" 
d="M293 196v-30l-152 -370h-80l135 328h-153v72h250z" />
    <glyph glyph-name="eightinferior" unicode="&#x2088;" horiz-adv-x="356" 
d="M178 200q54 0 87 -31t33 -77q0 -24 -12.5 -46.5t-32.5 -33.5q58 -31 58 -93q0 -58 -36.5 -92.5t-96.5 -34.5t-96.5 34.5t-36.5 92.5q0 62 58 93q-20 11 -32.5 33.5t-12.5 46.5q0 46 33 77t87 31zM178 -26q-26 0 -39.5 -15t-13.5 -40t13.5 -40t39.5 -15t39.5 15t13.5 40
t-13.5 40t-39.5 15zM178 142q-22 0 -35.5 -14t-13.5 -36t13.5 -36t35.5 -14t35.5 14t13.5 36t-13.5 36t-35.5 14z" />
    <glyph glyph-name="nineinferior" unicode="&#x2089;" horiz-adv-x="366" 
d="M166 -59q-53 0 -87 35.5t-34 96.5q0 58 38 94.5t99 36.5t99 -37t38 -94q0 -44 -19 -78l-111 -199h-88l88 148q-7 -3 -23 -3zM182 13q25 0 41 16.5t16 43.5q0 26 -16 42.5t-41 16.5t-41 -16.5t-16 -42.5q0 -27 16 -43.5t41 -16.5z" />
    <glyph glyph-name="Euro" unicode="&#x20ac;" horiz-adv-x="633" 
d="M29 380l46 92h52q21 116 91 176t172 60q143 0 204 -114l-88 -50q-43 70 -116 70q-127 0 -156 -142h213l-46 -92h-176v-60h222l-46 -92h-167q28 -142 156 -142q73 0 116 70l88 -50q-61 -114 -204 -114q-102 0 -172 60t-91 176h-98l46 92h44v60h-90z" />
    <glyph glyph-name="trademark" unicode="&#x2122;" horiz-adv-x="832" 
d="M25 624v76h294v-76h-105v-324h-84v324h-105zM381 300v400h85l101 -244l101 244h85v-400h-84v226l-75 -189h-54l-75 189v-226h-84z" />
    <glyph glyph-name="Omega" unicode="&#x2126;" horiz-adv-x="692" 
d="M72 0v94h128q-4 7 -11 19t-24.5 49.5t-31 76.5t-24.5 94t-11 107q0 115 68.5 191.5t179.5 76.5t179.5 -76.5t68.5 -191.5q0 -82 -25.5 -168.5t-50.5 -131.5l-26 -46h128v-94h-233v36q4 8 11 22.5t24.5 59.5t31 90.5t24.5 109.5t11 122q0 174 -143 174t-143 -174
q0 -92 25.5 -193t51.5 -156l25 -55v-36h-233z" />
    <glyph glyph-name="onethird" unicode="&#x2153;" horiz-adv-x="908" 
d="M663 733l58 -45l-539 -720l-58 45zM205 700h30v-400h-77v292l-84 -40v85zM561 117l70 10q4 -28 22 -43.5t43 -15.5q56 0 56 67q0 29 -15 45t-41 16q-21 0 -38 -12l-36 47l73 97h-117v72h230v-29l-91 -120q51 0 83 -34t32 -85q0 -62 -35 -99t-101 -37q-58 0 -95 34t-40 87
z" />
    <glyph glyph-name="twothirds" unicode="&#x2154;" horiz-adv-x="935" 
d="M588 117l70 10q4 -28 22 -43.5t43 -15.5q56 0 56 67q0 29 -15 45t-41 16q-21 0 -38 -12l-36 47l73 97h-117v72h230v-29l-91 -120q51 0 83 -34t32 -85q0 -62 -35 -99t-101 -37q-58 0 -95 34t-40 87zM694 733l58 -45l-539 -720l-58 45zM38 300v30l151 186q25 31 25 67
q0 23 -12.5 36t-32.5 13q-49 0 -54 -60l-73 20q5 49 40.5 80.5t86.5 31.5q57 0 91 -32t34 -87q0 -54 -39 -101l-92 -112h139v-72h-264z" />
    <glyph glyph-name="oneeighth" unicode="&#x215b;" horiz-adv-x="880" 
d="M205 700h30v-400h-77v292l-84 -40v85zM663 733l58 -45l-539 -720l-58 45zM678 404q54 0 87 -31t33 -77q0 -24 -12.5 -46.5t-32.5 -33.5q58 -31 58 -93q0 -58 -36.5 -92.5t-96.5 -34.5t-96.5 34.5t-36.5 92.5q0 62 58 93q-20 11 -32.5 33.5t-12.5 46.5q0 46 33 77t87 31z
M678 178q-26 0 -39.5 -15t-13.5 -40t13.5 -40t39.5 -15t39.5 15t13.5 40t-13.5 40t-39.5 15zM678 346q-22 0 -35.5 -14t-13.5 -36t13.5 -36t35.5 -14t35.5 14t13.5 36t-13.5 36t-35.5 14z" />
    <glyph glyph-name="threeeighths" unicode="&#x215c;" horiz-adv-x="907" 
d="M705 404q54 0 87 -31t33 -77q0 -24 -12.5 -46.5t-32.5 -33.5q58 -31 58 -93q0 -58 -36.5 -92.5t-96.5 -34.5t-96.5 34.5t-36.5 92.5q0 62 58 93q-20 11 -32.5 33.5t-12.5 46.5q0 46 33 77t87 31zM705 178q-26 0 -39.5 -15t-13.5 -40t13.5 -40t39.5 -15t39.5 15t13.5 40
t-13.5 40t-39.5 15zM705 346q-22 0 -35.5 -14t-13.5 -36t13.5 -36t35.5 -14t35.5 14t13.5 36t-13.5 36t-35.5 14zM690 733l58 -45l-539 -720l-58 45zM58 417l70 10q4 -28 22 -43.5t43 -15.5q56 0 56 67q0 29 -15 45t-41 16q-21 0 -38 -12l-36 47l73 97h-117v72h230v-29
l-91 -120q51 0 83 -34t32 -85q0 -62 -35 -99t-101 -37q-58 0 -95 34t-40 87z" />
    <glyph glyph-name="fiveeighths" unicode="&#x215d;" horiz-adv-x="907" 
d="M705 404q54 0 87 -31t33 -77q0 -24 -12.5 -46.5t-32.5 -33.5q58 -31 58 -93q0 -58 -36.5 -92.5t-96.5 -34.5t-96.5 34.5t-36.5 92.5q0 62 58 93q-20 11 -32.5 33.5t-12.5 46.5q0 46 33 77t87 31zM705 178q-26 0 -39.5 -15t-13.5 -40t13.5 -40t39.5 -15t39.5 15t13.5 40
t-13.5 40t-39.5 15zM705 346q-22 0 -35.5 -14t-13.5 -36t13.5 -36t35.5 -14t35.5 14t13.5 36t-13.5 36t-35.5 14zM690 733l58 -45l-539 -720l-58 45zM45 409l75 10q10 -51 58 -51q61 0 61 63q0 69 -61 69q-37 0 -64 -29l-61 13l22 216h217v-72h-152l-12 -82q25 19 66 19
q57 0 91 -37.5t34 -96.5q0 -61 -39.5 -98t-101.5 -37q-52 0 -90 31.5t-43 81.5z" />
    <glyph glyph-name="seveneighths" unicode="&#x215e;" horiz-adv-x="843" 
d="M641 404q54 0 87 -31t33 -77q0 -24 -12.5 -46.5t-32.5 -33.5q58 -31 58 -93q0 -58 -36.5 -92.5t-96.5 -34.5t-96.5 34.5t-36.5 92.5q0 62 58 93q-20 11 -32.5 33.5t-12.5 46.5q0 46 33 77t87 31zM641 178q-26 0 -39.5 -15t-13.5 -40t13.5 -40t39.5 -15t39.5 15t13.5 40
t-13.5 40t-39.5 15zM641 346q-22 0 -35.5 -14t-13.5 -36t13.5 -36t35.5 -14t35.5 14t13.5 36t-13.5 36t-35.5 14zM626 733l58 -45l-539 -720l-58 45zM306 700v-30l-152 -370h-80l135 328h-153v72h250z" />
    <glyph glyph-name="partialdiff" unicode="&#x2202;" horiz-adv-x="609" 
d="M46 213q0 128 79.5 213.5t213.5 85.5q64 0 98 -30q-19 134 -132 134q-34 0 -63.5 -21t-43.5 -60l-103 31q20 62 78.5 102t130.5 40q132 0 188.5 -84t56.5 -262q0 -75 -16 -138.5t-50 -117t-94 -84t-141 -30.5q-94 0 -148 61t-54 160zM327 420q-75 0 -123 -62t-48 -140
q0 -60 26.5 -97t79.5 -37q76 0 123 63.5t47 143.5q0 129 -105 129z" />
    <glyph glyph-name="Delta" unicode="&#x2206;" horiz-adv-x="682" 
d="M52 0v26l245 674h88l245 -674v-26h-578zM341 560l-162 -466h324z" />
    <glyph glyph-name="product" unicode="&#x220f;" horiz-adv-x="567" 
d="M90 0v700h387v-700h-104v606h-179v-606h-104z" />
    <glyph glyph-name="summation" unicode="&#x2211;" horiz-adv-x="547" 
d="M485 0h-430v45l192 305l-192 305v45h430v-94h-288l154 -244v-24l-154 -244h288v-94z" />
    <glyph glyph-name="minus" unicode="&#x2212;" horiz-adv-x="571" 
d="M64 271v92h445v-92h-445z" />
    <glyph glyph-name="radical" unicode="&#x221a;" horiz-adv-x="586" 
d="M465 708h98l-217 -708h-83l-98 295h-110v94h168l80 -241z" />
    <glyph glyph-name="infinity" unicode="&#x221e;" horiz-adv-x="884" 
d="M640 168q-55 0 -109 25t-89 74q-35 -49 -89 -74t-109 -25q-89 0 -139 52.5t-50 138.5t50 138.5t139 52.5q55 0 109 -25t89 -74q35 49 89 74t109 25q89 0 139 -52.5t50 -138.5t-50 -138.5t-139 -52.5zM259 260q33 0 69 24t62 75q-26 51 -62 75t-69 24q-45 0 -72.5 -25.5
t-27.5 -73.5t27.5 -73.5t72.5 -25.5zM625 260q45 0 72.5 25.5t27.5 73.5t-27.5 73.5t-72.5 25.5q-33 0 -69 -24t-62 -75q26 -51 62 -75t69 -24z" />
    <glyph glyph-name="integral" unicode="&#x222b;" horiz-adv-x="478" 
d="M98 -41l112 571q35 178 203 178q54 0 80 -18l-38 -88q-24 14 -57 14q-67 0 -83 -79l-112 -571q-35 -178 -203 -178q-54 0 -80 18l38 88q24 -14 57 -14q67 0 83 79z" />
    <glyph glyph-name="approxequal" unicode="&#x2248;" horiz-adv-x="617" 
d="M121 357l-56 60q19 42 58.5 71.5t83.5 29.5q45 0 105 -26t93 -26q53 0 92 47l56 -60q-19 -42 -58.5 -71.5t-83.5 -29.5t-104.5 26t-93.5 26q-53 0 -92 -47zM120 157l-56 60q19 42 58.5 71.5t83.5 29.5t105 -26t93 -26q53 0 92 47l56 -60q-19 -42 -58.5 -71.5t-83.5 -29.5
t-104.5 26t-93.5 26q-53 0 -92 -47z" />
    <glyph glyph-name="notequal" unicode="&#x2260;" horiz-adv-x="565" 
d="M75 347v92h228l61 107l80 -46l-35 -61h81v-92h-134l-42 -74h176v-92h-228l-61 -107l-80 46l35 61h-81v92h134l42 74h-176z" />
    <glyph glyph-name="lessequal" unicode="&#x2264;" horiz-adv-x="565" 
d="M98 350v104l364 192v-111l-254 -133l254 -133v-111zM52 0v92h457v-92h-457z" />
    <glyph glyph-name="greaterequal" unicode="&#x2265;" horiz-adv-x="565" 
d="M467 454v-104l-364 -192v111l254 133l-254 133v111zM513 92v-92h-457v92h457z" />
    <glyph glyph-name="lozenge" unicode="&#x25ca;" horiz-adv-x="590" 
d="M245 0l-181 350l181 350h100l181 -350l-181 -350h-100zM295 90l128 260l-128 259l-128 -259z" />
    <glyph glyph-name="apple" unicode="&#xf8ff;" horiz-adv-x="780" 
d="M686 617v-595q0 -9 -6.5 -15.5t-15.5 -6.5q-3 0 -7 1l-267 77l-267 -77q-4 -1 -7 -1q-9 0 -15.5 6.5t-6.5 15.5v595q0 17 16 22l270 78q6 2 10 2t10 -2l270 -78q16 -5 16 -22zM368 366v303l-230 -67q6 -94 71.5 -161t158.5 -75zM412 669v-303q93 8 158.5 75t71.5 161z
M137 463v-412l231 67v204q-73 6 -134 43.5t-97 97.5zM643 51v412q-37 -60 -97.5 -97.5t-133.5 -43.5v-204z" />
    <glyph glyph-name="No" horiz-adv-x="1250" 
d="M499 700h110v-700h-118l-287 502v-502h-110v700h118l287 -504v504zM705 448q0 110 67.5 185t180.5 75t180.5 -75t67.5 -185t-67.5 -185t-180.5 -75t-180.5 75t-67.5 185zM815 448q0 -69 36.5 -118.5t101.5 -49.5t101.5 49.5t36.5 118.5t-36.5 118.5t-101.5 49.5
t-101.5 -49.5t-36.5 -118.5zM731 0v92h445v-92h-445z" />
    <glyph glyph-name="zero.tn" horiz-adv-x="566" 
d="M283 708q122 0 187 -95t65 -263t-65 -263t-187 -95t-187 95t-65 263t65 263t187 95zM283 612q-73 0 -109.5 -68t-36.5 -194t36.5 -194t109.5 -68t109.5 68t36.5 194t-36.5 194t-109.5 68z" />
    <glyph glyph-name="one.tn" horiz-adv-x="566" 
d="M320 700h43v-700h-106v550l-131 -78v112z" />
    <glyph glyph-name="two.tn" horiz-adv-x="566" 
d="M61 0v44l258 331q33 41 44.5 69t11.5 61q0 49 -24.5 78t-71.5 29q-44 0 -71 -29t-33 -78l-100 19q5 79 62.5 131.5t141.5 52.5q90 0 146.5 -53.5t56.5 -145.5q0 -86 -58 -160l-199 -253h270v-96h-434z" />
    <glyph glyph-name="three.tn" horiz-adv-x="566" 
d="M56 193l103 13q19 -118 126 -118q56 0 90.5 35.5t34.5 99.5q0 66 -34.5 101.5t-90.5 35.5q-30 0 -61 -14l-42 56l145 202h-237v96h390v-36l-170 -232q12 3 29 3q80 0 128.5 -59.5t48.5 -152.5q0 -100 -66.5 -165.5t-164.5 -65.5q-91 0 -157 57t-72 144z" />
    <glyph glyph-name="four.tn" horiz-adv-x="566" 
d="M340 0v140h-302v48l296 512h112v-464h82v-96h-82v-140h-106zM170 236h170v304z" />
    <glyph glyph-name="five.tn" horiz-adv-x="566" 
d="M65 183l103 19q9 -59 39.5 -86.5t75.5 -27.5q56 0 86.5 38t30.5 102t-30 102t-87 38q-80 0 -134 -72l-69 14l39 390h348v-96h-259l-21 -175q42 35 102 35q103 0 160 -65.5t57 -170.5q0 -104 -60.5 -170t-162.5 -66q-89 0 -148.5 50.5t-69.5 140.5z" />
    <glyph glyph-name="six.tn" horiz-adv-x="566" 
d="M287 448q96 0 157 -64t61 -164q0 -97 -63.5 -162.5t-160.5 -65.5t-160.5 65.5t-63.5 162.5q0 67 34 127l208 361h118l-153 -264q8 4 23 4zM281 352q-53 0 -85.5 -35.5t-32.5 -96.5q0 -58 33 -95t85 -37t85 37t33 95q0 61 -32.5 96.5t-85.5 35.5z" />
    <glyph glyph-name="seven.tn" horiz-adv-x="566" 
d="M489 700v-48l-268 -652h-106l249 604h-289v96h414z" />
    <glyph glyph-name="eight.tn" horiz-adv-x="566" 
d="M283 708q86 0 142 -55t56 -134q0 -85 -70 -142q96 -56 96 -171q0 -98 -65 -156t-159 -58t-159 58t-65 156q0 115 96 171q-70 55 -70 142q0 79 56 134t142 55zM283 320q-51 0 -84.5 -30t-33.5 -84t34 -86t84 -32t84 32t34 86t-33.5 84t-84.5 30zM283 616q-41 0 -68 -28
t-27 -70q0 -43 27 -71t68 -28t68 28t27 71q0 42 -27 70t-68 28z" />
    <glyph glyph-name="nine.tn" horiz-adv-x="566" 
d="M279 252q-96 0 -157 64t-61 164q0 97 63.5 162.5t160.5 65.5t160.5 -65.5t63.5 -162.5q0 -67 -34 -127l-208 -361h-118l153 264q-8 -4 -23 -4zM285 348q53 0 85.5 35.5t32.5 96.5q0 58 -33 95t-85 37t-85 -37t-33 -95q0 -61 32.5 -96.5t85.5 -35.5z" />
    <glyph glyph-name="quotedblleft.alt" horiz-adv-x="490" 
d="M396 708l24 -29q-71 -60 -71 -108q52 -19 52 -68q0 -29 -19.5 -48.5t-49.5 -19.5q-33 0 -53 21t-20 51q0 110 137 201zM196 708l24 -29q-71 -60 -71 -108q52 -19 52 -68q0 -29 -19.5 -48.5t-49.5 -19.5q-33 0 -53 21t-20 51q0 110 137 201z" />
    <glyph glyph-name="quotedblright.alt" horiz-adv-x="490" 
d="M94 435l-24 29q71 60 71 108q-52 19 -52 68q0 29 19.5 48.5t49.5 19.5q33 0 53 -21t20 -51q0 -110 -137 -201zM294 435l-24 29q71 60 71 108q-52 19 -52 68q0 29 19.5 48.5t49.5 19.5q33 0 53 -21t20 -51q0 -110 -137 -201z" />
    <glyph glyph-name="quoteleft.alt" horiz-adv-x="290" 
d="M196 708l24 -29q-71 -60 -71 -108q52 -19 52 -68q0 -29 -19.5 -48.5t-49.5 -19.5q-33 0 -53 21t-20 51q0 110 137 201z" />
    <glyph glyph-name="quoteright.alt" horiz-adv-x="290" 
d="M94 435l-24 29q71 60 71 108q-52 19 -52 68q0 29 19.5 48.5t49.5 19.5q33 0 53 -21t20 -51q0 -110 -137 -201z" />
    <glyph glyph-name="quotesinglbase.alt" horiz-adv-x="290" 
d="M94 -111l-24 29q71 60 71 108q-52 19 -52 68q0 29 19.5 48.5t49.5 19.5q33 0 53 -21t20 -51q0 -110 -137 -201z" />
    <glyph glyph-name="quotedblbase.alt" horiz-adv-x="490" 
d="M94 -111l-24 29q71 60 71 108q-52 19 -52 68q0 29 19.5 48.5t49.5 19.5q33 0 53 -21t20 -51q0 -110 -137 -201zM294 -111l-24 29q71 60 71 108q-52 19 -52 68q0 29 19.5 48.5t49.5 19.5q33 0 53 -21t20 -51q0 -110 -137 -201z" />
    <glyph glyph-name="arrow.l" horiz-adv-x="654" 
d="M286 103l-246 247l246 247l63 -65l-134 -136h389v-92h-389l134 -136z" />
    <glyph glyph-name="arrow.r" horiz-adv-x="654" 
d="M614 350l-246 -247l-63 65l134 136h-389v92h389l-134 136l63 65z" />
    <glyph glyph-name="arrow.u" horiz-adv-x="646" 
d="M323 634l247 -246l-65 -63l-136 134v-389h-92v389l-136 -134l-65 63z" />
    <glyph glyph-name="arrow.d" horiz-adv-x="646" 
d="M570 316l-247 -246l-247 246l65 63l136 -134v389h92v-389l136 134z" />
    <glyph glyph-name="arrow.ul" horiz-adv-x="647" 
d="M105 566h348v-92h-191l274 -275l-65 -65l-274 275v-192h-92v349z" />
    <glyph glyph-name="arrow.ur" horiz-adv-x="647" 
d="M194 566h348v-349h-92v192l-274 -275l-65 65l274 275h-191v92z" />
    <glyph glyph-name="arrow.dl" horiz-adv-x="647" 
d="M453 134h-348v349h92v-192l274 275l65 -65l-274 -275h191v-92z" />
    <glyph glyph-name="arrow.dr" horiz-adv-x="647" 
d="M542 134h-348v92h191l-274 275l65 65l274 -275v192h92v-349z" />
    <glyph glyph-name="arrow.l.xl" horiz-adv-x="774" 
d="M286 103l-246 247l246 247l63 -65l-134 -136h509v-92h-509l134 -136z" />
    <glyph glyph-name="arrow.r.xl" horiz-adv-x="774" 
d="M734 350l-246 -247l-63 65l134 136h-509v92h509l-134 136l63 65z" />
    <glyph glyph-name="arrow.u.xl" horiz-adv-x="646" 
d="M323 692l247 -246l-65 -63l-136 134v-509h-92v509l-136 -134l-65 63z" />
    <glyph glyph-name="arrow.d.xl" horiz-adv-x="646" 
d="M570 254l-247 -246l-247 246l65 63l136 -134v509h92v-509l136 134z" />
    <glyph glyph-name="arrow.ul.xl" horiz-adv-x="732" 
d="M105 608h349v-92h-191l358 -359l-65 -65l-359 358v-191h-92v349z" />
    <glyph glyph-name="arrow.ur.xl" horiz-adv-x="732" 
d="M278 608h349v-349h-92v191l-359 -358l-65 65l358 359h-191v92z" />
    <glyph glyph-name="arrow.dl.xl" horiz-adv-x="732" 
d="M454 92h-349v349h92v-191l359 358l65 -65l-358 -359h191v-92z" />
    <glyph glyph-name="arrow.dr.xl" horiz-adv-x="732" 
d="M627 92h-349v92h191l-358 359l65 65l359 -358v191h92v-349z" />
    <glyph glyph-name="dcaron.alt" horiz-adv-x="783" 
d="M49 252q0 120 58 190t169 70q37 0 77 -19.5t58 -44.5v260h104v-708h-104v58q-14 -25 -52.5 -45.5t-84.5 -20.5q-110 0 -167.5 68.5t-57.5 191.5zM159 252q0 -77 36 -122.5t93 -45.5t93 45.5t36 122.5t-36 122.5t-93 45.5t-93 -45.5t-36 -122.5zM601 435l-24 29
q71 60 71 108q-52 19 -52 68q0 29 19.5 48.5t49.5 19.5q33 0 53 -21t20 -51q0 -110 -137 -201z" />
    <glyph glyph-name="uni0123.alt" horiz-adv-x="511" 
d="M87 343q0 77 51 123t129 46q50 0 92 -22l93 50l42 -75l-68 -38q22 -38 22 -84q0 -78 -51 -123.5t-130 -45.5q-43 0 -81 15q-27 -15 -27 -44q0 -39 52 -39h111q76 0 121.5 -37t45.5 -107q0 -88 -63.5 -131t-157.5 -43q-99 0 -160.5 43t-61.5 123q0 62 43 102
q-29 29 -29 79q0 67 61 102q-34 42 -34 106zM300 18h-81q-27 0 -51 3q-22 -23 -22 -61t32.5 -60t89.5 -22q54 0 84.5 20t30.5 56q0 64 -83 64zM188 343q0 -37 22 -59.5t57 -22.5q36 0 58 22.5t22 59.5t-22 59.5t-58 22.5q-35 0 -57 -22.5t-22 -59.5zM301 835l24 -29
q-71 -60 -71 -108q52 -19 52 -68q0 -29 -19.5 -48.5t-49.5 -19.5q-33 0 -53 21t-20 51q0 110 137 201z" />
    <glyph glyph-name="lcaron.alt" horiz-adv-x="446" 
d="M84 708h104v-708h-104v708zM264 435l-24 29q71 60 71 108q-52 19 -52 68q0 29 19.5 48.5t49.5 19.5q33 0 53 -21t20 -51q0 -110 -137 -201z" />
    <glyph glyph-name="napostrophe.alt" horiz-adv-x="729" 
d="M239 504h104v-86q27 45 70 69.5t93 24.5q67 0 107.5 -39.5t40.5 -111.5v-361h-104v328q0 92 -78 92q-52 0 -90.5 -58.5t-38.5 -157.5v-204h-104v504zM94 435l-24 29q71 60 71 108q-52 19 -52 68q0 29 19.5 48.5t49.5 19.5q33 0 53 -21t20 -51q0 -110 -137 -201z" />
    <glyph glyph-name="tcaron.alt" horiz-adv-x="568" 
d="M21 412v92h84v139l104 65v-204h131v-92h-131v-246q0 -82 67 -82q25 0 48 14l27 -88q-37 -18 -81 -18q-75 0 -120 45.5t-45 134.5v240h-84zM399 435l-24 29q71 60 71 108q-52 19 -52 68q0 29 19.5 48.5t49.5 19.5q33 0 53 -21t20 -51q0 -110 -137 -201z" />
    </font>
</defs>
</svg>
